G04 #@! TF.GenerationSoftware,KiCad,Pcbnew,(5.1.5)-3*
G04 #@! TF.CreationDate,2020-02-20T05:13:04+09:00*
G04 #@! TF.ProjectId,ServoDriver-order,53657276-6f44-4726-9976-65722d6f7264,rev?*
G04 #@! TF.SameCoordinates,Original*
G04 #@! TF.FileFunction,Legend,Top*
G04 #@! TF.FilePolarity,Positive*
%FSLAX46Y46*%
G04 Gerber Fmt 4.6, Leading zero omitted, Abs format (unit mm)*
G04 Created by KiCad (PCBNEW (5.1.5)-3) date 2020-02-20 05:13:04*
%MOMM*%
%LPD*%
G04 APERTURE LIST*
%ADD10C,0.050000*%
%ADD11C,0.150000*%
%ADD12C,0.120000*%
%ADD13C,0.200000*%
%ADD14C,0.254000*%
%ADD15C,3.302000*%
%ADD16R,1.802000X1.802000*%
%ADD17O,1.802000X1.802000*%
%ADD18C,0.100000*%
%ADD19R,3.902000X3.902000*%
%ADD20C,3.902000*%
%ADD21R,1.702000X1.702000*%
%ADD22O,1.702000X1.702000*%
%ADD23R,1.952000X0.752000*%
%ADD24O,1.802000X2.052000*%
%ADD25R,2.007000X2.102000*%
%ADD26O,2.007000X2.102000*%
G04 APERTURE END LIST*
D10*
X168000000Y-57000000D02*
X119000000Y-57000000D01*
X172000000Y-86000000D02*
G75*
G02X168000000Y-90000000I-4000000J0D01*
G01*
X172000000Y-119000000D02*
G75*
G02X168000000Y-123000000I-4000000J0D01*
G01*
X115000000Y-61000000D02*
X115000000Y-86000000D01*
X115000000Y-94000000D02*
X115000000Y-119000000D01*
X172000000Y-86000000D02*
X172000000Y-61000000D01*
X172000000Y-119000000D02*
X172000000Y-94000000D01*
X168000000Y-57000000D02*
G75*
G02X172000000Y-61000000I0J-4000000D01*
G01*
X168000000Y-90000000D02*
G75*
G02X172000000Y-94000000I0J-4000000D01*
G01*
X115000000Y-61000000D02*
G75*
G02X119000000Y-57000000I4000000J0D01*
G01*
X115000000Y-94000000D02*
G75*
G02X119000000Y-90000000I4000000J0D01*
G01*
X119000000Y-90000000D02*
G75*
G02X115000000Y-86000000I0J4000000D01*
G01*
X119000000Y-123000000D02*
G75*
G02X115000000Y-119000000I0J4000000D01*
G01*
D11*
X156880952Y-76166666D02*
X157357142Y-76166666D01*
X156785714Y-76452380D02*
X157119047Y-75452380D01*
X157452380Y-76452380D01*
X158214285Y-76452380D02*
X158214285Y-75452380D01*
X158214285Y-76404761D02*
X158119047Y-76452380D01*
X157928571Y-76452380D01*
X157833333Y-76404761D01*
X157785714Y-76357142D01*
X157738095Y-76261904D01*
X157738095Y-75976190D01*
X157785714Y-75880952D01*
X157833333Y-75833333D01*
X157928571Y-75785714D01*
X158119047Y-75785714D01*
X158214285Y-75833333D01*
X159119047Y-76452380D02*
X159119047Y-75452380D01*
X159119047Y-76404761D02*
X159023809Y-76452380D01*
X158833333Y-76452380D01*
X158738095Y-76404761D01*
X158690476Y-76357142D01*
X158642857Y-76261904D01*
X158642857Y-75976190D01*
X158690476Y-75880952D01*
X158738095Y-75833333D01*
X158833333Y-75785714D01*
X159023809Y-75785714D01*
X159119047Y-75833333D01*
X159595238Y-76452380D02*
X159595238Y-75785714D01*
X159595238Y-75452380D02*
X159547619Y-75500000D01*
X159595238Y-75547619D01*
X159642857Y-75500000D01*
X159595238Y-75452380D01*
X159595238Y-75547619D01*
X159928571Y-75785714D02*
X160309523Y-75785714D01*
X160071428Y-75452380D02*
X160071428Y-76309523D01*
X160119047Y-76404761D01*
X160214285Y-76452380D01*
X160309523Y-76452380D01*
X160642857Y-76452380D02*
X160642857Y-75785714D01*
X160642857Y-75452380D02*
X160595238Y-75500000D01*
X160642857Y-75547619D01*
X160690476Y-75500000D01*
X160642857Y-75452380D01*
X160642857Y-75547619D01*
X161261904Y-76452380D02*
X161166666Y-76404761D01*
X161119047Y-76357142D01*
X161071428Y-76261904D01*
X161071428Y-75976190D01*
X161119047Y-75880952D01*
X161166666Y-75833333D01*
X161261904Y-75785714D01*
X161404761Y-75785714D01*
X161500000Y-75833333D01*
X161547619Y-75880952D01*
X161595238Y-75976190D01*
X161595238Y-76261904D01*
X161547619Y-76357142D01*
X161500000Y-76404761D01*
X161404761Y-76452380D01*
X161261904Y-76452380D01*
X162023809Y-75785714D02*
X162023809Y-76452380D01*
X162023809Y-75880952D02*
X162071428Y-75833333D01*
X162166666Y-75785714D01*
X162309523Y-75785714D01*
X162404761Y-75833333D01*
X162452380Y-75928571D01*
X162452380Y-76452380D01*
X163357142Y-76452380D02*
X163357142Y-75928571D01*
X163309523Y-75833333D01*
X163214285Y-75785714D01*
X163023809Y-75785714D01*
X162928571Y-75833333D01*
X163357142Y-76404761D02*
X163261904Y-76452380D01*
X163023809Y-76452380D01*
X162928571Y-76404761D01*
X162880952Y-76309523D01*
X162880952Y-76214285D01*
X162928571Y-76119047D01*
X163023809Y-76071428D01*
X163261904Y-76071428D01*
X163357142Y-76023809D01*
X163976190Y-76452380D02*
X163880952Y-76404761D01*
X163833333Y-76309523D01*
X163833333Y-75452380D01*
X165119047Y-76452380D02*
X165119047Y-75452380D01*
X165500000Y-75452380D01*
X165595238Y-75500000D01*
X165642857Y-75547619D01*
X165690476Y-75642857D01*
X165690476Y-75785714D01*
X165642857Y-75880952D01*
X165595238Y-75928571D01*
X165500000Y-75976190D01*
X165119047Y-75976190D01*
X166261904Y-76452380D02*
X166166666Y-76404761D01*
X166119047Y-76357142D01*
X166071428Y-76261904D01*
X166071428Y-75976190D01*
X166119047Y-75880952D01*
X166166666Y-75833333D01*
X166261904Y-75785714D01*
X166404761Y-75785714D01*
X166500000Y-75833333D01*
X166547619Y-75880952D01*
X166595238Y-75976190D01*
X166595238Y-76261904D01*
X166547619Y-76357142D01*
X166500000Y-76404761D01*
X166404761Y-76452380D01*
X166261904Y-76452380D01*
X166928571Y-75785714D02*
X167119047Y-76452380D01*
X167309523Y-75976190D01*
X167500000Y-76452380D01*
X167690476Y-75785714D01*
X168452380Y-76404761D02*
X168357142Y-76452380D01*
X168166666Y-76452380D01*
X168071428Y-76404761D01*
X168023809Y-76309523D01*
X168023809Y-75928571D01*
X168071428Y-75833333D01*
X168166666Y-75785714D01*
X168357142Y-75785714D01*
X168452380Y-75833333D01*
X168500000Y-75928571D01*
X168500000Y-76023809D01*
X168023809Y-76119047D01*
X168928571Y-76452380D02*
X168928571Y-75785714D01*
X168928571Y-75976190D02*
X168976190Y-75880952D01*
X169023809Y-75833333D01*
X169119047Y-75785714D01*
X169214285Y-75785714D01*
X156880952Y-109166666D02*
X157357142Y-109166666D01*
X156785714Y-109452380D02*
X157119047Y-108452380D01*
X157452380Y-109452380D01*
X158214285Y-109452380D02*
X158214285Y-108452380D01*
X158214285Y-109404761D02*
X158119047Y-109452380D01*
X157928571Y-109452380D01*
X157833333Y-109404761D01*
X157785714Y-109357142D01*
X157738095Y-109261904D01*
X157738095Y-108976190D01*
X157785714Y-108880952D01*
X157833333Y-108833333D01*
X157928571Y-108785714D01*
X158119047Y-108785714D01*
X158214285Y-108833333D01*
X159119047Y-109452380D02*
X159119047Y-108452380D01*
X159119047Y-109404761D02*
X159023809Y-109452380D01*
X158833333Y-109452380D01*
X158738095Y-109404761D01*
X158690476Y-109357142D01*
X158642857Y-109261904D01*
X158642857Y-108976190D01*
X158690476Y-108880952D01*
X158738095Y-108833333D01*
X158833333Y-108785714D01*
X159023809Y-108785714D01*
X159119047Y-108833333D01*
X159595238Y-109452380D02*
X159595238Y-108785714D01*
X159595238Y-108452380D02*
X159547619Y-108500000D01*
X159595238Y-108547619D01*
X159642857Y-108500000D01*
X159595238Y-108452380D01*
X159595238Y-108547619D01*
X159928571Y-108785714D02*
X160309523Y-108785714D01*
X160071428Y-108452380D02*
X160071428Y-109309523D01*
X160119047Y-109404761D01*
X160214285Y-109452380D01*
X160309523Y-109452380D01*
X160642857Y-109452380D02*
X160642857Y-108785714D01*
X160642857Y-108452380D02*
X160595238Y-108500000D01*
X160642857Y-108547619D01*
X160690476Y-108500000D01*
X160642857Y-108452380D01*
X160642857Y-108547619D01*
X161261904Y-109452380D02*
X161166666Y-109404761D01*
X161119047Y-109357142D01*
X161071428Y-109261904D01*
X161071428Y-108976190D01*
X161119047Y-108880952D01*
X161166666Y-108833333D01*
X161261904Y-108785714D01*
X161404761Y-108785714D01*
X161500000Y-108833333D01*
X161547619Y-108880952D01*
X161595238Y-108976190D01*
X161595238Y-109261904D01*
X161547619Y-109357142D01*
X161500000Y-109404761D01*
X161404761Y-109452380D01*
X161261904Y-109452380D01*
X162023809Y-108785714D02*
X162023809Y-109452380D01*
X162023809Y-108880952D02*
X162071428Y-108833333D01*
X162166666Y-108785714D01*
X162309523Y-108785714D01*
X162404761Y-108833333D01*
X162452380Y-108928571D01*
X162452380Y-109452380D01*
X163357142Y-109452380D02*
X163357142Y-108928571D01*
X163309523Y-108833333D01*
X163214285Y-108785714D01*
X163023809Y-108785714D01*
X162928571Y-108833333D01*
X163357142Y-109404761D02*
X163261904Y-109452380D01*
X163023809Y-109452380D01*
X162928571Y-109404761D01*
X162880952Y-109309523D01*
X162880952Y-109214285D01*
X162928571Y-109119047D01*
X163023809Y-109071428D01*
X163261904Y-109071428D01*
X163357142Y-109023809D01*
X163976190Y-109452380D02*
X163880952Y-109404761D01*
X163833333Y-109309523D01*
X163833333Y-108452380D01*
X165119047Y-109452380D02*
X165119047Y-108452380D01*
X165500000Y-108452380D01*
X165595238Y-108500000D01*
X165642857Y-108547619D01*
X165690476Y-108642857D01*
X165690476Y-108785714D01*
X165642857Y-108880952D01*
X165595238Y-108928571D01*
X165500000Y-108976190D01*
X165119047Y-108976190D01*
X166261904Y-109452380D02*
X166166666Y-109404761D01*
X166119047Y-109357142D01*
X166071428Y-109261904D01*
X166071428Y-108976190D01*
X166119047Y-108880952D01*
X166166666Y-108833333D01*
X166261904Y-108785714D01*
X166404761Y-108785714D01*
X166500000Y-108833333D01*
X166547619Y-108880952D01*
X166595238Y-108976190D01*
X166595238Y-109261904D01*
X166547619Y-109357142D01*
X166500000Y-109404761D01*
X166404761Y-109452380D01*
X166261904Y-109452380D01*
X166928571Y-108785714D02*
X167119047Y-109452380D01*
X167309523Y-108976190D01*
X167500000Y-109452380D01*
X167690476Y-108785714D01*
X168452380Y-109404761D02*
X168357142Y-109452380D01*
X168166666Y-109452380D01*
X168071428Y-109404761D01*
X168023809Y-109309523D01*
X168023809Y-108928571D01*
X168071428Y-108833333D01*
X168166666Y-108785714D01*
X168357142Y-108785714D01*
X168452380Y-108833333D01*
X168500000Y-108928571D01*
X168500000Y-109023809D01*
X168023809Y-109119047D01*
X168928571Y-109452380D02*
X168928571Y-108785714D01*
X168928571Y-108976190D02*
X168976190Y-108880952D01*
X169023809Y-108833333D01*
X169119047Y-108785714D01*
X169214285Y-108785714D01*
X158238095Y-67452380D02*
X157904761Y-66976190D01*
X157666666Y-67452380D02*
X157666666Y-66452380D01*
X158047619Y-66452380D01*
X158142857Y-66500000D01*
X158190476Y-66547619D01*
X158238095Y-66642857D01*
X158238095Y-66785714D01*
X158190476Y-66880952D01*
X158142857Y-66928571D01*
X158047619Y-66976190D01*
X157666666Y-66976190D01*
X158619047Y-67404761D02*
X158761904Y-67452380D01*
X159000000Y-67452380D01*
X159095238Y-67404761D01*
X159142857Y-67357142D01*
X159190476Y-67261904D01*
X159190476Y-67166666D01*
X159142857Y-67071428D01*
X159095238Y-67023809D01*
X159000000Y-66976190D01*
X158809523Y-66928571D01*
X158714285Y-66880952D01*
X158666666Y-66833333D01*
X158619047Y-66738095D01*
X158619047Y-66642857D01*
X158666666Y-66547619D01*
X158714285Y-66500000D01*
X158809523Y-66452380D01*
X159047619Y-66452380D01*
X159190476Y-66500000D01*
X160047619Y-66785714D02*
X160047619Y-67452380D01*
X159809523Y-66404761D02*
X159571428Y-67119047D01*
X160190476Y-67119047D01*
X160714285Y-66880952D02*
X160619047Y-66833333D01*
X160571428Y-66785714D01*
X160523809Y-66690476D01*
X160523809Y-66642857D01*
X160571428Y-66547619D01*
X160619047Y-66500000D01*
X160714285Y-66452380D01*
X160904761Y-66452380D01*
X161000000Y-66500000D01*
X161047619Y-66547619D01*
X161095238Y-66642857D01*
X161095238Y-66690476D01*
X161047619Y-66785714D01*
X161000000Y-66833333D01*
X160904761Y-66880952D01*
X160714285Y-66880952D01*
X160619047Y-66928571D01*
X160571428Y-66976190D01*
X160523809Y-67071428D01*
X160523809Y-67261904D01*
X160571428Y-67357142D01*
X160619047Y-67404761D01*
X160714285Y-67452380D01*
X160904761Y-67452380D01*
X161000000Y-67404761D01*
X161047619Y-67357142D01*
X161095238Y-67261904D01*
X161095238Y-67071428D01*
X161047619Y-66976190D01*
X161000000Y-66928571D01*
X160904761Y-66880952D01*
X162000000Y-66452380D02*
X161523809Y-66452380D01*
X161476190Y-66928571D01*
X161523809Y-66880952D01*
X161619047Y-66833333D01*
X161857142Y-66833333D01*
X161952380Y-66880952D01*
X162000000Y-66928571D01*
X162047619Y-67023809D01*
X162047619Y-67261904D01*
X162000000Y-67357142D01*
X161952380Y-67404761D01*
X161857142Y-67452380D01*
X161619047Y-67452380D01*
X161523809Y-67404761D01*
X161476190Y-67357142D01*
X163380952Y-67452380D02*
X163285714Y-67404761D01*
X163238095Y-67357142D01*
X163190476Y-67261904D01*
X163190476Y-66976190D01*
X163238095Y-66880952D01*
X163285714Y-66833333D01*
X163380952Y-66785714D01*
X163523809Y-66785714D01*
X163619047Y-66833333D01*
X163666666Y-66880952D01*
X163714285Y-66976190D01*
X163714285Y-67261904D01*
X163666666Y-67357142D01*
X163619047Y-67404761D01*
X163523809Y-67452380D01*
X163380952Y-67452380D01*
X164142857Y-67452380D02*
X164142857Y-66785714D01*
X164142857Y-66976190D02*
X164190476Y-66880952D01*
X164238095Y-66833333D01*
X164333333Y-66785714D01*
X164428571Y-66785714D01*
X165523809Y-67452380D02*
X165523809Y-66452380D01*
X165904761Y-66452380D01*
X166000000Y-66500000D01*
X166047619Y-66547619D01*
X166095238Y-66642857D01*
X166095238Y-66785714D01*
X166047619Y-66880952D01*
X166000000Y-66928571D01*
X165904761Y-66976190D01*
X165523809Y-66976190D01*
X166428571Y-66452380D02*
X166666666Y-67452380D01*
X166857142Y-66738095D01*
X167047619Y-67452380D01*
X167285714Y-66452380D01*
X167666666Y-67452380D02*
X167666666Y-66452380D01*
X168000000Y-67166666D01*
X168333333Y-66452380D01*
X168333333Y-67452380D01*
X158238095Y-100452380D02*
X157904761Y-99976190D01*
X157666666Y-100452380D02*
X157666666Y-99452380D01*
X158047619Y-99452380D01*
X158142857Y-99500000D01*
X158190476Y-99547619D01*
X158238095Y-99642857D01*
X158238095Y-99785714D01*
X158190476Y-99880952D01*
X158142857Y-99928571D01*
X158047619Y-99976190D01*
X157666666Y-99976190D01*
X158619047Y-100404761D02*
X158761904Y-100452380D01*
X159000000Y-100452380D01*
X159095238Y-100404761D01*
X159142857Y-100357142D01*
X159190476Y-100261904D01*
X159190476Y-100166666D01*
X159142857Y-100071428D01*
X159095238Y-100023809D01*
X159000000Y-99976190D01*
X158809523Y-99928571D01*
X158714285Y-99880952D01*
X158666666Y-99833333D01*
X158619047Y-99738095D01*
X158619047Y-99642857D01*
X158666666Y-99547619D01*
X158714285Y-99500000D01*
X158809523Y-99452380D01*
X159047619Y-99452380D01*
X159190476Y-99500000D01*
X160047619Y-99785714D02*
X160047619Y-100452380D01*
X159809523Y-99404761D02*
X159571428Y-100119047D01*
X160190476Y-100119047D01*
X160714285Y-99880952D02*
X160619047Y-99833333D01*
X160571428Y-99785714D01*
X160523809Y-99690476D01*
X160523809Y-99642857D01*
X160571428Y-99547619D01*
X160619047Y-99500000D01*
X160714285Y-99452380D01*
X160904761Y-99452380D01*
X161000000Y-99500000D01*
X161047619Y-99547619D01*
X161095238Y-99642857D01*
X161095238Y-99690476D01*
X161047619Y-99785714D01*
X161000000Y-99833333D01*
X160904761Y-99880952D01*
X160714285Y-99880952D01*
X160619047Y-99928571D01*
X160571428Y-99976190D01*
X160523809Y-100071428D01*
X160523809Y-100261904D01*
X160571428Y-100357142D01*
X160619047Y-100404761D01*
X160714285Y-100452380D01*
X160904761Y-100452380D01*
X161000000Y-100404761D01*
X161047619Y-100357142D01*
X161095238Y-100261904D01*
X161095238Y-100071428D01*
X161047619Y-99976190D01*
X161000000Y-99928571D01*
X160904761Y-99880952D01*
X162000000Y-99452380D02*
X161523809Y-99452380D01*
X161476190Y-99928571D01*
X161523809Y-99880952D01*
X161619047Y-99833333D01*
X161857142Y-99833333D01*
X161952380Y-99880952D01*
X162000000Y-99928571D01*
X162047619Y-100023809D01*
X162047619Y-100261904D01*
X162000000Y-100357142D01*
X161952380Y-100404761D01*
X161857142Y-100452380D01*
X161619047Y-100452380D01*
X161523809Y-100404761D01*
X161476190Y-100357142D01*
X163380952Y-100452380D02*
X163285714Y-100404761D01*
X163238095Y-100357142D01*
X163190476Y-100261904D01*
X163190476Y-99976190D01*
X163238095Y-99880952D01*
X163285714Y-99833333D01*
X163380952Y-99785714D01*
X163523809Y-99785714D01*
X163619047Y-99833333D01*
X163666666Y-99880952D01*
X163714285Y-99976190D01*
X163714285Y-100261904D01*
X163666666Y-100357142D01*
X163619047Y-100404761D01*
X163523809Y-100452380D01*
X163380952Y-100452380D01*
X164142857Y-100452380D02*
X164142857Y-99785714D01*
X164142857Y-99976190D02*
X164190476Y-99880952D01*
X164238095Y-99833333D01*
X164333333Y-99785714D01*
X164428571Y-99785714D01*
X165523809Y-100452380D02*
X165523809Y-99452380D01*
X165904761Y-99452380D01*
X166000000Y-99500000D01*
X166047619Y-99547619D01*
X166095238Y-99642857D01*
X166095238Y-99785714D01*
X166047619Y-99880952D01*
X166000000Y-99928571D01*
X165904761Y-99976190D01*
X165523809Y-99976190D01*
X166428571Y-99452380D02*
X166666666Y-100452380D01*
X166857142Y-99738095D01*
X167047619Y-100452380D01*
X167285714Y-99452380D01*
X167666666Y-100452380D02*
X167666666Y-99452380D01*
X168000000Y-100166666D01*
X168333333Y-99452380D01*
X168333333Y-100452380D01*
X135595238Y-58352380D02*
X135595238Y-57352380D01*
X135976190Y-57352380D01*
X136071428Y-57400000D01*
X136119047Y-57447619D01*
X136166666Y-57542857D01*
X136166666Y-57685714D01*
X136119047Y-57780952D01*
X136071428Y-57828571D01*
X135976190Y-57876190D01*
X135595238Y-57876190D01*
X136500000Y-57352380D02*
X136738095Y-58352380D01*
X136928571Y-57638095D01*
X137119047Y-58352380D01*
X137357142Y-57352380D01*
X137738095Y-58352380D02*
X137738095Y-57352380D01*
X138071428Y-58066666D01*
X138404761Y-57352380D01*
X138404761Y-58352380D01*
X135595238Y-91352380D02*
X135595238Y-90352380D01*
X135976190Y-90352380D01*
X136071428Y-90400000D01*
X136119047Y-90447619D01*
X136166666Y-90542857D01*
X136166666Y-90685714D01*
X136119047Y-90780952D01*
X136071428Y-90828571D01*
X135976190Y-90876190D01*
X135595238Y-90876190D01*
X136500000Y-90352380D02*
X136738095Y-91352380D01*
X136928571Y-90638095D01*
X137119047Y-91352380D01*
X137357142Y-90352380D01*
X137738095Y-91352380D02*
X137738095Y-90352380D01*
X138071428Y-91066666D01*
X138404761Y-90352380D01*
X138404761Y-91352380D01*
D12*
X163278095Y-84085714D02*
X164078095Y-84085714D01*
X164078095Y-84390476D01*
X164040000Y-84466666D01*
X164001904Y-84504761D01*
X163925714Y-84542857D01*
X163811428Y-84542857D01*
X163735238Y-84504761D01*
X163697142Y-84466666D01*
X163659047Y-84390476D01*
X163659047Y-84085714D01*
X163278095Y-84885714D02*
X163811428Y-84885714D01*
X164078095Y-84885714D02*
X164040000Y-84847619D01*
X164001904Y-84885714D01*
X164040000Y-84923809D01*
X164078095Y-84885714D01*
X164001904Y-84885714D01*
X163811428Y-85266666D02*
X163278095Y-85266666D01*
X163735238Y-85266666D02*
X163773333Y-85304761D01*
X163811428Y-85380952D01*
X163811428Y-85495238D01*
X163773333Y-85571428D01*
X163697142Y-85609523D01*
X163278095Y-85609523D01*
X163316190Y-86942857D02*
X163278095Y-86866666D01*
X163278095Y-86714285D01*
X163316190Y-86638095D01*
X163354285Y-86600000D01*
X163430476Y-86561904D01*
X163659047Y-86561904D01*
X163735238Y-86600000D01*
X163773333Y-86638095D01*
X163811428Y-86714285D01*
X163811428Y-86866666D01*
X163773333Y-86942857D01*
X163278095Y-87400000D02*
X163316190Y-87323809D01*
X163354285Y-87285714D01*
X163430476Y-87247619D01*
X163659047Y-87247619D01*
X163735238Y-87285714D01*
X163773333Y-87323809D01*
X163811428Y-87400000D01*
X163811428Y-87514285D01*
X163773333Y-87590476D01*
X163735238Y-87628571D01*
X163659047Y-87666666D01*
X163430476Y-87666666D01*
X163354285Y-87628571D01*
X163316190Y-87590476D01*
X163278095Y-87514285D01*
X163278095Y-87400000D01*
X163811428Y-88009523D02*
X163278095Y-88009523D01*
X163735238Y-88009523D02*
X163773333Y-88047619D01*
X163811428Y-88123809D01*
X163811428Y-88238095D01*
X163773333Y-88314285D01*
X163697142Y-88352380D01*
X163278095Y-88352380D01*
X163811428Y-88619047D02*
X163811428Y-88923809D01*
X163278095Y-88733333D02*
X163963809Y-88733333D01*
X164040000Y-88771428D01*
X164078095Y-88847619D01*
X164078095Y-88923809D01*
X163278095Y-89190476D02*
X163811428Y-89190476D01*
X164078095Y-89190476D02*
X164040000Y-89152380D01*
X164001904Y-89190476D01*
X164040000Y-89228571D01*
X164078095Y-89190476D01*
X164001904Y-89190476D01*
X163811428Y-89914285D02*
X163163809Y-89914285D01*
X163087619Y-89876190D01*
X163049523Y-89838095D01*
X163011428Y-89761904D01*
X163011428Y-89647619D01*
X163049523Y-89571428D01*
X163316190Y-89914285D02*
X163278095Y-89838095D01*
X163278095Y-89685714D01*
X163316190Y-89609523D01*
X163354285Y-89571428D01*
X163430476Y-89533333D01*
X163659047Y-89533333D01*
X163735238Y-89571428D01*
X163773333Y-89609523D01*
X163811428Y-89685714D01*
X163811428Y-89838095D01*
X163773333Y-89914285D01*
X161958095Y-86295238D02*
X162758095Y-86295238D01*
X162758095Y-86485714D01*
X162720000Y-86600000D01*
X162643809Y-86676190D01*
X162567619Y-86714285D01*
X162415238Y-86752380D01*
X162300952Y-86752380D01*
X162148571Y-86714285D01*
X162072380Y-86676190D01*
X161996190Y-86600000D01*
X161958095Y-86485714D01*
X161958095Y-86295238D01*
X162262857Y-87095238D02*
X162262857Y-87704761D01*
X160638095Y-84447619D02*
X161438095Y-84447619D01*
X161438095Y-84638095D01*
X161400000Y-84752380D01*
X161323809Y-84828571D01*
X161247619Y-84866666D01*
X161095238Y-84904761D01*
X160980952Y-84904761D01*
X160828571Y-84866666D01*
X160752380Y-84828571D01*
X160676190Y-84752380D01*
X160638095Y-84638095D01*
X160638095Y-84447619D01*
X160942857Y-85247619D02*
X160942857Y-85857142D01*
X160638095Y-85552380D02*
X161247619Y-85552380D01*
X160333333Y-86466666D02*
X160371428Y-86428571D01*
X160485714Y-86352380D01*
X160561904Y-86314285D01*
X160676190Y-86276190D01*
X160866666Y-86238095D01*
X161019047Y-86238095D01*
X161209523Y-86276190D01*
X161323809Y-86314285D01*
X161400000Y-86352380D01*
X161514285Y-86428571D01*
X161552380Y-86466666D01*
X160638095Y-86771428D02*
X161438095Y-86771428D01*
X161438095Y-87076190D01*
X161400000Y-87152380D01*
X161361904Y-87190476D01*
X161285714Y-87228571D01*
X161171428Y-87228571D01*
X161095238Y-87190476D01*
X161057142Y-87152380D01*
X161019047Y-87076190D01*
X161019047Y-86771428D01*
X161438095Y-87495238D02*
X160638095Y-87685714D01*
X161209523Y-87838095D01*
X160638095Y-87990476D01*
X161438095Y-88180952D01*
X160638095Y-88485714D02*
X161438095Y-88485714D01*
X160866666Y-88752380D01*
X161438095Y-89019047D01*
X160638095Y-89019047D01*
X160333333Y-89323809D02*
X160371428Y-89361904D01*
X160485714Y-89438095D01*
X160561904Y-89476190D01*
X160676190Y-89514285D01*
X160866666Y-89552380D01*
X161019047Y-89552380D01*
X161209523Y-89514285D01*
X161323809Y-89476190D01*
X161400000Y-89438095D01*
X161514285Y-89361904D01*
X161552380Y-89323809D01*
X160118095Y-85933333D02*
X159318095Y-86200000D01*
X160118095Y-86466666D01*
X159394285Y-87190476D02*
X159356190Y-87152380D01*
X159318095Y-87038095D01*
X159318095Y-86961904D01*
X159356190Y-86847619D01*
X159432380Y-86771428D01*
X159508571Y-86733333D01*
X159660952Y-86695238D01*
X159775238Y-86695238D01*
X159927619Y-86733333D01*
X160003809Y-86771428D01*
X160080000Y-86847619D01*
X160118095Y-86961904D01*
X160118095Y-87038095D01*
X160080000Y-87152380D01*
X160041904Y-87190476D01*
X159394285Y-87990476D02*
X159356190Y-87952380D01*
X159318095Y-87838095D01*
X159318095Y-87761904D01*
X159356190Y-87647619D01*
X159432380Y-87571428D01*
X159508571Y-87533333D01*
X159660952Y-87495238D01*
X159775238Y-87495238D01*
X159927619Y-87533333D01*
X160003809Y-87571428D01*
X160080000Y-87647619D01*
X160118095Y-87761904D01*
X160118095Y-87838095D01*
X160080000Y-87952380D01*
X160041904Y-87990476D01*
X158760000Y-86390476D02*
X158798095Y-86314285D01*
X158798095Y-86200000D01*
X158760000Y-86085714D01*
X158683809Y-86009523D01*
X158607619Y-85971428D01*
X158455238Y-85933333D01*
X158340952Y-85933333D01*
X158188571Y-85971428D01*
X158112380Y-86009523D01*
X158036190Y-86085714D01*
X157998095Y-86200000D01*
X157998095Y-86276190D01*
X158036190Y-86390476D01*
X158074285Y-86428571D01*
X158340952Y-86428571D01*
X158340952Y-86276190D01*
X157998095Y-86771428D02*
X158798095Y-86771428D01*
X157998095Y-87228571D01*
X158798095Y-87228571D01*
X157998095Y-87609523D02*
X158798095Y-87609523D01*
X158798095Y-87800000D01*
X158760000Y-87914285D01*
X158683809Y-87990476D01*
X158607619Y-88028571D01*
X158455238Y-88066666D01*
X158340952Y-88066666D01*
X158188571Y-88028571D01*
X158112380Y-87990476D01*
X158036190Y-87914285D01*
X157998095Y-87800000D01*
X157998095Y-87609523D01*
X163278095Y-117085714D02*
X164078095Y-117085714D01*
X164078095Y-117390476D01*
X164040000Y-117466666D01*
X164001904Y-117504761D01*
X163925714Y-117542857D01*
X163811428Y-117542857D01*
X163735238Y-117504761D01*
X163697142Y-117466666D01*
X163659047Y-117390476D01*
X163659047Y-117085714D01*
X163278095Y-117885714D02*
X163811428Y-117885714D01*
X164078095Y-117885714D02*
X164040000Y-117847619D01*
X164001904Y-117885714D01*
X164040000Y-117923809D01*
X164078095Y-117885714D01*
X164001904Y-117885714D01*
X163811428Y-118266666D02*
X163278095Y-118266666D01*
X163735238Y-118266666D02*
X163773333Y-118304761D01*
X163811428Y-118380952D01*
X163811428Y-118495238D01*
X163773333Y-118571428D01*
X163697142Y-118609523D01*
X163278095Y-118609523D01*
X163316190Y-119942857D02*
X163278095Y-119866666D01*
X163278095Y-119714285D01*
X163316190Y-119638095D01*
X163354285Y-119600000D01*
X163430476Y-119561904D01*
X163659047Y-119561904D01*
X163735238Y-119600000D01*
X163773333Y-119638095D01*
X163811428Y-119714285D01*
X163811428Y-119866666D01*
X163773333Y-119942857D01*
X163278095Y-120400000D02*
X163316190Y-120323809D01*
X163354285Y-120285714D01*
X163430476Y-120247619D01*
X163659047Y-120247619D01*
X163735238Y-120285714D01*
X163773333Y-120323809D01*
X163811428Y-120400000D01*
X163811428Y-120514285D01*
X163773333Y-120590476D01*
X163735238Y-120628571D01*
X163659047Y-120666666D01*
X163430476Y-120666666D01*
X163354285Y-120628571D01*
X163316190Y-120590476D01*
X163278095Y-120514285D01*
X163278095Y-120400000D01*
X163811428Y-121009523D02*
X163278095Y-121009523D01*
X163735238Y-121009523D02*
X163773333Y-121047619D01*
X163811428Y-121123809D01*
X163811428Y-121238095D01*
X163773333Y-121314285D01*
X163697142Y-121352380D01*
X163278095Y-121352380D01*
X163811428Y-121619047D02*
X163811428Y-121923809D01*
X163278095Y-121733333D02*
X163963809Y-121733333D01*
X164040000Y-121771428D01*
X164078095Y-121847619D01*
X164078095Y-121923809D01*
X163278095Y-122190476D02*
X163811428Y-122190476D01*
X164078095Y-122190476D02*
X164040000Y-122152380D01*
X164001904Y-122190476D01*
X164040000Y-122228571D01*
X164078095Y-122190476D01*
X164001904Y-122190476D01*
X163811428Y-122914285D02*
X163163809Y-122914285D01*
X163087619Y-122876190D01*
X163049523Y-122838095D01*
X163011428Y-122761904D01*
X163011428Y-122647619D01*
X163049523Y-122571428D01*
X163316190Y-122914285D02*
X163278095Y-122838095D01*
X163278095Y-122685714D01*
X163316190Y-122609523D01*
X163354285Y-122571428D01*
X163430476Y-122533333D01*
X163659047Y-122533333D01*
X163735238Y-122571428D01*
X163773333Y-122609523D01*
X163811428Y-122685714D01*
X163811428Y-122838095D01*
X163773333Y-122914285D01*
X161958095Y-119295238D02*
X162758095Y-119295238D01*
X162758095Y-119485714D01*
X162720000Y-119600000D01*
X162643809Y-119676190D01*
X162567619Y-119714285D01*
X162415238Y-119752380D01*
X162300952Y-119752380D01*
X162148571Y-119714285D01*
X162072380Y-119676190D01*
X161996190Y-119600000D01*
X161958095Y-119485714D01*
X161958095Y-119295238D01*
X162262857Y-120095238D02*
X162262857Y-120704761D01*
X160638095Y-117447619D02*
X161438095Y-117447619D01*
X161438095Y-117638095D01*
X161400000Y-117752380D01*
X161323809Y-117828571D01*
X161247619Y-117866666D01*
X161095238Y-117904761D01*
X160980952Y-117904761D01*
X160828571Y-117866666D01*
X160752380Y-117828571D01*
X160676190Y-117752380D01*
X160638095Y-117638095D01*
X160638095Y-117447619D01*
X160942857Y-118247619D02*
X160942857Y-118857142D01*
X160638095Y-118552380D02*
X161247619Y-118552380D01*
X160333333Y-119466666D02*
X160371428Y-119428571D01*
X160485714Y-119352380D01*
X160561904Y-119314285D01*
X160676190Y-119276190D01*
X160866666Y-119238095D01*
X161019047Y-119238095D01*
X161209523Y-119276190D01*
X161323809Y-119314285D01*
X161400000Y-119352380D01*
X161514285Y-119428571D01*
X161552380Y-119466666D01*
X160638095Y-119771428D02*
X161438095Y-119771428D01*
X161438095Y-120076190D01*
X161400000Y-120152380D01*
X161361904Y-120190476D01*
X161285714Y-120228571D01*
X161171428Y-120228571D01*
X161095238Y-120190476D01*
X161057142Y-120152380D01*
X161019047Y-120076190D01*
X161019047Y-119771428D01*
X161438095Y-120495238D02*
X160638095Y-120685714D01*
X161209523Y-120838095D01*
X160638095Y-120990476D01*
X161438095Y-121180952D01*
X160638095Y-121485714D02*
X161438095Y-121485714D01*
X160866666Y-121752380D01*
X161438095Y-122019047D01*
X160638095Y-122019047D01*
X160333333Y-122323809D02*
X160371428Y-122361904D01*
X160485714Y-122438095D01*
X160561904Y-122476190D01*
X160676190Y-122514285D01*
X160866666Y-122552380D01*
X161019047Y-122552380D01*
X161209523Y-122514285D01*
X161323809Y-122476190D01*
X161400000Y-122438095D01*
X161514285Y-122361904D01*
X161552380Y-122323809D01*
X160118095Y-118933333D02*
X159318095Y-119200000D01*
X160118095Y-119466666D01*
X159394285Y-120190476D02*
X159356190Y-120152380D01*
X159318095Y-120038095D01*
X159318095Y-119961904D01*
X159356190Y-119847619D01*
X159432380Y-119771428D01*
X159508571Y-119733333D01*
X159660952Y-119695238D01*
X159775238Y-119695238D01*
X159927619Y-119733333D01*
X160003809Y-119771428D01*
X160080000Y-119847619D01*
X160118095Y-119961904D01*
X160118095Y-120038095D01*
X160080000Y-120152380D01*
X160041904Y-120190476D01*
X159394285Y-120990476D02*
X159356190Y-120952380D01*
X159318095Y-120838095D01*
X159318095Y-120761904D01*
X159356190Y-120647619D01*
X159432380Y-120571428D01*
X159508571Y-120533333D01*
X159660952Y-120495238D01*
X159775238Y-120495238D01*
X159927619Y-120533333D01*
X160003809Y-120571428D01*
X160080000Y-120647619D01*
X160118095Y-120761904D01*
X160118095Y-120838095D01*
X160080000Y-120952380D01*
X160041904Y-120990476D01*
X158760000Y-119390476D02*
X158798095Y-119314285D01*
X158798095Y-119200000D01*
X158760000Y-119085714D01*
X158683809Y-119009523D01*
X158607619Y-118971428D01*
X158455238Y-118933333D01*
X158340952Y-118933333D01*
X158188571Y-118971428D01*
X158112380Y-119009523D01*
X158036190Y-119085714D01*
X157998095Y-119200000D01*
X157998095Y-119276190D01*
X158036190Y-119390476D01*
X158074285Y-119428571D01*
X158340952Y-119428571D01*
X158340952Y-119276190D01*
X157998095Y-119771428D02*
X158798095Y-119771428D01*
X157998095Y-120228571D01*
X158798095Y-120228571D01*
X157998095Y-120609523D02*
X158798095Y-120609523D01*
X158798095Y-120800000D01*
X158760000Y-120914285D01*
X158683809Y-120990476D01*
X158607619Y-121028571D01*
X158455238Y-121066666D01*
X158340952Y-121066666D01*
X158188571Y-121028571D01*
X158112380Y-120990476D01*
X158036190Y-120914285D01*
X157998095Y-120800000D01*
X157998095Y-120609523D01*
X122068476Y-75861904D02*
X122068476Y-75061904D01*
X122373238Y-75061904D01*
X122449428Y-75100000D01*
X122487523Y-75138095D01*
X122525619Y-75214285D01*
X122525619Y-75328571D01*
X122487523Y-75404761D01*
X122449428Y-75442857D01*
X122373238Y-75480952D01*
X122068476Y-75480952D01*
X122868476Y-75861904D02*
X122868476Y-75328571D01*
X122868476Y-75061904D02*
X122830380Y-75100000D01*
X122868476Y-75138095D01*
X122906571Y-75100000D01*
X122868476Y-75061904D01*
X122868476Y-75138095D01*
X123249428Y-75328571D02*
X123249428Y-75861904D01*
X123249428Y-75404761D02*
X123287523Y-75366666D01*
X123363714Y-75328571D01*
X123478000Y-75328571D01*
X123554190Y-75366666D01*
X123592285Y-75442857D01*
X123592285Y-75861904D01*
X124925619Y-75823809D02*
X124849428Y-75861904D01*
X124697047Y-75861904D01*
X124620857Y-75823809D01*
X124582761Y-75785714D01*
X124544666Y-75709523D01*
X124544666Y-75480952D01*
X124582761Y-75404761D01*
X124620857Y-75366666D01*
X124697047Y-75328571D01*
X124849428Y-75328571D01*
X124925619Y-75366666D01*
X125382761Y-75861904D02*
X125306571Y-75823809D01*
X125268476Y-75785714D01*
X125230380Y-75709523D01*
X125230380Y-75480952D01*
X125268476Y-75404761D01*
X125306571Y-75366666D01*
X125382761Y-75328571D01*
X125497047Y-75328571D01*
X125573238Y-75366666D01*
X125611333Y-75404761D01*
X125649428Y-75480952D01*
X125649428Y-75709523D01*
X125611333Y-75785714D01*
X125573238Y-75823809D01*
X125497047Y-75861904D01*
X125382761Y-75861904D01*
X125992285Y-75328571D02*
X125992285Y-75861904D01*
X125992285Y-75404761D02*
X126030380Y-75366666D01*
X126106571Y-75328571D01*
X126220857Y-75328571D01*
X126297047Y-75366666D01*
X126335142Y-75442857D01*
X126335142Y-75861904D01*
X126601809Y-75328571D02*
X126906571Y-75328571D01*
X126716095Y-75861904D02*
X126716095Y-75176190D01*
X126754190Y-75100000D01*
X126830380Y-75061904D01*
X126906571Y-75061904D01*
X127173238Y-75861904D02*
X127173238Y-75328571D01*
X127173238Y-75061904D02*
X127135142Y-75100000D01*
X127173238Y-75138095D01*
X127211333Y-75100000D01*
X127173238Y-75061904D01*
X127173238Y-75138095D01*
X127897047Y-75328571D02*
X127897047Y-75976190D01*
X127858952Y-76052380D01*
X127820857Y-76090476D01*
X127744666Y-76128571D01*
X127630380Y-76128571D01*
X127554190Y-76090476D01*
X127897047Y-75823809D02*
X127820857Y-75861904D01*
X127668476Y-75861904D01*
X127592285Y-75823809D01*
X127554190Y-75785714D01*
X127516095Y-75709523D01*
X127516095Y-75480952D01*
X127554190Y-75404761D01*
X127592285Y-75366666D01*
X127668476Y-75328571D01*
X127820857Y-75328571D01*
X127897047Y-75366666D01*
X122068476Y-76877142D02*
X122678000Y-76877142D01*
X122373238Y-77181904D02*
X122373238Y-76572380D01*
X122982761Y-76381904D02*
X123478000Y-76381904D01*
X123211333Y-76686666D01*
X123325619Y-76686666D01*
X123401809Y-76724761D01*
X123439904Y-76762857D01*
X123478000Y-76839047D01*
X123478000Y-77029523D01*
X123439904Y-77105714D01*
X123401809Y-77143809D01*
X123325619Y-77181904D01*
X123097047Y-77181904D01*
X123020857Y-77143809D01*
X122982761Y-77105714D01*
X123706571Y-76381904D02*
X123973238Y-77181904D01*
X124239904Y-76381904D01*
X124430380Y-76381904D02*
X124925619Y-76381904D01*
X124658952Y-76686666D01*
X124773238Y-76686666D01*
X124849428Y-76724761D01*
X124887523Y-76762857D01*
X124925619Y-76839047D01*
X124925619Y-77029523D01*
X124887523Y-77105714D01*
X124849428Y-77143809D01*
X124773238Y-77181904D01*
X124544666Y-77181904D01*
X124468476Y-77143809D01*
X124430380Y-77105714D01*
X122487523Y-77740000D02*
X122411333Y-77701904D01*
X122297047Y-77701904D01*
X122182761Y-77740000D01*
X122106571Y-77816190D01*
X122068476Y-77892380D01*
X122030380Y-78044761D01*
X122030380Y-78159047D01*
X122068476Y-78311428D01*
X122106571Y-78387619D01*
X122182761Y-78463809D01*
X122297047Y-78501904D01*
X122373238Y-78501904D01*
X122487523Y-78463809D01*
X122525619Y-78425714D01*
X122525619Y-78159047D01*
X122373238Y-78159047D01*
X122868476Y-78501904D02*
X122868476Y-77701904D01*
X123325619Y-78501904D01*
X123325619Y-77701904D01*
X123706571Y-78501904D02*
X123706571Y-77701904D01*
X123897047Y-77701904D01*
X124011333Y-77740000D01*
X124087523Y-77816190D01*
X124125619Y-77892380D01*
X124163714Y-78044761D01*
X124163714Y-78159047D01*
X124125619Y-78311428D01*
X124087523Y-78387619D01*
X124011333Y-78463809D01*
X123897047Y-78501904D01*
X123706571Y-78501904D01*
X122068476Y-79821904D02*
X122068476Y-79021904D01*
X122258952Y-79021904D01*
X122373238Y-79060000D01*
X122449428Y-79136190D01*
X122487523Y-79212380D01*
X122525619Y-79364761D01*
X122525619Y-79479047D01*
X122487523Y-79631428D01*
X122449428Y-79707619D01*
X122373238Y-79783809D01*
X122258952Y-79821904D01*
X122068476Y-79821904D01*
X122868476Y-79821904D02*
X122868476Y-79021904D01*
X123478000Y-80126666D02*
X123439904Y-80088571D01*
X123363714Y-79974285D01*
X123325619Y-79898095D01*
X123287523Y-79783809D01*
X123249428Y-79593333D01*
X123249428Y-79440952D01*
X123287523Y-79250476D01*
X123325619Y-79136190D01*
X123363714Y-79060000D01*
X123439904Y-78945714D01*
X123478000Y-78907619D01*
X123782761Y-79821904D02*
X123782761Y-79021904D01*
X124087523Y-79021904D01*
X124163714Y-79060000D01*
X124201809Y-79098095D01*
X124239904Y-79174285D01*
X124239904Y-79288571D01*
X124201809Y-79364761D01*
X124163714Y-79402857D01*
X124087523Y-79440952D01*
X123782761Y-79440952D01*
X124506571Y-79021904D02*
X124697047Y-79821904D01*
X124849428Y-79250476D01*
X125001809Y-79821904D01*
X125192285Y-79021904D01*
X125497047Y-79821904D02*
X125497047Y-79021904D01*
X125763714Y-79593333D01*
X126030380Y-79021904D01*
X126030380Y-79821904D01*
X126335142Y-80126666D02*
X126373238Y-80088571D01*
X126449428Y-79974285D01*
X126487523Y-79898095D01*
X126525619Y-79783809D01*
X126563714Y-79593333D01*
X126563714Y-79440952D01*
X126525619Y-79250476D01*
X126487523Y-79136190D01*
X126449428Y-79060000D01*
X126373238Y-78945714D01*
X126335142Y-78907619D01*
X122068476Y-80722857D02*
X122335142Y-80722857D01*
X122449428Y-81141904D02*
X122068476Y-81141904D01*
X122068476Y-80341904D01*
X122449428Y-80341904D01*
X122792285Y-80608571D02*
X122792285Y-81141904D01*
X122792285Y-80684761D02*
X122830380Y-80646666D01*
X122906571Y-80608571D01*
X123020857Y-80608571D01*
X123097047Y-80646666D01*
X123135142Y-80722857D01*
X123135142Y-81141904D01*
X123858952Y-81141904D02*
X123858952Y-80722857D01*
X123820857Y-80646666D01*
X123744666Y-80608571D01*
X123592285Y-80608571D01*
X123516095Y-80646666D01*
X123858952Y-81103809D02*
X123782761Y-81141904D01*
X123592285Y-81141904D01*
X123516095Y-81103809D01*
X123478000Y-81027619D01*
X123478000Y-80951428D01*
X123516095Y-80875238D01*
X123592285Y-80837142D01*
X123782761Y-80837142D01*
X123858952Y-80799047D01*
X124239904Y-81141904D02*
X124239904Y-80341904D01*
X124239904Y-80646666D02*
X124316095Y-80608571D01*
X124468476Y-80608571D01*
X124544666Y-80646666D01*
X124582761Y-80684761D01*
X124620857Y-80760952D01*
X124620857Y-80989523D01*
X124582761Y-81065714D01*
X124544666Y-81103809D01*
X124468476Y-81141904D01*
X124316095Y-81141904D01*
X124239904Y-81103809D01*
X125078000Y-81141904D02*
X125001809Y-81103809D01*
X124963714Y-81027619D01*
X124963714Y-80341904D01*
X125687523Y-81103809D02*
X125611333Y-81141904D01*
X125458952Y-81141904D01*
X125382761Y-81103809D01*
X125344666Y-81027619D01*
X125344666Y-80722857D01*
X125382761Y-80646666D01*
X125458952Y-80608571D01*
X125611333Y-80608571D01*
X125687523Y-80646666D01*
X125725619Y-80722857D01*
X125725619Y-80799047D01*
X125344666Y-80875238D01*
X122525619Y-82461904D02*
X122258952Y-82080952D01*
X122068476Y-82461904D02*
X122068476Y-81661904D01*
X122373238Y-81661904D01*
X122449428Y-81700000D01*
X122487523Y-81738095D01*
X122525619Y-81814285D01*
X122525619Y-81928571D01*
X122487523Y-82004761D01*
X122449428Y-82042857D01*
X122373238Y-82080952D01*
X122068476Y-82080952D01*
X123020857Y-81661904D02*
X123173238Y-81661904D01*
X123249428Y-81700000D01*
X123325619Y-81776190D01*
X123363714Y-81928571D01*
X123363714Y-82195238D01*
X123325619Y-82347619D01*
X123249428Y-82423809D01*
X123173238Y-82461904D01*
X123020857Y-82461904D01*
X122944666Y-82423809D01*
X122868476Y-82347619D01*
X122830380Y-82195238D01*
X122830380Y-81928571D01*
X122868476Y-81776190D01*
X122944666Y-81700000D01*
X123020857Y-81661904D01*
X122068476Y-108861904D02*
X122068476Y-108061904D01*
X122373238Y-108061904D01*
X122449428Y-108100000D01*
X122487523Y-108138095D01*
X122525619Y-108214285D01*
X122525619Y-108328571D01*
X122487523Y-108404761D01*
X122449428Y-108442857D01*
X122373238Y-108480952D01*
X122068476Y-108480952D01*
X122868476Y-108861904D02*
X122868476Y-108328571D01*
X122868476Y-108061904D02*
X122830380Y-108100000D01*
X122868476Y-108138095D01*
X122906571Y-108100000D01*
X122868476Y-108061904D01*
X122868476Y-108138095D01*
X123249428Y-108328571D02*
X123249428Y-108861904D01*
X123249428Y-108404761D02*
X123287523Y-108366666D01*
X123363714Y-108328571D01*
X123478000Y-108328571D01*
X123554190Y-108366666D01*
X123592285Y-108442857D01*
X123592285Y-108861904D01*
X124925619Y-108823809D02*
X124849428Y-108861904D01*
X124697047Y-108861904D01*
X124620857Y-108823809D01*
X124582761Y-108785714D01*
X124544666Y-108709523D01*
X124544666Y-108480952D01*
X124582761Y-108404761D01*
X124620857Y-108366666D01*
X124697047Y-108328571D01*
X124849428Y-108328571D01*
X124925619Y-108366666D01*
X125382761Y-108861904D02*
X125306571Y-108823809D01*
X125268476Y-108785714D01*
X125230380Y-108709523D01*
X125230380Y-108480952D01*
X125268476Y-108404761D01*
X125306571Y-108366666D01*
X125382761Y-108328571D01*
X125497047Y-108328571D01*
X125573238Y-108366666D01*
X125611333Y-108404761D01*
X125649428Y-108480952D01*
X125649428Y-108709523D01*
X125611333Y-108785714D01*
X125573238Y-108823809D01*
X125497047Y-108861904D01*
X125382761Y-108861904D01*
X125992285Y-108328571D02*
X125992285Y-108861904D01*
X125992285Y-108404761D02*
X126030380Y-108366666D01*
X126106571Y-108328571D01*
X126220857Y-108328571D01*
X126297047Y-108366666D01*
X126335142Y-108442857D01*
X126335142Y-108861904D01*
X126601809Y-108328571D02*
X126906571Y-108328571D01*
X126716095Y-108861904D02*
X126716095Y-108176190D01*
X126754190Y-108100000D01*
X126830380Y-108061904D01*
X126906571Y-108061904D01*
X127173238Y-108861904D02*
X127173238Y-108328571D01*
X127173238Y-108061904D02*
X127135142Y-108100000D01*
X127173238Y-108138095D01*
X127211333Y-108100000D01*
X127173238Y-108061904D01*
X127173238Y-108138095D01*
X127897047Y-108328571D02*
X127897047Y-108976190D01*
X127858952Y-109052380D01*
X127820857Y-109090476D01*
X127744666Y-109128571D01*
X127630380Y-109128571D01*
X127554190Y-109090476D01*
X127897047Y-108823809D02*
X127820857Y-108861904D01*
X127668476Y-108861904D01*
X127592285Y-108823809D01*
X127554190Y-108785714D01*
X127516095Y-108709523D01*
X127516095Y-108480952D01*
X127554190Y-108404761D01*
X127592285Y-108366666D01*
X127668476Y-108328571D01*
X127820857Y-108328571D01*
X127897047Y-108366666D01*
X122068476Y-109877142D02*
X122678000Y-109877142D01*
X122373238Y-110181904D02*
X122373238Y-109572380D01*
X122982761Y-109381904D02*
X123478000Y-109381904D01*
X123211333Y-109686666D01*
X123325619Y-109686666D01*
X123401809Y-109724761D01*
X123439904Y-109762857D01*
X123478000Y-109839047D01*
X123478000Y-110029523D01*
X123439904Y-110105714D01*
X123401809Y-110143809D01*
X123325619Y-110181904D01*
X123097047Y-110181904D01*
X123020857Y-110143809D01*
X122982761Y-110105714D01*
X123706571Y-109381904D02*
X123973238Y-110181904D01*
X124239904Y-109381904D01*
X124430380Y-109381904D02*
X124925619Y-109381904D01*
X124658952Y-109686666D01*
X124773238Y-109686666D01*
X124849428Y-109724761D01*
X124887523Y-109762857D01*
X124925619Y-109839047D01*
X124925619Y-110029523D01*
X124887523Y-110105714D01*
X124849428Y-110143809D01*
X124773238Y-110181904D01*
X124544666Y-110181904D01*
X124468476Y-110143809D01*
X124430380Y-110105714D01*
X122487523Y-110740000D02*
X122411333Y-110701904D01*
X122297047Y-110701904D01*
X122182761Y-110740000D01*
X122106571Y-110816190D01*
X122068476Y-110892380D01*
X122030380Y-111044761D01*
X122030380Y-111159047D01*
X122068476Y-111311428D01*
X122106571Y-111387619D01*
X122182761Y-111463809D01*
X122297047Y-111501904D01*
X122373238Y-111501904D01*
X122487523Y-111463809D01*
X122525619Y-111425714D01*
X122525619Y-111159047D01*
X122373238Y-111159047D01*
X122868476Y-111501904D02*
X122868476Y-110701904D01*
X123325619Y-111501904D01*
X123325619Y-110701904D01*
X123706571Y-111501904D02*
X123706571Y-110701904D01*
X123897047Y-110701904D01*
X124011333Y-110740000D01*
X124087523Y-110816190D01*
X124125619Y-110892380D01*
X124163714Y-111044761D01*
X124163714Y-111159047D01*
X124125619Y-111311428D01*
X124087523Y-111387619D01*
X124011333Y-111463809D01*
X123897047Y-111501904D01*
X123706571Y-111501904D01*
X122068476Y-112821904D02*
X122068476Y-112021904D01*
X122258952Y-112021904D01*
X122373238Y-112060000D01*
X122449428Y-112136190D01*
X122487523Y-112212380D01*
X122525619Y-112364761D01*
X122525619Y-112479047D01*
X122487523Y-112631428D01*
X122449428Y-112707619D01*
X122373238Y-112783809D01*
X122258952Y-112821904D01*
X122068476Y-112821904D01*
X122868476Y-112821904D02*
X122868476Y-112021904D01*
X123478000Y-113126666D02*
X123439904Y-113088571D01*
X123363714Y-112974285D01*
X123325619Y-112898095D01*
X123287523Y-112783809D01*
X123249428Y-112593333D01*
X123249428Y-112440952D01*
X123287523Y-112250476D01*
X123325619Y-112136190D01*
X123363714Y-112060000D01*
X123439904Y-111945714D01*
X123478000Y-111907619D01*
X123782761Y-112821904D02*
X123782761Y-112021904D01*
X124087523Y-112021904D01*
X124163714Y-112060000D01*
X124201809Y-112098095D01*
X124239904Y-112174285D01*
X124239904Y-112288571D01*
X124201809Y-112364761D01*
X124163714Y-112402857D01*
X124087523Y-112440952D01*
X123782761Y-112440952D01*
X124506571Y-112021904D02*
X124697047Y-112821904D01*
X124849428Y-112250476D01*
X125001809Y-112821904D01*
X125192285Y-112021904D01*
X125497047Y-112821904D02*
X125497047Y-112021904D01*
X125763714Y-112593333D01*
X126030380Y-112021904D01*
X126030380Y-112821904D01*
X126335142Y-113126666D02*
X126373238Y-113088571D01*
X126449428Y-112974285D01*
X126487523Y-112898095D01*
X126525619Y-112783809D01*
X126563714Y-112593333D01*
X126563714Y-112440952D01*
X126525619Y-112250476D01*
X126487523Y-112136190D01*
X126449428Y-112060000D01*
X126373238Y-111945714D01*
X126335142Y-111907619D01*
X122068476Y-113722857D02*
X122335142Y-113722857D01*
X122449428Y-114141904D02*
X122068476Y-114141904D01*
X122068476Y-113341904D01*
X122449428Y-113341904D01*
X122792285Y-113608571D02*
X122792285Y-114141904D01*
X122792285Y-113684761D02*
X122830380Y-113646666D01*
X122906571Y-113608571D01*
X123020857Y-113608571D01*
X123097047Y-113646666D01*
X123135142Y-113722857D01*
X123135142Y-114141904D01*
X123858952Y-114141904D02*
X123858952Y-113722857D01*
X123820857Y-113646666D01*
X123744666Y-113608571D01*
X123592285Y-113608571D01*
X123516095Y-113646666D01*
X123858952Y-114103809D02*
X123782761Y-114141904D01*
X123592285Y-114141904D01*
X123516095Y-114103809D01*
X123478000Y-114027619D01*
X123478000Y-113951428D01*
X123516095Y-113875238D01*
X123592285Y-113837142D01*
X123782761Y-113837142D01*
X123858952Y-113799047D01*
X124239904Y-114141904D02*
X124239904Y-113341904D01*
X124239904Y-113646666D02*
X124316095Y-113608571D01*
X124468476Y-113608571D01*
X124544666Y-113646666D01*
X124582761Y-113684761D01*
X124620857Y-113760952D01*
X124620857Y-113989523D01*
X124582761Y-114065714D01*
X124544666Y-114103809D01*
X124468476Y-114141904D01*
X124316095Y-114141904D01*
X124239904Y-114103809D01*
X125078000Y-114141904D02*
X125001809Y-114103809D01*
X124963714Y-114027619D01*
X124963714Y-113341904D01*
X125687523Y-114103809D02*
X125611333Y-114141904D01*
X125458952Y-114141904D01*
X125382761Y-114103809D01*
X125344666Y-114027619D01*
X125344666Y-113722857D01*
X125382761Y-113646666D01*
X125458952Y-113608571D01*
X125611333Y-113608571D01*
X125687523Y-113646666D01*
X125725619Y-113722857D01*
X125725619Y-113799047D01*
X125344666Y-113875238D01*
X122525619Y-115461904D02*
X122258952Y-115080952D01*
X122068476Y-115461904D02*
X122068476Y-114661904D01*
X122373238Y-114661904D01*
X122449428Y-114700000D01*
X122487523Y-114738095D01*
X122525619Y-114814285D01*
X122525619Y-114928571D01*
X122487523Y-115004761D01*
X122449428Y-115042857D01*
X122373238Y-115080952D01*
X122068476Y-115080952D01*
X123020857Y-114661904D02*
X123173238Y-114661904D01*
X123249428Y-114700000D01*
X123325619Y-114776190D01*
X123363714Y-114928571D01*
X123363714Y-115195238D01*
X123325619Y-115347619D01*
X123249428Y-115423809D01*
X123173238Y-115461904D01*
X123020857Y-115461904D01*
X122944666Y-115423809D01*
X122868476Y-115347619D01*
X122830380Y-115195238D01*
X122830380Y-114928571D01*
X122868476Y-114776190D01*
X122944666Y-114700000D01*
X123020857Y-114661904D01*
X163278095Y-150085714D02*
X164078095Y-150085714D01*
X164078095Y-150390476D01*
X164040000Y-150466666D01*
X164001904Y-150504761D01*
X163925714Y-150542857D01*
X163811428Y-150542857D01*
X163735238Y-150504761D01*
X163697142Y-150466666D01*
X163659047Y-150390476D01*
X163659047Y-150085714D01*
X163278095Y-150885714D02*
X163811428Y-150885714D01*
X164078095Y-150885714D02*
X164040000Y-150847619D01*
X164001904Y-150885714D01*
X164040000Y-150923809D01*
X164078095Y-150885714D01*
X164001904Y-150885714D01*
X163811428Y-151266666D02*
X163278095Y-151266666D01*
X163735238Y-151266666D02*
X163773333Y-151304761D01*
X163811428Y-151380952D01*
X163811428Y-151495238D01*
X163773333Y-151571428D01*
X163697142Y-151609523D01*
X163278095Y-151609523D01*
X163316190Y-152942857D02*
X163278095Y-152866666D01*
X163278095Y-152714285D01*
X163316190Y-152638095D01*
X163354285Y-152600000D01*
X163430476Y-152561904D01*
X163659047Y-152561904D01*
X163735238Y-152600000D01*
X163773333Y-152638095D01*
X163811428Y-152714285D01*
X163811428Y-152866666D01*
X163773333Y-152942857D01*
X163278095Y-153400000D02*
X163316190Y-153323809D01*
X163354285Y-153285714D01*
X163430476Y-153247619D01*
X163659047Y-153247619D01*
X163735238Y-153285714D01*
X163773333Y-153323809D01*
X163811428Y-153400000D01*
X163811428Y-153514285D01*
X163773333Y-153590476D01*
X163735238Y-153628571D01*
X163659047Y-153666666D01*
X163430476Y-153666666D01*
X163354285Y-153628571D01*
X163316190Y-153590476D01*
X163278095Y-153514285D01*
X163278095Y-153400000D01*
X163811428Y-154009523D02*
X163278095Y-154009523D01*
X163735238Y-154009523D02*
X163773333Y-154047619D01*
X163811428Y-154123809D01*
X163811428Y-154238095D01*
X163773333Y-154314285D01*
X163697142Y-154352380D01*
X163278095Y-154352380D01*
X163811428Y-154619047D02*
X163811428Y-154923809D01*
X163278095Y-154733333D02*
X163963809Y-154733333D01*
X164040000Y-154771428D01*
X164078095Y-154847619D01*
X164078095Y-154923809D01*
X163278095Y-155190476D02*
X163811428Y-155190476D01*
X164078095Y-155190476D02*
X164040000Y-155152380D01*
X164001904Y-155190476D01*
X164040000Y-155228571D01*
X164078095Y-155190476D01*
X164001904Y-155190476D01*
X163811428Y-155914285D02*
X163163809Y-155914285D01*
X163087619Y-155876190D01*
X163049523Y-155838095D01*
X163011428Y-155761904D01*
X163011428Y-155647619D01*
X163049523Y-155571428D01*
X163316190Y-155914285D02*
X163278095Y-155838095D01*
X163278095Y-155685714D01*
X163316190Y-155609523D01*
X163354285Y-155571428D01*
X163430476Y-155533333D01*
X163659047Y-155533333D01*
X163735238Y-155571428D01*
X163773333Y-155609523D01*
X163811428Y-155685714D01*
X163811428Y-155838095D01*
X163773333Y-155914285D01*
X161958095Y-152295238D02*
X162758095Y-152295238D01*
X162758095Y-152485714D01*
X162720000Y-152600000D01*
X162643809Y-152676190D01*
X162567619Y-152714285D01*
X162415238Y-152752380D01*
X162300952Y-152752380D01*
X162148571Y-152714285D01*
X162072380Y-152676190D01*
X161996190Y-152600000D01*
X161958095Y-152485714D01*
X161958095Y-152295238D01*
X162262857Y-153095238D02*
X162262857Y-153704761D01*
X160638095Y-150447619D02*
X161438095Y-150447619D01*
X161438095Y-150638095D01*
X161400000Y-150752380D01*
X161323809Y-150828571D01*
X161247619Y-150866666D01*
X161095238Y-150904761D01*
X160980952Y-150904761D01*
X160828571Y-150866666D01*
X160752380Y-150828571D01*
X160676190Y-150752380D01*
X160638095Y-150638095D01*
X160638095Y-150447619D01*
X160942857Y-151247619D02*
X160942857Y-151857142D01*
X160638095Y-151552380D02*
X161247619Y-151552380D01*
X160333333Y-152466666D02*
X160371428Y-152428571D01*
X160485714Y-152352380D01*
X160561904Y-152314285D01*
X160676190Y-152276190D01*
X160866666Y-152238095D01*
X161019047Y-152238095D01*
X161209523Y-152276190D01*
X161323809Y-152314285D01*
X161400000Y-152352380D01*
X161514285Y-152428571D01*
X161552380Y-152466666D01*
X160638095Y-152771428D02*
X161438095Y-152771428D01*
X161438095Y-153076190D01*
X161400000Y-153152380D01*
X161361904Y-153190476D01*
X161285714Y-153228571D01*
X161171428Y-153228571D01*
X161095238Y-153190476D01*
X161057142Y-153152380D01*
X161019047Y-153076190D01*
X161019047Y-152771428D01*
X161438095Y-153495238D02*
X160638095Y-153685714D01*
X161209523Y-153838095D01*
X160638095Y-153990476D01*
X161438095Y-154180952D01*
X160638095Y-154485714D02*
X161438095Y-154485714D01*
X160866666Y-154752380D01*
X161438095Y-155019047D01*
X160638095Y-155019047D01*
X160333333Y-155323809D02*
X160371428Y-155361904D01*
X160485714Y-155438095D01*
X160561904Y-155476190D01*
X160676190Y-155514285D01*
X160866666Y-155552380D01*
X161019047Y-155552380D01*
X161209523Y-155514285D01*
X161323809Y-155476190D01*
X161400000Y-155438095D01*
X161514285Y-155361904D01*
X161552380Y-155323809D01*
X160118095Y-151933333D02*
X159318095Y-152200000D01*
X160118095Y-152466666D01*
X159394285Y-153190476D02*
X159356190Y-153152380D01*
X159318095Y-153038095D01*
X159318095Y-152961904D01*
X159356190Y-152847619D01*
X159432380Y-152771428D01*
X159508571Y-152733333D01*
X159660952Y-152695238D01*
X159775238Y-152695238D01*
X159927619Y-152733333D01*
X160003809Y-152771428D01*
X160080000Y-152847619D01*
X160118095Y-152961904D01*
X160118095Y-153038095D01*
X160080000Y-153152380D01*
X160041904Y-153190476D01*
X159394285Y-153990476D02*
X159356190Y-153952380D01*
X159318095Y-153838095D01*
X159318095Y-153761904D01*
X159356190Y-153647619D01*
X159432380Y-153571428D01*
X159508571Y-153533333D01*
X159660952Y-153495238D01*
X159775238Y-153495238D01*
X159927619Y-153533333D01*
X160003809Y-153571428D01*
X160080000Y-153647619D01*
X160118095Y-153761904D01*
X160118095Y-153838095D01*
X160080000Y-153952380D01*
X160041904Y-153990476D01*
X158760000Y-152390476D02*
X158798095Y-152314285D01*
X158798095Y-152200000D01*
X158760000Y-152085714D01*
X158683809Y-152009523D01*
X158607619Y-151971428D01*
X158455238Y-151933333D01*
X158340952Y-151933333D01*
X158188571Y-151971428D01*
X158112380Y-152009523D01*
X158036190Y-152085714D01*
X157998095Y-152200000D01*
X157998095Y-152276190D01*
X158036190Y-152390476D01*
X158074285Y-152428571D01*
X158340952Y-152428571D01*
X158340952Y-152276190D01*
X157998095Y-152771428D02*
X158798095Y-152771428D01*
X157998095Y-153228571D01*
X158798095Y-153228571D01*
X157998095Y-153609523D02*
X158798095Y-153609523D01*
X158798095Y-153800000D01*
X158760000Y-153914285D01*
X158683809Y-153990476D01*
X158607619Y-154028571D01*
X158455238Y-154066666D01*
X158340952Y-154066666D01*
X158188571Y-154028571D01*
X158112380Y-153990476D01*
X158036190Y-153914285D01*
X157998095Y-153800000D01*
X157998095Y-153609523D01*
X122068476Y-141861904D02*
X122068476Y-141061904D01*
X122373238Y-141061904D01*
X122449428Y-141100000D01*
X122487523Y-141138095D01*
X122525619Y-141214285D01*
X122525619Y-141328571D01*
X122487523Y-141404761D01*
X122449428Y-141442857D01*
X122373238Y-141480952D01*
X122068476Y-141480952D01*
X122868476Y-141861904D02*
X122868476Y-141328571D01*
X122868476Y-141061904D02*
X122830380Y-141100000D01*
X122868476Y-141138095D01*
X122906571Y-141100000D01*
X122868476Y-141061904D01*
X122868476Y-141138095D01*
X123249428Y-141328571D02*
X123249428Y-141861904D01*
X123249428Y-141404761D02*
X123287523Y-141366666D01*
X123363714Y-141328571D01*
X123478000Y-141328571D01*
X123554190Y-141366666D01*
X123592285Y-141442857D01*
X123592285Y-141861904D01*
X124925619Y-141823809D02*
X124849428Y-141861904D01*
X124697047Y-141861904D01*
X124620857Y-141823809D01*
X124582761Y-141785714D01*
X124544666Y-141709523D01*
X124544666Y-141480952D01*
X124582761Y-141404761D01*
X124620857Y-141366666D01*
X124697047Y-141328571D01*
X124849428Y-141328571D01*
X124925619Y-141366666D01*
X125382761Y-141861904D02*
X125306571Y-141823809D01*
X125268476Y-141785714D01*
X125230380Y-141709523D01*
X125230380Y-141480952D01*
X125268476Y-141404761D01*
X125306571Y-141366666D01*
X125382761Y-141328571D01*
X125497047Y-141328571D01*
X125573238Y-141366666D01*
X125611333Y-141404761D01*
X125649428Y-141480952D01*
X125649428Y-141709523D01*
X125611333Y-141785714D01*
X125573238Y-141823809D01*
X125497047Y-141861904D01*
X125382761Y-141861904D01*
X125992285Y-141328571D02*
X125992285Y-141861904D01*
X125992285Y-141404761D02*
X126030380Y-141366666D01*
X126106571Y-141328571D01*
X126220857Y-141328571D01*
X126297047Y-141366666D01*
X126335142Y-141442857D01*
X126335142Y-141861904D01*
X126601809Y-141328571D02*
X126906571Y-141328571D01*
X126716095Y-141861904D02*
X126716095Y-141176190D01*
X126754190Y-141100000D01*
X126830380Y-141061904D01*
X126906571Y-141061904D01*
X127173238Y-141861904D02*
X127173238Y-141328571D01*
X127173238Y-141061904D02*
X127135142Y-141100000D01*
X127173238Y-141138095D01*
X127211333Y-141100000D01*
X127173238Y-141061904D01*
X127173238Y-141138095D01*
X127897047Y-141328571D02*
X127897047Y-141976190D01*
X127858952Y-142052380D01*
X127820857Y-142090476D01*
X127744666Y-142128571D01*
X127630380Y-142128571D01*
X127554190Y-142090476D01*
X127897047Y-141823809D02*
X127820857Y-141861904D01*
X127668476Y-141861904D01*
X127592285Y-141823809D01*
X127554190Y-141785714D01*
X127516095Y-141709523D01*
X127516095Y-141480952D01*
X127554190Y-141404761D01*
X127592285Y-141366666D01*
X127668476Y-141328571D01*
X127820857Y-141328571D01*
X127897047Y-141366666D01*
X122068476Y-142877142D02*
X122678000Y-142877142D01*
X122373238Y-143181904D02*
X122373238Y-142572380D01*
X122982761Y-142381904D02*
X123478000Y-142381904D01*
X123211333Y-142686666D01*
X123325619Y-142686666D01*
X123401809Y-142724761D01*
X123439904Y-142762857D01*
X123478000Y-142839047D01*
X123478000Y-143029523D01*
X123439904Y-143105714D01*
X123401809Y-143143809D01*
X123325619Y-143181904D01*
X123097047Y-143181904D01*
X123020857Y-143143809D01*
X122982761Y-143105714D01*
X123706571Y-142381904D02*
X123973238Y-143181904D01*
X124239904Y-142381904D01*
X124430380Y-142381904D02*
X124925619Y-142381904D01*
X124658952Y-142686666D01*
X124773238Y-142686666D01*
X124849428Y-142724761D01*
X124887523Y-142762857D01*
X124925619Y-142839047D01*
X124925619Y-143029523D01*
X124887523Y-143105714D01*
X124849428Y-143143809D01*
X124773238Y-143181904D01*
X124544666Y-143181904D01*
X124468476Y-143143809D01*
X124430380Y-143105714D01*
X122487523Y-143740000D02*
X122411333Y-143701904D01*
X122297047Y-143701904D01*
X122182761Y-143740000D01*
X122106571Y-143816190D01*
X122068476Y-143892380D01*
X122030380Y-144044761D01*
X122030380Y-144159047D01*
X122068476Y-144311428D01*
X122106571Y-144387619D01*
X122182761Y-144463809D01*
X122297047Y-144501904D01*
X122373238Y-144501904D01*
X122487523Y-144463809D01*
X122525619Y-144425714D01*
X122525619Y-144159047D01*
X122373238Y-144159047D01*
X122868476Y-144501904D02*
X122868476Y-143701904D01*
X123325619Y-144501904D01*
X123325619Y-143701904D01*
X123706571Y-144501904D02*
X123706571Y-143701904D01*
X123897047Y-143701904D01*
X124011333Y-143740000D01*
X124087523Y-143816190D01*
X124125619Y-143892380D01*
X124163714Y-144044761D01*
X124163714Y-144159047D01*
X124125619Y-144311428D01*
X124087523Y-144387619D01*
X124011333Y-144463809D01*
X123897047Y-144501904D01*
X123706571Y-144501904D01*
X122068476Y-145821904D02*
X122068476Y-145021904D01*
X122258952Y-145021904D01*
X122373238Y-145060000D01*
X122449428Y-145136190D01*
X122487523Y-145212380D01*
X122525619Y-145364761D01*
X122525619Y-145479047D01*
X122487523Y-145631428D01*
X122449428Y-145707619D01*
X122373238Y-145783809D01*
X122258952Y-145821904D01*
X122068476Y-145821904D01*
X122868476Y-145821904D02*
X122868476Y-145021904D01*
X123478000Y-146126666D02*
X123439904Y-146088571D01*
X123363714Y-145974285D01*
X123325619Y-145898095D01*
X123287523Y-145783809D01*
X123249428Y-145593333D01*
X123249428Y-145440952D01*
X123287523Y-145250476D01*
X123325619Y-145136190D01*
X123363714Y-145060000D01*
X123439904Y-144945714D01*
X123478000Y-144907619D01*
X123782761Y-145821904D02*
X123782761Y-145021904D01*
X124087523Y-145021904D01*
X124163714Y-145060000D01*
X124201809Y-145098095D01*
X124239904Y-145174285D01*
X124239904Y-145288571D01*
X124201809Y-145364761D01*
X124163714Y-145402857D01*
X124087523Y-145440952D01*
X123782761Y-145440952D01*
X124506571Y-145021904D02*
X124697047Y-145821904D01*
X124849428Y-145250476D01*
X125001809Y-145821904D01*
X125192285Y-145021904D01*
X125497047Y-145821904D02*
X125497047Y-145021904D01*
X125763714Y-145593333D01*
X126030380Y-145021904D01*
X126030380Y-145821904D01*
X126335142Y-146126666D02*
X126373238Y-146088571D01*
X126449428Y-145974285D01*
X126487523Y-145898095D01*
X126525619Y-145783809D01*
X126563714Y-145593333D01*
X126563714Y-145440952D01*
X126525619Y-145250476D01*
X126487523Y-145136190D01*
X126449428Y-145060000D01*
X126373238Y-144945714D01*
X126335142Y-144907619D01*
X122068476Y-146722857D02*
X122335142Y-146722857D01*
X122449428Y-147141904D02*
X122068476Y-147141904D01*
X122068476Y-146341904D01*
X122449428Y-146341904D01*
X122792285Y-146608571D02*
X122792285Y-147141904D01*
X122792285Y-146684761D02*
X122830380Y-146646666D01*
X122906571Y-146608571D01*
X123020857Y-146608571D01*
X123097047Y-146646666D01*
X123135142Y-146722857D01*
X123135142Y-147141904D01*
X123858952Y-147141904D02*
X123858952Y-146722857D01*
X123820857Y-146646666D01*
X123744666Y-146608571D01*
X123592285Y-146608571D01*
X123516095Y-146646666D01*
X123858952Y-147103809D02*
X123782761Y-147141904D01*
X123592285Y-147141904D01*
X123516095Y-147103809D01*
X123478000Y-147027619D01*
X123478000Y-146951428D01*
X123516095Y-146875238D01*
X123592285Y-146837142D01*
X123782761Y-146837142D01*
X123858952Y-146799047D01*
X124239904Y-147141904D02*
X124239904Y-146341904D01*
X124239904Y-146646666D02*
X124316095Y-146608571D01*
X124468476Y-146608571D01*
X124544666Y-146646666D01*
X124582761Y-146684761D01*
X124620857Y-146760952D01*
X124620857Y-146989523D01*
X124582761Y-147065714D01*
X124544666Y-147103809D01*
X124468476Y-147141904D01*
X124316095Y-147141904D01*
X124239904Y-147103809D01*
X125078000Y-147141904D02*
X125001809Y-147103809D01*
X124963714Y-147027619D01*
X124963714Y-146341904D01*
X125687523Y-147103809D02*
X125611333Y-147141904D01*
X125458952Y-147141904D01*
X125382761Y-147103809D01*
X125344666Y-147027619D01*
X125344666Y-146722857D01*
X125382761Y-146646666D01*
X125458952Y-146608571D01*
X125611333Y-146608571D01*
X125687523Y-146646666D01*
X125725619Y-146722857D01*
X125725619Y-146799047D01*
X125344666Y-146875238D01*
X122525619Y-148461904D02*
X122258952Y-148080952D01*
X122068476Y-148461904D02*
X122068476Y-147661904D01*
X122373238Y-147661904D01*
X122449428Y-147700000D01*
X122487523Y-147738095D01*
X122525619Y-147814285D01*
X122525619Y-147928571D01*
X122487523Y-148004761D01*
X122449428Y-148042857D01*
X122373238Y-148080952D01*
X122068476Y-148080952D01*
X123020857Y-147661904D02*
X123173238Y-147661904D01*
X123249428Y-147700000D01*
X123325619Y-147776190D01*
X123363714Y-147928571D01*
X123363714Y-148195238D01*
X123325619Y-148347619D01*
X123249428Y-148423809D01*
X123173238Y-148461904D01*
X123020857Y-148461904D01*
X122944666Y-148423809D01*
X122868476Y-148347619D01*
X122830380Y-148195238D01*
X122830380Y-147928571D01*
X122868476Y-147776190D01*
X122944666Y-147700000D01*
X123020857Y-147661904D01*
D11*
X158238095Y-133452380D02*
X157904761Y-132976190D01*
X157666666Y-133452380D02*
X157666666Y-132452380D01*
X158047619Y-132452380D01*
X158142857Y-132500000D01*
X158190476Y-132547619D01*
X158238095Y-132642857D01*
X158238095Y-132785714D01*
X158190476Y-132880952D01*
X158142857Y-132928571D01*
X158047619Y-132976190D01*
X157666666Y-132976190D01*
X158619047Y-133404761D02*
X158761904Y-133452380D01*
X159000000Y-133452380D01*
X159095238Y-133404761D01*
X159142857Y-133357142D01*
X159190476Y-133261904D01*
X159190476Y-133166666D01*
X159142857Y-133071428D01*
X159095238Y-133023809D01*
X159000000Y-132976190D01*
X158809523Y-132928571D01*
X158714285Y-132880952D01*
X158666666Y-132833333D01*
X158619047Y-132738095D01*
X158619047Y-132642857D01*
X158666666Y-132547619D01*
X158714285Y-132500000D01*
X158809523Y-132452380D01*
X159047619Y-132452380D01*
X159190476Y-132500000D01*
X160047619Y-132785714D02*
X160047619Y-133452380D01*
X159809523Y-132404761D02*
X159571428Y-133119047D01*
X160190476Y-133119047D01*
X160714285Y-132880952D02*
X160619047Y-132833333D01*
X160571428Y-132785714D01*
X160523809Y-132690476D01*
X160523809Y-132642857D01*
X160571428Y-132547619D01*
X160619047Y-132500000D01*
X160714285Y-132452380D01*
X160904761Y-132452380D01*
X161000000Y-132500000D01*
X161047619Y-132547619D01*
X161095238Y-132642857D01*
X161095238Y-132690476D01*
X161047619Y-132785714D01*
X161000000Y-132833333D01*
X160904761Y-132880952D01*
X160714285Y-132880952D01*
X160619047Y-132928571D01*
X160571428Y-132976190D01*
X160523809Y-133071428D01*
X160523809Y-133261904D01*
X160571428Y-133357142D01*
X160619047Y-133404761D01*
X160714285Y-133452380D01*
X160904761Y-133452380D01*
X161000000Y-133404761D01*
X161047619Y-133357142D01*
X161095238Y-133261904D01*
X161095238Y-133071428D01*
X161047619Y-132976190D01*
X161000000Y-132928571D01*
X160904761Y-132880952D01*
X162000000Y-132452380D02*
X161523809Y-132452380D01*
X161476190Y-132928571D01*
X161523809Y-132880952D01*
X161619047Y-132833333D01*
X161857142Y-132833333D01*
X161952380Y-132880952D01*
X162000000Y-132928571D01*
X162047619Y-133023809D01*
X162047619Y-133261904D01*
X162000000Y-133357142D01*
X161952380Y-133404761D01*
X161857142Y-133452380D01*
X161619047Y-133452380D01*
X161523809Y-133404761D01*
X161476190Y-133357142D01*
X163380952Y-133452380D02*
X163285714Y-133404761D01*
X163238095Y-133357142D01*
X163190476Y-133261904D01*
X163190476Y-132976190D01*
X163238095Y-132880952D01*
X163285714Y-132833333D01*
X163380952Y-132785714D01*
X163523809Y-132785714D01*
X163619047Y-132833333D01*
X163666666Y-132880952D01*
X163714285Y-132976190D01*
X163714285Y-133261904D01*
X163666666Y-133357142D01*
X163619047Y-133404761D01*
X163523809Y-133452380D01*
X163380952Y-133452380D01*
X164142857Y-133452380D02*
X164142857Y-132785714D01*
X164142857Y-132976190D02*
X164190476Y-132880952D01*
X164238095Y-132833333D01*
X164333333Y-132785714D01*
X164428571Y-132785714D01*
X165523809Y-133452380D02*
X165523809Y-132452380D01*
X165904761Y-132452380D01*
X166000000Y-132500000D01*
X166047619Y-132547619D01*
X166095238Y-132642857D01*
X166095238Y-132785714D01*
X166047619Y-132880952D01*
X166000000Y-132928571D01*
X165904761Y-132976190D01*
X165523809Y-132976190D01*
X166428571Y-132452380D02*
X166666666Y-133452380D01*
X166857142Y-132738095D01*
X167047619Y-133452380D01*
X167285714Y-132452380D01*
X167666666Y-133452380D02*
X167666666Y-132452380D01*
X168000000Y-133166666D01*
X168333333Y-132452380D01*
X168333333Y-133452380D01*
X156880952Y-142166666D02*
X157357142Y-142166666D01*
X156785714Y-142452380D02*
X157119047Y-141452380D01*
X157452380Y-142452380D01*
X158214285Y-142452380D02*
X158214285Y-141452380D01*
X158214285Y-142404761D02*
X158119047Y-142452380D01*
X157928571Y-142452380D01*
X157833333Y-142404761D01*
X157785714Y-142357142D01*
X157738095Y-142261904D01*
X157738095Y-141976190D01*
X157785714Y-141880952D01*
X157833333Y-141833333D01*
X157928571Y-141785714D01*
X158119047Y-141785714D01*
X158214285Y-141833333D01*
X159119047Y-142452380D02*
X159119047Y-141452380D01*
X159119047Y-142404761D02*
X159023809Y-142452380D01*
X158833333Y-142452380D01*
X158738095Y-142404761D01*
X158690476Y-142357142D01*
X158642857Y-142261904D01*
X158642857Y-141976190D01*
X158690476Y-141880952D01*
X158738095Y-141833333D01*
X158833333Y-141785714D01*
X159023809Y-141785714D01*
X159119047Y-141833333D01*
X159595238Y-142452380D02*
X159595238Y-141785714D01*
X159595238Y-141452380D02*
X159547619Y-141500000D01*
X159595238Y-141547619D01*
X159642857Y-141500000D01*
X159595238Y-141452380D01*
X159595238Y-141547619D01*
X159928571Y-141785714D02*
X160309523Y-141785714D01*
X160071428Y-141452380D02*
X160071428Y-142309523D01*
X160119047Y-142404761D01*
X160214285Y-142452380D01*
X160309523Y-142452380D01*
X160642857Y-142452380D02*
X160642857Y-141785714D01*
X160642857Y-141452380D02*
X160595238Y-141500000D01*
X160642857Y-141547619D01*
X160690476Y-141500000D01*
X160642857Y-141452380D01*
X160642857Y-141547619D01*
X161261904Y-142452380D02*
X161166666Y-142404761D01*
X161119047Y-142357142D01*
X161071428Y-142261904D01*
X161071428Y-141976190D01*
X161119047Y-141880952D01*
X161166666Y-141833333D01*
X161261904Y-141785714D01*
X161404761Y-141785714D01*
X161500000Y-141833333D01*
X161547619Y-141880952D01*
X161595238Y-141976190D01*
X161595238Y-142261904D01*
X161547619Y-142357142D01*
X161500000Y-142404761D01*
X161404761Y-142452380D01*
X161261904Y-142452380D01*
X162023809Y-141785714D02*
X162023809Y-142452380D01*
X162023809Y-141880952D02*
X162071428Y-141833333D01*
X162166666Y-141785714D01*
X162309523Y-141785714D01*
X162404761Y-141833333D01*
X162452380Y-141928571D01*
X162452380Y-142452380D01*
X163357142Y-142452380D02*
X163357142Y-141928571D01*
X163309523Y-141833333D01*
X163214285Y-141785714D01*
X163023809Y-141785714D01*
X162928571Y-141833333D01*
X163357142Y-142404761D02*
X163261904Y-142452380D01*
X163023809Y-142452380D01*
X162928571Y-142404761D01*
X162880952Y-142309523D01*
X162880952Y-142214285D01*
X162928571Y-142119047D01*
X163023809Y-142071428D01*
X163261904Y-142071428D01*
X163357142Y-142023809D01*
X163976190Y-142452380D02*
X163880952Y-142404761D01*
X163833333Y-142309523D01*
X163833333Y-141452380D01*
X165119047Y-142452380D02*
X165119047Y-141452380D01*
X165500000Y-141452380D01*
X165595238Y-141500000D01*
X165642857Y-141547619D01*
X165690476Y-141642857D01*
X165690476Y-141785714D01*
X165642857Y-141880952D01*
X165595238Y-141928571D01*
X165500000Y-141976190D01*
X165119047Y-141976190D01*
X166261904Y-142452380D02*
X166166666Y-142404761D01*
X166119047Y-142357142D01*
X166071428Y-142261904D01*
X166071428Y-141976190D01*
X166119047Y-141880952D01*
X166166666Y-141833333D01*
X166261904Y-141785714D01*
X166404761Y-141785714D01*
X166500000Y-141833333D01*
X166547619Y-141880952D01*
X166595238Y-141976190D01*
X166595238Y-142261904D01*
X166547619Y-142357142D01*
X166500000Y-142404761D01*
X166404761Y-142452380D01*
X166261904Y-142452380D01*
X166928571Y-141785714D02*
X167119047Y-142452380D01*
X167309523Y-141976190D01*
X167500000Y-142452380D01*
X167690476Y-141785714D01*
X168452380Y-142404761D02*
X168357142Y-142452380D01*
X168166666Y-142452380D01*
X168071428Y-142404761D01*
X168023809Y-142309523D01*
X168023809Y-141928571D01*
X168071428Y-141833333D01*
X168166666Y-141785714D01*
X168357142Y-141785714D01*
X168452380Y-141833333D01*
X168500000Y-141928571D01*
X168500000Y-142023809D01*
X168023809Y-142119047D01*
X168928571Y-142452380D02*
X168928571Y-141785714D01*
X168928571Y-141976190D02*
X168976190Y-141880952D01*
X169023809Y-141833333D01*
X169119047Y-141785714D01*
X169214285Y-141785714D01*
X135595238Y-124352380D02*
X135595238Y-123352380D01*
X135976190Y-123352380D01*
X136071428Y-123400000D01*
X136119047Y-123447619D01*
X136166666Y-123542857D01*
X136166666Y-123685714D01*
X136119047Y-123780952D01*
X136071428Y-123828571D01*
X135976190Y-123876190D01*
X135595238Y-123876190D01*
X136500000Y-123352380D02*
X136738095Y-124352380D01*
X136928571Y-123638095D01*
X137119047Y-124352380D01*
X137357142Y-123352380D01*
X137738095Y-124352380D02*
X137738095Y-123352380D01*
X138071428Y-124066666D01*
X138404761Y-123352380D01*
X138404761Y-124352380D01*
D10*
X172000000Y-152000000D02*
G75*
G02X168000000Y-156000000I-4000000J0D01*
G01*
X119000000Y-156000000D02*
X168000000Y-156000000D01*
X119000000Y-156000000D02*
G75*
G02X115000000Y-152000000I0J4000000D01*
G01*
X115000000Y-127000000D02*
G75*
G02X119000000Y-123000000I4000000J0D01*
G01*
X168000000Y-123000000D02*
G75*
G02X172000000Y-127000000I0J-4000000D01*
G01*
X172000000Y-152000000D02*
X172000000Y-127000000D01*
X115000000Y-127000000D02*
X115000000Y-152000000D01*
D12*
X139330000Y-61330000D02*
X136730000Y-61330000D01*
X139330000Y-61330000D02*
X139330000Y-58670000D01*
X139330000Y-58670000D02*
X134130000Y-58670000D01*
X134130000Y-58730000D02*
X134130000Y-58670000D01*
X136730000Y-58730000D02*
X134130000Y-58730000D01*
X136730000Y-61330000D02*
X136730000Y-58730000D01*
X134130000Y-61330000D02*
X134130000Y-60000000D01*
X135460000Y-61330000D02*
X134130000Y-61330000D01*
X139330000Y-94330000D02*
X136730000Y-94330000D01*
X139330000Y-94330000D02*
X139330000Y-91670000D01*
X139330000Y-91670000D02*
X134130000Y-91670000D01*
X134130000Y-91730000D02*
X134130000Y-91670000D01*
X136730000Y-91730000D02*
X134130000Y-91730000D01*
X136730000Y-94330000D02*
X136730000Y-91730000D01*
X134130000Y-94330000D02*
X134130000Y-93000000D01*
X135460000Y-94330000D02*
X134130000Y-94330000D01*
X123310000Y-65263748D02*
X123310000Y-65786252D01*
X121890000Y-65263748D02*
X121890000Y-65786252D01*
X123310000Y-98263748D02*
X123310000Y-98786252D01*
X121890000Y-98263748D02*
X121890000Y-98786252D01*
X148086252Y-60410000D02*
X147563748Y-60410000D01*
X148086252Y-58990000D02*
X147563748Y-58990000D01*
X148086252Y-93410000D02*
X147563748Y-93410000D01*
X148086252Y-91990000D02*
X147563748Y-91990000D01*
X161161252Y-65510000D02*
X160638748Y-65510000D01*
X161161252Y-64090000D02*
X160638748Y-64090000D01*
X161161252Y-98510000D02*
X160638748Y-98510000D01*
X161161252Y-97090000D02*
X160638748Y-97090000D01*
X117170000Y-80490000D02*
X119830000Y-80490000D01*
X117170000Y-70270000D02*
X117170000Y-80490000D01*
X119830000Y-70270000D02*
X119830000Y-80490000D01*
X117170000Y-70270000D02*
X119830000Y-70270000D01*
X117170000Y-69000000D02*
X117170000Y-67670000D01*
X117170000Y-67670000D02*
X118500000Y-67670000D01*
X117170000Y-113490000D02*
X119830000Y-113490000D01*
X117170000Y-103270000D02*
X117170000Y-113490000D01*
X119830000Y-103270000D02*
X119830000Y-113490000D01*
X117170000Y-103270000D02*
X119830000Y-103270000D01*
X117170000Y-102000000D02*
X117170000Y-100670000D01*
X117170000Y-100670000D02*
X118500000Y-100670000D01*
X127290000Y-86010000D02*
X127290000Y-77290000D01*
X127290000Y-77290000D02*
X132710000Y-77290000D01*
X132710000Y-86010000D02*
X132710000Y-77290000D01*
X128590000Y-87710000D02*
X127290000Y-86010000D01*
X131410000Y-87710000D02*
X132710000Y-86010000D01*
X128590000Y-87710000D02*
X131410000Y-87710000D01*
X127290000Y-119010000D02*
X127290000Y-110290000D01*
X127290000Y-110290000D02*
X132710000Y-110290000D01*
X132710000Y-119010000D02*
X132710000Y-110290000D01*
X128590000Y-120710000D02*
X127290000Y-119010000D01*
X131410000Y-120710000D02*
X132710000Y-119010000D01*
X128590000Y-120710000D02*
X131410000Y-120710000D01*
X145810000Y-62670000D02*
G75*
G02X143810000Y-62670000I-1000000J0D01*
G01*
X143810000Y-62670000D02*
X142160000Y-62670000D01*
X142160000Y-62670000D02*
X142160000Y-72950000D01*
X142160000Y-72950000D02*
X147460000Y-72950000D01*
X147460000Y-72950000D02*
X147460000Y-62670000D01*
X147460000Y-62670000D02*
X145810000Y-62670000D01*
X145810000Y-95670000D02*
G75*
G02X143810000Y-95670000I-1000000J0D01*
G01*
X143810000Y-95670000D02*
X142160000Y-95670000D01*
X142160000Y-95670000D02*
X142160000Y-105950000D01*
X142160000Y-105950000D02*
X147460000Y-105950000D01*
X147460000Y-105950000D02*
X147460000Y-95670000D01*
X147460000Y-95670000D02*
X145810000Y-95670000D01*
D13*
X127275000Y-63850000D02*
X134075000Y-63850000D01*
X134075000Y-63850000D02*
X134075000Y-74150000D01*
X134075000Y-74150000D02*
X127275000Y-74150000D01*
X127275000Y-74150000D02*
X127275000Y-63850000D01*
X125075000Y-63880000D02*
X126925000Y-63880000D01*
X127275000Y-96850000D02*
X134075000Y-96850000D01*
X134075000Y-96850000D02*
X134075000Y-107150000D01*
X134075000Y-107150000D02*
X127275000Y-107150000D01*
X127275000Y-107150000D02*
X127275000Y-96850000D01*
X125075000Y-96880000D02*
X126925000Y-96880000D01*
D12*
X169610000Y-81710000D02*
X169610000Y-77690000D01*
X169610000Y-77690000D02*
X156890000Y-77690000D01*
X156890000Y-77690000D02*
X156890000Y-81710000D01*
X156890000Y-81710000D02*
X169610000Y-81710000D01*
X169610000Y-80000000D02*
X169110000Y-80000000D01*
X169110000Y-80000000D02*
X169110000Y-81210000D01*
X169110000Y-81210000D02*
X157390000Y-81210000D01*
X157390000Y-81210000D02*
X157390000Y-80000000D01*
X157390000Y-80000000D02*
X156890000Y-80000000D01*
X169610000Y-79190000D02*
X168610000Y-79190000D01*
X168610000Y-79190000D02*
X168610000Y-77690000D01*
X156890000Y-79190000D02*
X157890000Y-79190000D01*
X157890000Y-79190000D02*
X157890000Y-77690000D01*
X169910000Y-79890000D02*
X169910000Y-77390000D01*
X169910000Y-77390000D02*
X167410000Y-77390000D01*
X169610000Y-114710000D02*
X169610000Y-110690000D01*
X169610000Y-110690000D02*
X156890000Y-110690000D01*
X156890000Y-110690000D02*
X156890000Y-114710000D01*
X156890000Y-114710000D02*
X169610000Y-114710000D01*
X169610000Y-113000000D02*
X169110000Y-113000000D01*
X169110000Y-113000000D02*
X169110000Y-114210000D01*
X169110000Y-114210000D02*
X157390000Y-114210000D01*
X157390000Y-114210000D02*
X157390000Y-113000000D01*
X157390000Y-113000000D02*
X156890000Y-113000000D01*
X169610000Y-112190000D02*
X168610000Y-112190000D01*
X168610000Y-112190000D02*
X168610000Y-110690000D01*
X156890000Y-112190000D02*
X157890000Y-112190000D01*
X157890000Y-112190000D02*
X157890000Y-110690000D01*
X169910000Y-112890000D02*
X169910000Y-110390000D01*
X169910000Y-110390000D02*
X167410000Y-110390000D01*
X169610000Y-72710000D02*
X169610000Y-68690000D01*
X169610000Y-68690000D02*
X156890000Y-68690000D01*
X156890000Y-68690000D02*
X156890000Y-72710000D01*
X156890000Y-72710000D02*
X169610000Y-72710000D01*
X169610000Y-71000000D02*
X169110000Y-71000000D01*
X169110000Y-71000000D02*
X169110000Y-72210000D01*
X169110000Y-72210000D02*
X157390000Y-72210000D01*
X157390000Y-72210000D02*
X157390000Y-71000000D01*
X157390000Y-71000000D02*
X156890000Y-71000000D01*
X169610000Y-70190000D02*
X168610000Y-70190000D01*
X168610000Y-70190000D02*
X168610000Y-68690000D01*
X156890000Y-70190000D02*
X157890000Y-70190000D01*
X157890000Y-70190000D02*
X157890000Y-68690000D01*
X169910000Y-70890000D02*
X169910000Y-68390000D01*
X169910000Y-68390000D02*
X167410000Y-68390000D01*
X169610000Y-105710000D02*
X169610000Y-101690000D01*
X169610000Y-101690000D02*
X156890000Y-101690000D01*
X156890000Y-101690000D02*
X156890000Y-105710000D01*
X156890000Y-105710000D02*
X169610000Y-105710000D01*
X169610000Y-104000000D02*
X169110000Y-104000000D01*
X169110000Y-104000000D02*
X169110000Y-105210000D01*
X169110000Y-105210000D02*
X157390000Y-105210000D01*
X157390000Y-105210000D02*
X157390000Y-104000000D01*
X157390000Y-104000000D02*
X156890000Y-104000000D01*
X169610000Y-103190000D02*
X168610000Y-103190000D01*
X168610000Y-103190000D02*
X168610000Y-101690000D01*
X156890000Y-103190000D02*
X157890000Y-103190000D01*
X157890000Y-103190000D02*
X157890000Y-101690000D01*
X169910000Y-103890000D02*
X169910000Y-101390000D01*
X169910000Y-101390000D02*
X167410000Y-101390000D01*
X161120000Y-62270000D02*
X150880000Y-62270000D01*
X161120000Y-57629000D02*
X150880000Y-57629000D01*
X161120000Y-62270000D02*
X161120000Y-57629000D01*
X150880000Y-62270000D02*
X150880000Y-57629000D01*
X161120000Y-60760000D02*
X150880000Y-60760000D01*
X157850000Y-62270000D02*
X157850000Y-60760000D01*
X154149000Y-62270000D02*
X154149000Y-60760000D01*
X161120000Y-95270000D02*
X150880000Y-95270000D01*
X161120000Y-90629000D02*
X150880000Y-90629000D01*
X161120000Y-95270000D02*
X161120000Y-90629000D01*
X150880000Y-95270000D02*
X150880000Y-90629000D01*
X161120000Y-93760000D02*
X150880000Y-93760000D01*
X157850000Y-95270000D02*
X157850000Y-93760000D01*
X154149000Y-95270000D02*
X154149000Y-93760000D01*
X141290000Y-86010000D02*
X141290000Y-77290000D01*
X141290000Y-77290000D02*
X146710000Y-77290000D01*
X146710000Y-86010000D02*
X146710000Y-77290000D01*
X142590000Y-87710000D02*
X141290000Y-86010000D01*
X145410000Y-87710000D02*
X146710000Y-86010000D01*
X142590000Y-87710000D02*
X145410000Y-87710000D01*
X141290000Y-119010000D02*
X141290000Y-110290000D01*
X141290000Y-110290000D02*
X146710000Y-110290000D01*
X146710000Y-119010000D02*
X146710000Y-110290000D01*
X142590000Y-120710000D02*
X141290000Y-119010000D01*
X145410000Y-120710000D02*
X146710000Y-119010000D01*
X142590000Y-120710000D02*
X145410000Y-120710000D01*
X148086252Y-124990000D02*
X147563748Y-124990000D01*
X148086252Y-126410000D02*
X147563748Y-126410000D01*
X161161252Y-130090000D02*
X160638748Y-130090000D01*
X161161252Y-131510000D02*
X160638748Y-131510000D01*
X121890000Y-131263748D02*
X121890000Y-131786252D01*
X123310000Y-131263748D02*
X123310000Y-131786252D01*
X135460000Y-127330000D02*
X134130000Y-127330000D01*
X134130000Y-127330000D02*
X134130000Y-126000000D01*
X136730000Y-127330000D02*
X136730000Y-124730000D01*
X136730000Y-124730000D02*
X134130000Y-124730000D01*
X134130000Y-124730000D02*
X134130000Y-124670000D01*
X139330000Y-124670000D02*
X134130000Y-124670000D01*
X139330000Y-127330000D02*
X139330000Y-124670000D01*
X139330000Y-127330000D02*
X136730000Y-127330000D01*
X147460000Y-128670000D02*
X145810000Y-128670000D01*
X147460000Y-138950000D02*
X147460000Y-128670000D01*
X142160000Y-138950000D02*
X147460000Y-138950000D01*
X142160000Y-128670000D02*
X142160000Y-138950000D01*
X143810000Y-128670000D02*
X142160000Y-128670000D01*
X145810000Y-128670000D02*
G75*
G02X143810000Y-128670000I-1000000J0D01*
G01*
X142590000Y-153710000D02*
X145410000Y-153710000D01*
X145410000Y-153710000D02*
X146710000Y-152010000D01*
X142590000Y-153710000D02*
X141290000Y-152010000D01*
X146710000Y-152010000D02*
X146710000Y-143290000D01*
X141290000Y-143290000D02*
X146710000Y-143290000D01*
X141290000Y-152010000D02*
X141290000Y-143290000D01*
X154149000Y-128270000D02*
X154149000Y-126760000D01*
X157850000Y-128270000D02*
X157850000Y-126760000D01*
X161120000Y-126760000D02*
X150880000Y-126760000D01*
X150880000Y-128270000D02*
X150880000Y-123629000D01*
X161120000Y-128270000D02*
X161120000Y-123629000D01*
X161120000Y-123629000D02*
X150880000Y-123629000D01*
X161120000Y-128270000D02*
X150880000Y-128270000D01*
X128590000Y-153710000D02*
X131410000Y-153710000D01*
X131410000Y-153710000D02*
X132710000Y-152010000D01*
X128590000Y-153710000D02*
X127290000Y-152010000D01*
X132710000Y-152010000D02*
X132710000Y-143290000D01*
X127290000Y-143290000D02*
X132710000Y-143290000D01*
X127290000Y-152010000D02*
X127290000Y-143290000D01*
X117170000Y-133670000D02*
X118500000Y-133670000D01*
X117170000Y-135000000D02*
X117170000Y-133670000D01*
X117170000Y-136270000D02*
X119830000Y-136270000D01*
X119830000Y-136270000D02*
X119830000Y-146490000D01*
X117170000Y-136270000D02*
X117170000Y-146490000D01*
X117170000Y-146490000D02*
X119830000Y-146490000D01*
X169910000Y-143390000D02*
X167410000Y-143390000D01*
X169910000Y-145890000D02*
X169910000Y-143390000D01*
X157890000Y-145190000D02*
X157890000Y-143690000D01*
X156890000Y-145190000D02*
X157890000Y-145190000D01*
X168610000Y-145190000D02*
X168610000Y-143690000D01*
X169610000Y-145190000D02*
X168610000Y-145190000D01*
X157390000Y-146000000D02*
X156890000Y-146000000D01*
X157390000Y-147210000D02*
X157390000Y-146000000D01*
X169110000Y-147210000D02*
X157390000Y-147210000D01*
X169110000Y-146000000D02*
X169110000Y-147210000D01*
X169610000Y-146000000D02*
X169110000Y-146000000D01*
X156890000Y-147710000D02*
X169610000Y-147710000D01*
X156890000Y-143690000D02*
X156890000Y-147710000D01*
X169610000Y-143690000D02*
X156890000Y-143690000D01*
X169610000Y-147710000D02*
X169610000Y-143690000D01*
X169910000Y-134390000D02*
X167410000Y-134390000D01*
X169910000Y-136890000D02*
X169910000Y-134390000D01*
X157890000Y-136190000D02*
X157890000Y-134690000D01*
X156890000Y-136190000D02*
X157890000Y-136190000D01*
X168610000Y-136190000D02*
X168610000Y-134690000D01*
X169610000Y-136190000D02*
X168610000Y-136190000D01*
X157390000Y-137000000D02*
X156890000Y-137000000D01*
X157390000Y-138210000D02*
X157390000Y-137000000D01*
X169110000Y-138210000D02*
X157390000Y-138210000D01*
X169110000Y-137000000D02*
X169110000Y-138210000D01*
X169610000Y-137000000D02*
X169110000Y-137000000D01*
X156890000Y-138710000D02*
X169610000Y-138710000D01*
X156890000Y-134690000D02*
X156890000Y-138710000D01*
X169610000Y-134690000D02*
X156890000Y-134690000D01*
X169610000Y-138710000D02*
X169610000Y-134690000D01*
D13*
X125075000Y-129880000D02*
X126925000Y-129880000D01*
X127275000Y-140150000D02*
X127275000Y-129850000D01*
X134075000Y-140150000D02*
X127275000Y-140150000D01*
X134075000Y-129850000D02*
X134075000Y-140150000D01*
X127275000Y-129850000D02*
X134075000Y-129850000D01*
D11*
X167238095Y-58452380D02*
X167238095Y-57452380D01*
X167238095Y-57928571D02*
X167809523Y-57928571D01*
X167809523Y-58452380D02*
X167809523Y-57452380D01*
X168714285Y-57785714D02*
X168714285Y-58452380D01*
X168476190Y-57404761D02*
X168238095Y-58119047D01*
X168857142Y-58119047D01*
X167238095Y-91452380D02*
X167238095Y-90452380D01*
X167238095Y-90928571D02*
X167809523Y-90928571D01*
X167809523Y-91452380D02*
X167809523Y-90452380D01*
X168714285Y-90785714D02*
X168714285Y-91452380D01*
X168476190Y-90404761D02*
X168238095Y-91119047D01*
X168857142Y-91119047D01*
X167238095Y-83452380D02*
X167238095Y-82452380D01*
X167238095Y-82928571D02*
X167809523Y-82928571D01*
X167809523Y-83452380D02*
X167809523Y-82452380D01*
X168190476Y-82452380D02*
X168809523Y-82452380D01*
X168476190Y-82833333D01*
X168619047Y-82833333D01*
X168714285Y-82880952D01*
X168761904Y-82928571D01*
X168809523Y-83023809D01*
X168809523Y-83261904D01*
X168761904Y-83357142D01*
X168714285Y-83404761D01*
X168619047Y-83452380D01*
X168333333Y-83452380D01*
X168238095Y-83404761D01*
X168190476Y-83357142D01*
X167238095Y-116452380D02*
X167238095Y-115452380D01*
X167238095Y-115928571D02*
X167809523Y-115928571D01*
X167809523Y-116452380D02*
X167809523Y-115452380D01*
X168190476Y-115452380D02*
X168809523Y-115452380D01*
X168476190Y-115833333D01*
X168619047Y-115833333D01*
X168714285Y-115880952D01*
X168761904Y-115928571D01*
X168809523Y-116023809D01*
X168809523Y-116261904D01*
X168761904Y-116357142D01*
X168714285Y-116404761D01*
X168619047Y-116452380D01*
X168333333Y-116452380D01*
X168238095Y-116404761D01*
X168190476Y-116357142D01*
X135896666Y-62222380D02*
X135896666Y-62936666D01*
X135849047Y-63079523D01*
X135753809Y-63174761D01*
X135610952Y-63222380D01*
X135515714Y-63222380D01*
X136372857Y-63222380D02*
X136372857Y-62222380D01*
X136753809Y-62222380D01*
X136849047Y-62270000D01*
X136896666Y-62317619D01*
X136944285Y-62412857D01*
X136944285Y-62555714D01*
X136896666Y-62650952D01*
X136849047Y-62698571D01*
X136753809Y-62746190D01*
X136372857Y-62746190D01*
X137896666Y-63222380D02*
X137325238Y-63222380D01*
X137610952Y-63222380D02*
X137610952Y-62222380D01*
X137515714Y-62365238D01*
X137420476Y-62460476D01*
X137325238Y-62508095D01*
X135896666Y-95222380D02*
X135896666Y-95936666D01*
X135849047Y-96079523D01*
X135753809Y-96174761D01*
X135610952Y-96222380D01*
X135515714Y-96222380D01*
X136372857Y-96222380D02*
X136372857Y-95222380D01*
X136753809Y-95222380D01*
X136849047Y-95270000D01*
X136896666Y-95317619D01*
X136944285Y-95412857D01*
X136944285Y-95555714D01*
X136896666Y-95650952D01*
X136849047Y-95698571D01*
X136753809Y-95746190D01*
X136372857Y-95746190D01*
X137896666Y-96222380D02*
X137325238Y-96222380D01*
X137610952Y-96222380D02*
X137610952Y-95222380D01*
X137515714Y-95365238D01*
X137420476Y-95460476D01*
X137325238Y-95508095D01*
X124607142Y-65691666D02*
X124654761Y-65739285D01*
X124702380Y-65882142D01*
X124702380Y-65977380D01*
X124654761Y-66120238D01*
X124559523Y-66215476D01*
X124464285Y-66263095D01*
X124273809Y-66310714D01*
X124130952Y-66310714D01*
X123940476Y-66263095D01*
X123845238Y-66215476D01*
X123750000Y-66120238D01*
X123702380Y-65977380D01*
X123702380Y-65882142D01*
X123750000Y-65739285D01*
X123797619Y-65691666D01*
X124702380Y-64739285D02*
X124702380Y-65310714D01*
X124702380Y-65025000D02*
X123702380Y-65025000D01*
X123845238Y-65120238D01*
X123940476Y-65215476D01*
X123988095Y-65310714D01*
X124607142Y-98691666D02*
X124654761Y-98739285D01*
X124702380Y-98882142D01*
X124702380Y-98977380D01*
X124654761Y-99120238D01*
X124559523Y-99215476D01*
X124464285Y-99263095D01*
X124273809Y-99310714D01*
X124130952Y-99310714D01*
X123940476Y-99263095D01*
X123845238Y-99215476D01*
X123750000Y-99120238D01*
X123702380Y-98977380D01*
X123702380Y-98882142D01*
X123750000Y-98739285D01*
X123797619Y-98691666D01*
X124702380Y-97739285D02*
X124702380Y-98310714D01*
X124702380Y-98025000D02*
X123702380Y-98025000D01*
X123845238Y-98120238D01*
X123940476Y-98215476D01*
X123988095Y-98310714D01*
X147658333Y-61707142D02*
X147610714Y-61754761D01*
X147467857Y-61802380D01*
X147372619Y-61802380D01*
X147229761Y-61754761D01*
X147134523Y-61659523D01*
X147086904Y-61564285D01*
X147039285Y-61373809D01*
X147039285Y-61230952D01*
X147086904Y-61040476D01*
X147134523Y-60945238D01*
X147229761Y-60850000D01*
X147372619Y-60802380D01*
X147467857Y-60802380D01*
X147610714Y-60850000D01*
X147658333Y-60897619D01*
X147991666Y-60802380D02*
X148610714Y-60802380D01*
X148277380Y-61183333D01*
X148420238Y-61183333D01*
X148515476Y-61230952D01*
X148563095Y-61278571D01*
X148610714Y-61373809D01*
X148610714Y-61611904D01*
X148563095Y-61707142D01*
X148515476Y-61754761D01*
X148420238Y-61802380D01*
X148134523Y-61802380D01*
X148039285Y-61754761D01*
X147991666Y-61707142D01*
X147658333Y-94707142D02*
X147610714Y-94754761D01*
X147467857Y-94802380D01*
X147372619Y-94802380D01*
X147229761Y-94754761D01*
X147134523Y-94659523D01*
X147086904Y-94564285D01*
X147039285Y-94373809D01*
X147039285Y-94230952D01*
X147086904Y-94040476D01*
X147134523Y-93945238D01*
X147229761Y-93850000D01*
X147372619Y-93802380D01*
X147467857Y-93802380D01*
X147610714Y-93850000D01*
X147658333Y-93897619D01*
X147991666Y-93802380D02*
X148610714Y-93802380D01*
X148277380Y-94183333D01*
X148420238Y-94183333D01*
X148515476Y-94230952D01*
X148563095Y-94278571D01*
X148610714Y-94373809D01*
X148610714Y-94611904D01*
X148563095Y-94707142D01*
X148515476Y-94754761D01*
X148420238Y-94802380D01*
X148134523Y-94802380D01*
X148039285Y-94754761D01*
X147991666Y-94707142D01*
X118238095Y-83452380D02*
X118238095Y-82452380D01*
X118238095Y-82928571D02*
X118809523Y-82928571D01*
X118809523Y-83452380D02*
X118809523Y-82452380D01*
X119238095Y-82547619D02*
X119285714Y-82500000D01*
X119380952Y-82452380D01*
X119619047Y-82452380D01*
X119714285Y-82500000D01*
X119761904Y-82547619D01*
X119809523Y-82642857D01*
X119809523Y-82738095D01*
X119761904Y-82880952D01*
X119190476Y-83452380D01*
X119809523Y-83452380D01*
X118238095Y-116452380D02*
X118238095Y-115452380D01*
X118238095Y-115928571D02*
X118809523Y-115928571D01*
X118809523Y-116452380D02*
X118809523Y-115452380D01*
X119238095Y-115547619D02*
X119285714Y-115500000D01*
X119380952Y-115452380D01*
X119619047Y-115452380D01*
X119714285Y-115500000D01*
X119761904Y-115547619D01*
X119809523Y-115642857D01*
X119809523Y-115738095D01*
X119761904Y-115880952D01*
X119190476Y-116452380D01*
X119809523Y-116452380D01*
X160733333Y-63557142D02*
X160685714Y-63604761D01*
X160542857Y-63652380D01*
X160447619Y-63652380D01*
X160304761Y-63604761D01*
X160209523Y-63509523D01*
X160161904Y-63414285D01*
X160114285Y-63223809D01*
X160114285Y-63080952D01*
X160161904Y-62890476D01*
X160209523Y-62795238D01*
X160304761Y-62700000D01*
X160447619Y-62652380D01*
X160542857Y-62652380D01*
X160685714Y-62700000D01*
X160733333Y-62747619D01*
X161114285Y-62747619D02*
X161161904Y-62700000D01*
X161257142Y-62652380D01*
X161495238Y-62652380D01*
X161590476Y-62700000D01*
X161638095Y-62747619D01*
X161685714Y-62842857D01*
X161685714Y-62938095D01*
X161638095Y-63080952D01*
X161066666Y-63652380D01*
X161685714Y-63652380D01*
X160733333Y-96557142D02*
X160685714Y-96604761D01*
X160542857Y-96652380D01*
X160447619Y-96652380D01*
X160304761Y-96604761D01*
X160209523Y-96509523D01*
X160161904Y-96414285D01*
X160114285Y-96223809D01*
X160114285Y-96080952D01*
X160161904Y-95890476D01*
X160209523Y-95795238D01*
X160304761Y-95700000D01*
X160447619Y-95652380D01*
X160542857Y-95652380D01*
X160685714Y-95700000D01*
X160733333Y-95747619D01*
X161114285Y-95747619D02*
X161161904Y-95700000D01*
X161257142Y-95652380D01*
X161495238Y-95652380D01*
X161590476Y-95700000D01*
X161638095Y-95747619D01*
X161685714Y-95842857D01*
X161685714Y-95938095D01*
X161638095Y-96080952D01*
X161066666Y-96652380D01*
X161685714Y-96652380D01*
X118238095Y-58452380D02*
X118238095Y-57452380D01*
X118238095Y-57928571D02*
X118809523Y-57928571D01*
X118809523Y-58452380D02*
X118809523Y-57452380D01*
X119809523Y-58452380D02*
X119238095Y-58452380D01*
X119523809Y-58452380D02*
X119523809Y-57452380D01*
X119428571Y-57595238D01*
X119333333Y-57690476D01*
X119238095Y-57738095D01*
X118238095Y-91452380D02*
X118238095Y-90452380D01*
X118238095Y-90928571D02*
X118809523Y-90928571D01*
X118809523Y-91452380D02*
X118809523Y-90452380D01*
X119809523Y-91452380D02*
X119238095Y-91452380D01*
X119523809Y-91452380D02*
X119523809Y-90452380D01*
X119428571Y-90595238D01*
X119333333Y-90690476D01*
X119238095Y-90738095D01*
X118166666Y-66122380D02*
X118166666Y-66836666D01*
X118119047Y-66979523D01*
X118023809Y-67074761D01*
X117880952Y-67122380D01*
X117785714Y-67122380D01*
X118547619Y-66122380D02*
X119166666Y-66122380D01*
X118833333Y-66503333D01*
X118976190Y-66503333D01*
X119071428Y-66550952D01*
X119119047Y-66598571D01*
X119166666Y-66693809D01*
X119166666Y-66931904D01*
X119119047Y-67027142D01*
X119071428Y-67074761D01*
X118976190Y-67122380D01*
X118690476Y-67122380D01*
X118595238Y-67074761D01*
X118547619Y-67027142D01*
X118166666Y-99122380D02*
X118166666Y-99836666D01*
X118119047Y-99979523D01*
X118023809Y-100074761D01*
X117880952Y-100122380D01*
X117785714Y-100122380D01*
X118547619Y-99122380D02*
X119166666Y-99122380D01*
X118833333Y-99503333D01*
X118976190Y-99503333D01*
X119071428Y-99550952D01*
X119119047Y-99598571D01*
X119166666Y-99693809D01*
X119166666Y-99931904D01*
X119119047Y-100027142D01*
X119071428Y-100074761D01*
X118976190Y-100122380D01*
X118690476Y-100122380D01*
X118595238Y-100074761D01*
X118547619Y-100027142D01*
X125452380Y-82833333D02*
X126166666Y-82833333D01*
X126309523Y-82880952D01*
X126404761Y-82976190D01*
X126452380Y-83119047D01*
X126452380Y-83214285D01*
X125785714Y-81928571D02*
X126452380Y-81928571D01*
X125404761Y-82166666D02*
X126119047Y-82404761D01*
X126119047Y-81785714D01*
X133452380Y-85357142D02*
X134452380Y-84690476D01*
X133452380Y-84690476D02*
X134452380Y-85357142D01*
X133452380Y-84452380D02*
X133452380Y-83880952D01*
X134452380Y-84166666D02*
X133452380Y-84166666D01*
X133452380Y-83642857D02*
X133452380Y-83023809D01*
X133833333Y-83357142D01*
X133833333Y-83214285D01*
X133880952Y-83119047D01*
X133928571Y-83071428D01*
X134023809Y-83023809D01*
X134261904Y-83023809D01*
X134357142Y-83071428D01*
X134404761Y-83119047D01*
X134452380Y-83214285D01*
X134452380Y-83500000D01*
X134404761Y-83595238D01*
X134357142Y-83642857D01*
X133452380Y-82404761D02*
X133452380Y-82309523D01*
X133500000Y-82214285D01*
X133547619Y-82166666D01*
X133642857Y-82119047D01*
X133833333Y-82071428D01*
X134071428Y-82071428D01*
X134261904Y-82119047D01*
X134357142Y-82166666D01*
X134404761Y-82214285D01*
X134452380Y-82309523D01*
X134452380Y-82404761D01*
X134404761Y-82500000D01*
X134357142Y-82547619D01*
X134261904Y-82595238D01*
X134071428Y-82642857D01*
X133833333Y-82642857D01*
X133642857Y-82595238D01*
X133547619Y-82547619D01*
X133500000Y-82500000D01*
X133452380Y-82404761D01*
X134071428Y-81642857D02*
X134071428Y-80880952D01*
X134452380Y-80404761D02*
X133452380Y-80404761D01*
X134166666Y-80071428D01*
X133452380Y-79738095D01*
X134452380Y-79738095D01*
X130107142Y-76571428D02*
X130107142Y-75428571D01*
X130678571Y-76000000D02*
X129535714Y-76000000D01*
X130107142Y-89571428D02*
X130107142Y-88428571D01*
X125452380Y-115833333D02*
X126166666Y-115833333D01*
X126309523Y-115880952D01*
X126404761Y-115976190D01*
X126452380Y-116119047D01*
X126452380Y-116214285D01*
X125785714Y-114928571D02*
X126452380Y-114928571D01*
X125404761Y-115166666D02*
X126119047Y-115404761D01*
X126119047Y-114785714D01*
X133452380Y-118357142D02*
X134452380Y-117690476D01*
X133452380Y-117690476D02*
X134452380Y-118357142D01*
X133452380Y-117452380D02*
X133452380Y-116880952D01*
X134452380Y-117166666D02*
X133452380Y-117166666D01*
X133452380Y-116642857D02*
X133452380Y-116023809D01*
X133833333Y-116357142D01*
X133833333Y-116214285D01*
X133880952Y-116119047D01*
X133928571Y-116071428D01*
X134023809Y-116023809D01*
X134261904Y-116023809D01*
X134357142Y-116071428D01*
X134404761Y-116119047D01*
X134452380Y-116214285D01*
X134452380Y-116500000D01*
X134404761Y-116595238D01*
X134357142Y-116642857D01*
X133452380Y-115404761D02*
X133452380Y-115309523D01*
X133500000Y-115214285D01*
X133547619Y-115166666D01*
X133642857Y-115119047D01*
X133833333Y-115071428D01*
X134071428Y-115071428D01*
X134261904Y-115119047D01*
X134357142Y-115166666D01*
X134404761Y-115214285D01*
X134452380Y-115309523D01*
X134452380Y-115404761D01*
X134404761Y-115500000D01*
X134357142Y-115547619D01*
X134261904Y-115595238D01*
X134071428Y-115642857D01*
X133833333Y-115642857D01*
X133642857Y-115595238D01*
X133547619Y-115547619D01*
X133500000Y-115500000D01*
X133452380Y-115404761D01*
X134071428Y-114642857D02*
X134071428Y-113880952D01*
X134452380Y-113404761D02*
X133452380Y-113404761D01*
X134166666Y-113071428D01*
X133452380Y-112738095D01*
X134452380Y-112738095D01*
X130107142Y-109571428D02*
X130107142Y-108428571D01*
X130678571Y-109000000D02*
X129535714Y-109000000D01*
X130107142Y-122571428D02*
X130107142Y-121428571D01*
X143833809Y-62122380D02*
X143833809Y-61122380D01*
X144881428Y-62027142D02*
X144833809Y-62074761D01*
X144690952Y-62122380D01*
X144595714Y-62122380D01*
X144452857Y-62074761D01*
X144357619Y-61979523D01*
X144310000Y-61884285D01*
X144262380Y-61693809D01*
X144262380Y-61550952D01*
X144310000Y-61360476D01*
X144357619Y-61265238D01*
X144452857Y-61170000D01*
X144595714Y-61122380D01*
X144690952Y-61122380D01*
X144833809Y-61170000D01*
X144881428Y-61217619D01*
X145833809Y-62122380D02*
X145262380Y-62122380D01*
X145548095Y-62122380D02*
X145548095Y-61122380D01*
X145452857Y-61265238D01*
X145357619Y-61360476D01*
X145262380Y-61408095D01*
X142810000Y-74402380D02*
X142333809Y-74402380D01*
X142333809Y-73402380D01*
X143000476Y-73402380D02*
X143571904Y-73402380D01*
X143286190Y-74402380D02*
X143286190Y-73402380D01*
X144476666Y-74307142D02*
X144429047Y-74354761D01*
X144286190Y-74402380D01*
X144190952Y-74402380D01*
X144048095Y-74354761D01*
X143952857Y-74259523D01*
X143905238Y-74164285D01*
X143857619Y-73973809D01*
X143857619Y-73830952D01*
X143905238Y-73640476D01*
X143952857Y-73545238D01*
X144048095Y-73450000D01*
X144190952Y-73402380D01*
X144286190Y-73402380D01*
X144429047Y-73450000D01*
X144476666Y-73497619D01*
X145333809Y-73735714D02*
X145333809Y-74402380D01*
X145095714Y-73354761D02*
X144857619Y-74069047D01*
X145476666Y-74069047D01*
X146000476Y-73830952D02*
X145905238Y-73783333D01*
X145857619Y-73735714D01*
X145810000Y-73640476D01*
X145810000Y-73592857D01*
X145857619Y-73497619D01*
X145905238Y-73450000D01*
X146000476Y-73402380D01*
X146190952Y-73402380D01*
X146286190Y-73450000D01*
X146333809Y-73497619D01*
X146381428Y-73592857D01*
X146381428Y-73640476D01*
X146333809Y-73735714D01*
X146286190Y-73783333D01*
X146190952Y-73830952D01*
X146000476Y-73830952D01*
X145905238Y-73878571D01*
X145857619Y-73926190D01*
X145810000Y-74021428D01*
X145810000Y-74211904D01*
X145857619Y-74307142D01*
X145905238Y-74354761D01*
X146000476Y-74402380D01*
X146190952Y-74402380D01*
X146286190Y-74354761D01*
X146333809Y-74307142D01*
X146381428Y-74211904D01*
X146381428Y-74021428D01*
X146333809Y-73926190D01*
X146286190Y-73878571D01*
X146190952Y-73830952D01*
X147286190Y-73402380D02*
X146810000Y-73402380D01*
X146762380Y-73878571D01*
X146810000Y-73830952D01*
X146905238Y-73783333D01*
X147143333Y-73783333D01*
X147238571Y-73830952D01*
X147286190Y-73878571D01*
X147333809Y-73973809D01*
X147333809Y-74211904D01*
X147286190Y-74307142D01*
X147238571Y-74354761D01*
X147143333Y-74402380D01*
X146905238Y-74402380D01*
X146810000Y-74354761D01*
X146762380Y-74307142D01*
X143833809Y-95122380D02*
X143833809Y-94122380D01*
X144881428Y-95027142D02*
X144833809Y-95074761D01*
X144690952Y-95122380D01*
X144595714Y-95122380D01*
X144452857Y-95074761D01*
X144357619Y-94979523D01*
X144310000Y-94884285D01*
X144262380Y-94693809D01*
X144262380Y-94550952D01*
X144310000Y-94360476D01*
X144357619Y-94265238D01*
X144452857Y-94170000D01*
X144595714Y-94122380D01*
X144690952Y-94122380D01*
X144833809Y-94170000D01*
X144881428Y-94217619D01*
X145833809Y-95122380D02*
X145262380Y-95122380D01*
X145548095Y-95122380D02*
X145548095Y-94122380D01*
X145452857Y-94265238D01*
X145357619Y-94360476D01*
X145262380Y-94408095D01*
X142810000Y-107402380D02*
X142333809Y-107402380D01*
X142333809Y-106402380D01*
X143000476Y-106402380D02*
X143571904Y-106402380D01*
X143286190Y-107402380D02*
X143286190Y-106402380D01*
X144476666Y-107307142D02*
X144429047Y-107354761D01*
X144286190Y-107402380D01*
X144190952Y-107402380D01*
X144048095Y-107354761D01*
X143952857Y-107259523D01*
X143905238Y-107164285D01*
X143857619Y-106973809D01*
X143857619Y-106830952D01*
X143905238Y-106640476D01*
X143952857Y-106545238D01*
X144048095Y-106450000D01*
X144190952Y-106402380D01*
X144286190Y-106402380D01*
X144429047Y-106450000D01*
X144476666Y-106497619D01*
X145333809Y-106735714D02*
X145333809Y-107402380D01*
X145095714Y-106354761D02*
X144857619Y-107069047D01*
X145476666Y-107069047D01*
X146000476Y-106830952D02*
X145905238Y-106783333D01*
X145857619Y-106735714D01*
X145810000Y-106640476D01*
X145810000Y-106592857D01*
X145857619Y-106497619D01*
X145905238Y-106450000D01*
X146000476Y-106402380D01*
X146190952Y-106402380D01*
X146286190Y-106450000D01*
X146333809Y-106497619D01*
X146381428Y-106592857D01*
X146381428Y-106640476D01*
X146333809Y-106735714D01*
X146286190Y-106783333D01*
X146190952Y-106830952D01*
X146000476Y-106830952D01*
X145905238Y-106878571D01*
X145857619Y-106926190D01*
X145810000Y-107021428D01*
X145810000Y-107211904D01*
X145857619Y-107307142D01*
X145905238Y-107354761D01*
X146000476Y-107402380D01*
X146190952Y-107402380D01*
X146286190Y-107354761D01*
X146333809Y-107307142D01*
X146381428Y-107211904D01*
X146381428Y-107021428D01*
X146333809Y-106926190D01*
X146286190Y-106878571D01*
X146190952Y-106830952D01*
X147286190Y-106402380D02*
X146810000Y-106402380D01*
X146762380Y-106878571D01*
X146810000Y-106830952D01*
X146905238Y-106783333D01*
X147143333Y-106783333D01*
X147238571Y-106830952D01*
X147286190Y-106878571D01*
X147333809Y-106973809D01*
X147333809Y-107211904D01*
X147286190Y-107307142D01*
X147238571Y-107354761D01*
X147143333Y-107402380D01*
X146905238Y-107402380D01*
X146810000Y-107354761D01*
X146762380Y-107307142D01*
D14*
X129435238Y-69574523D02*
X129435238Y-68304523D01*
X130765714Y-69453571D02*
X130705238Y-69514047D01*
X130523809Y-69574523D01*
X130402857Y-69574523D01*
X130221428Y-69514047D01*
X130100476Y-69393095D01*
X130040000Y-69272142D01*
X129979523Y-69030238D01*
X129979523Y-68848809D01*
X130040000Y-68606904D01*
X130100476Y-68485952D01*
X130221428Y-68365000D01*
X130402857Y-68304523D01*
X130523809Y-68304523D01*
X130705238Y-68365000D01*
X130765714Y-68425476D01*
X131249523Y-68425476D02*
X131310000Y-68365000D01*
X131430952Y-68304523D01*
X131733333Y-68304523D01*
X131854285Y-68365000D01*
X131914761Y-68425476D01*
X131975238Y-68546428D01*
X131975238Y-68667380D01*
X131914761Y-68848809D01*
X131189047Y-69574523D01*
X131975238Y-69574523D01*
D11*
X128246428Y-75404761D02*
X128389285Y-75452380D01*
X128627380Y-75452380D01*
X128722619Y-75404761D01*
X128770238Y-75357142D01*
X128817857Y-75261904D01*
X128817857Y-75166666D01*
X128770238Y-75071428D01*
X128722619Y-75023809D01*
X128627380Y-74976190D01*
X128436904Y-74928571D01*
X128341666Y-74880952D01*
X128294047Y-74833333D01*
X128246428Y-74738095D01*
X128246428Y-74642857D01*
X128294047Y-74547619D01*
X128341666Y-74500000D01*
X128436904Y-74452380D01*
X128675000Y-74452380D01*
X128817857Y-74500000D01*
X129246428Y-75452380D02*
X129246428Y-74785714D01*
X129246428Y-74452380D02*
X129198809Y-74500000D01*
X129246428Y-74547619D01*
X129294047Y-74500000D01*
X129246428Y-74452380D01*
X129246428Y-74547619D01*
X129865476Y-74880952D02*
X129770238Y-74833333D01*
X129722619Y-74785714D01*
X129675000Y-74690476D01*
X129675000Y-74642857D01*
X129722619Y-74547619D01*
X129770238Y-74500000D01*
X129865476Y-74452380D01*
X130055952Y-74452380D01*
X130151190Y-74500000D01*
X130198809Y-74547619D01*
X130246428Y-74642857D01*
X130246428Y-74690476D01*
X130198809Y-74785714D01*
X130151190Y-74833333D01*
X130055952Y-74880952D01*
X129865476Y-74880952D01*
X129770238Y-74928571D01*
X129722619Y-74976190D01*
X129675000Y-75071428D01*
X129675000Y-75261904D01*
X129722619Y-75357142D01*
X129770238Y-75404761D01*
X129865476Y-75452380D01*
X130055952Y-75452380D01*
X130151190Y-75404761D01*
X130198809Y-75357142D01*
X130246428Y-75261904D01*
X130246428Y-75071428D01*
X130198809Y-74976190D01*
X130151190Y-74928571D01*
X130055952Y-74880952D01*
X131103571Y-74452380D02*
X130913095Y-74452380D01*
X130817857Y-74500000D01*
X130770238Y-74547619D01*
X130675000Y-74690476D01*
X130627380Y-74880952D01*
X130627380Y-75261904D01*
X130675000Y-75357142D01*
X130722619Y-75404761D01*
X130817857Y-75452380D01*
X131008333Y-75452380D01*
X131103571Y-75404761D01*
X131151190Y-75357142D01*
X131198809Y-75261904D01*
X131198809Y-75023809D01*
X131151190Y-74928571D01*
X131103571Y-74880952D01*
X131008333Y-74833333D01*
X130817857Y-74833333D01*
X130722619Y-74880952D01*
X130675000Y-74928571D01*
X130627380Y-75023809D01*
X131532142Y-74452380D02*
X132151190Y-74452380D01*
X131817857Y-74833333D01*
X131960714Y-74833333D01*
X132055952Y-74880952D01*
X132103571Y-74928571D01*
X132151190Y-75023809D01*
X132151190Y-75261904D01*
X132103571Y-75357142D01*
X132055952Y-75404761D01*
X131960714Y-75452380D01*
X131675000Y-75452380D01*
X131579761Y-75404761D01*
X131532142Y-75357142D01*
X133103571Y-75452380D02*
X132532142Y-75452380D01*
X132817857Y-75452380D02*
X132817857Y-74452380D01*
X132722619Y-74595238D01*
X132627380Y-74690476D01*
X132532142Y-74738095D01*
D14*
X129435238Y-102574523D02*
X129435238Y-101304523D01*
X130765714Y-102453571D02*
X130705238Y-102514047D01*
X130523809Y-102574523D01*
X130402857Y-102574523D01*
X130221428Y-102514047D01*
X130100476Y-102393095D01*
X130040000Y-102272142D01*
X129979523Y-102030238D01*
X129979523Y-101848809D01*
X130040000Y-101606904D01*
X130100476Y-101485952D01*
X130221428Y-101365000D01*
X130402857Y-101304523D01*
X130523809Y-101304523D01*
X130705238Y-101365000D01*
X130765714Y-101425476D01*
X131249523Y-101425476D02*
X131310000Y-101365000D01*
X131430952Y-101304523D01*
X131733333Y-101304523D01*
X131854285Y-101365000D01*
X131914761Y-101425476D01*
X131975238Y-101546428D01*
X131975238Y-101667380D01*
X131914761Y-101848809D01*
X131189047Y-102574523D01*
X131975238Y-102574523D01*
D11*
X128246428Y-108404761D02*
X128389285Y-108452380D01*
X128627380Y-108452380D01*
X128722619Y-108404761D01*
X128770238Y-108357142D01*
X128817857Y-108261904D01*
X128817857Y-108166666D01*
X128770238Y-108071428D01*
X128722619Y-108023809D01*
X128627380Y-107976190D01*
X128436904Y-107928571D01*
X128341666Y-107880952D01*
X128294047Y-107833333D01*
X128246428Y-107738095D01*
X128246428Y-107642857D01*
X128294047Y-107547619D01*
X128341666Y-107500000D01*
X128436904Y-107452380D01*
X128675000Y-107452380D01*
X128817857Y-107500000D01*
X129246428Y-108452380D02*
X129246428Y-107785714D01*
X129246428Y-107452380D02*
X129198809Y-107500000D01*
X129246428Y-107547619D01*
X129294047Y-107500000D01*
X129246428Y-107452380D01*
X129246428Y-107547619D01*
X129865476Y-107880952D02*
X129770238Y-107833333D01*
X129722619Y-107785714D01*
X129675000Y-107690476D01*
X129675000Y-107642857D01*
X129722619Y-107547619D01*
X129770238Y-107500000D01*
X129865476Y-107452380D01*
X130055952Y-107452380D01*
X130151190Y-107500000D01*
X130198809Y-107547619D01*
X130246428Y-107642857D01*
X130246428Y-107690476D01*
X130198809Y-107785714D01*
X130151190Y-107833333D01*
X130055952Y-107880952D01*
X129865476Y-107880952D01*
X129770238Y-107928571D01*
X129722619Y-107976190D01*
X129675000Y-108071428D01*
X129675000Y-108261904D01*
X129722619Y-108357142D01*
X129770238Y-108404761D01*
X129865476Y-108452380D01*
X130055952Y-108452380D01*
X130151190Y-108404761D01*
X130198809Y-108357142D01*
X130246428Y-108261904D01*
X130246428Y-108071428D01*
X130198809Y-107976190D01*
X130151190Y-107928571D01*
X130055952Y-107880952D01*
X131103571Y-107452380D02*
X130913095Y-107452380D01*
X130817857Y-107500000D01*
X130770238Y-107547619D01*
X130675000Y-107690476D01*
X130627380Y-107880952D01*
X130627380Y-108261904D01*
X130675000Y-108357142D01*
X130722619Y-108404761D01*
X130817857Y-108452380D01*
X131008333Y-108452380D01*
X131103571Y-108404761D01*
X131151190Y-108357142D01*
X131198809Y-108261904D01*
X131198809Y-108023809D01*
X131151190Y-107928571D01*
X131103571Y-107880952D01*
X131008333Y-107833333D01*
X130817857Y-107833333D01*
X130722619Y-107880952D01*
X130675000Y-107928571D01*
X130627380Y-108023809D01*
X131532142Y-107452380D02*
X132151190Y-107452380D01*
X131817857Y-107833333D01*
X131960714Y-107833333D01*
X132055952Y-107880952D01*
X132103571Y-107928571D01*
X132151190Y-108023809D01*
X132151190Y-108261904D01*
X132103571Y-108357142D01*
X132055952Y-108404761D01*
X131960714Y-108452380D01*
X131675000Y-108452380D01*
X131579761Y-108404761D01*
X131532142Y-108357142D01*
X133103571Y-108452380D02*
X132532142Y-108452380D01*
X132817857Y-108452380D02*
X132817857Y-107452380D01*
X132722619Y-107595238D01*
X132627380Y-107690476D01*
X132532142Y-107738095D01*
X162916666Y-82252380D02*
X162916666Y-82966666D01*
X162869047Y-83109523D01*
X162773809Y-83204761D01*
X162630952Y-83252380D01*
X162535714Y-83252380D01*
X163345238Y-82347619D02*
X163392857Y-82300000D01*
X163488095Y-82252380D01*
X163726190Y-82252380D01*
X163821428Y-82300000D01*
X163869047Y-82347619D01*
X163916666Y-82442857D01*
X163916666Y-82538095D01*
X163869047Y-82680952D01*
X163297619Y-83252380D01*
X163916666Y-83252380D01*
X162916666Y-115252380D02*
X162916666Y-115966666D01*
X162869047Y-116109523D01*
X162773809Y-116204761D01*
X162630952Y-116252380D01*
X162535714Y-116252380D01*
X163345238Y-115347619D02*
X163392857Y-115300000D01*
X163488095Y-115252380D01*
X163726190Y-115252380D01*
X163821428Y-115300000D01*
X163869047Y-115347619D01*
X163916666Y-115442857D01*
X163916666Y-115538095D01*
X163869047Y-115680952D01*
X163297619Y-116252380D01*
X163916666Y-116252380D01*
X162916666Y-73252380D02*
X162916666Y-73966666D01*
X162869047Y-74109523D01*
X162773809Y-74204761D01*
X162630952Y-74252380D01*
X162535714Y-74252380D01*
X163916666Y-74252380D02*
X163345238Y-74252380D01*
X163630952Y-74252380D02*
X163630952Y-73252380D01*
X163535714Y-73395238D01*
X163440476Y-73490476D01*
X163345238Y-73538095D01*
X162916666Y-106252380D02*
X162916666Y-106966666D01*
X162869047Y-107109523D01*
X162773809Y-107204761D01*
X162630952Y-107252380D01*
X162535714Y-107252380D01*
X163916666Y-107252380D02*
X163345238Y-107252380D01*
X163630952Y-107252380D02*
X163630952Y-106252380D01*
X163535714Y-106395238D01*
X163440476Y-106490476D01*
X163345238Y-106538095D01*
X155238095Y-62722380D02*
X155238095Y-63531904D01*
X155285714Y-63627142D01*
X155333333Y-63674761D01*
X155428571Y-63722380D01*
X155619047Y-63722380D01*
X155714285Y-63674761D01*
X155761904Y-63627142D01*
X155809523Y-63531904D01*
X155809523Y-62722380D01*
X156809523Y-63722380D02*
X156238095Y-63722380D01*
X156523809Y-63722380D02*
X156523809Y-62722380D01*
X156428571Y-62865238D01*
X156333333Y-62960476D01*
X156238095Y-63008095D01*
X155238095Y-95722380D02*
X155238095Y-96531904D01*
X155285714Y-96627142D01*
X155333333Y-96674761D01*
X155428571Y-96722380D01*
X155619047Y-96722380D01*
X155714285Y-96674761D01*
X155761904Y-96627142D01*
X155809523Y-96531904D01*
X155809523Y-95722380D01*
X156809523Y-96722380D02*
X156238095Y-96722380D01*
X156523809Y-96722380D02*
X156523809Y-95722380D01*
X156428571Y-95865238D01*
X156333333Y-95960476D01*
X156238095Y-96008095D01*
X139452380Y-82833333D02*
X140166666Y-82833333D01*
X140309523Y-82880952D01*
X140404761Y-82976190D01*
X140452380Y-83119047D01*
X140452380Y-83214285D01*
X139452380Y-81880952D02*
X139452380Y-82357142D01*
X139928571Y-82404761D01*
X139880952Y-82357142D01*
X139833333Y-82261904D01*
X139833333Y-82023809D01*
X139880952Y-81928571D01*
X139928571Y-81880952D01*
X140023809Y-81833333D01*
X140261904Y-81833333D01*
X140357142Y-81880952D01*
X140404761Y-81928571D01*
X140452380Y-82023809D01*
X140452380Y-82261904D01*
X140404761Y-82357142D01*
X140357142Y-82404761D01*
X147452380Y-85214285D02*
X148452380Y-84547619D01*
X147452380Y-84547619D02*
X148452380Y-85214285D01*
X147452380Y-84309523D02*
X147452380Y-83738095D01*
X148452380Y-84023809D02*
X147452380Y-84023809D01*
X147452380Y-83500000D02*
X147452380Y-82880952D01*
X147833333Y-83214285D01*
X147833333Y-83071428D01*
X147880952Y-82976190D01*
X147928571Y-82928571D01*
X148023809Y-82880952D01*
X148261904Y-82880952D01*
X148357142Y-82928571D01*
X148404761Y-82976190D01*
X148452380Y-83071428D01*
X148452380Y-83357142D01*
X148404761Y-83452380D01*
X148357142Y-83500000D01*
X147452380Y-82261904D02*
X147452380Y-82166666D01*
X147500000Y-82071428D01*
X147547619Y-82023809D01*
X147642857Y-81976190D01*
X147833333Y-81928571D01*
X148071428Y-81928571D01*
X148261904Y-81976190D01*
X148357142Y-82023809D01*
X148404761Y-82071428D01*
X148452380Y-82166666D01*
X148452380Y-82261904D01*
X148404761Y-82357142D01*
X148357142Y-82404761D01*
X148261904Y-82452380D01*
X148071428Y-82500000D01*
X147833333Y-82500000D01*
X147642857Y-82452380D01*
X147547619Y-82404761D01*
X147500000Y-82357142D01*
X147452380Y-82261904D01*
X148071428Y-81500000D02*
X148071428Y-80738095D01*
X147928571Y-79928571D02*
X147928571Y-80261904D01*
X148452380Y-80261904D02*
X147452380Y-80261904D01*
X147452380Y-79785714D01*
X144107142Y-76571428D02*
X144107142Y-75428571D01*
X144678571Y-76000000D02*
X143535714Y-76000000D01*
X144107142Y-89571428D02*
X144107142Y-88428571D01*
X139452380Y-115833333D02*
X140166666Y-115833333D01*
X140309523Y-115880952D01*
X140404761Y-115976190D01*
X140452380Y-116119047D01*
X140452380Y-116214285D01*
X139452380Y-114880952D02*
X139452380Y-115357142D01*
X139928571Y-115404761D01*
X139880952Y-115357142D01*
X139833333Y-115261904D01*
X139833333Y-115023809D01*
X139880952Y-114928571D01*
X139928571Y-114880952D01*
X140023809Y-114833333D01*
X140261904Y-114833333D01*
X140357142Y-114880952D01*
X140404761Y-114928571D01*
X140452380Y-115023809D01*
X140452380Y-115261904D01*
X140404761Y-115357142D01*
X140357142Y-115404761D01*
X147452380Y-118214285D02*
X148452380Y-117547619D01*
X147452380Y-117547619D02*
X148452380Y-118214285D01*
X147452380Y-117309523D02*
X147452380Y-116738095D01*
X148452380Y-117023809D02*
X147452380Y-117023809D01*
X147452380Y-116500000D02*
X147452380Y-115880952D01*
X147833333Y-116214285D01*
X147833333Y-116071428D01*
X147880952Y-115976190D01*
X147928571Y-115928571D01*
X148023809Y-115880952D01*
X148261904Y-115880952D01*
X148357142Y-115928571D01*
X148404761Y-115976190D01*
X148452380Y-116071428D01*
X148452380Y-116357142D01*
X148404761Y-116452380D01*
X148357142Y-116500000D01*
X147452380Y-115261904D02*
X147452380Y-115166666D01*
X147500000Y-115071428D01*
X147547619Y-115023809D01*
X147642857Y-114976190D01*
X147833333Y-114928571D01*
X148071428Y-114928571D01*
X148261904Y-114976190D01*
X148357142Y-115023809D01*
X148404761Y-115071428D01*
X148452380Y-115166666D01*
X148452380Y-115261904D01*
X148404761Y-115357142D01*
X148357142Y-115404761D01*
X148261904Y-115452380D01*
X148071428Y-115500000D01*
X147833333Y-115500000D01*
X147642857Y-115452380D01*
X147547619Y-115404761D01*
X147500000Y-115357142D01*
X147452380Y-115261904D01*
X148071428Y-114500000D02*
X148071428Y-113738095D01*
X147928571Y-112928571D02*
X147928571Y-113261904D01*
X148452380Y-113261904D02*
X147452380Y-113261904D01*
X147452380Y-112785714D01*
X144107142Y-109571428D02*
X144107142Y-108428571D01*
X144678571Y-109000000D02*
X143535714Y-109000000D01*
X144107142Y-122571428D02*
X144107142Y-121428571D01*
X147658333Y-127707142D02*
X147610714Y-127754761D01*
X147467857Y-127802380D01*
X147372619Y-127802380D01*
X147229761Y-127754761D01*
X147134523Y-127659523D01*
X147086904Y-127564285D01*
X147039285Y-127373809D01*
X147039285Y-127230952D01*
X147086904Y-127040476D01*
X147134523Y-126945238D01*
X147229761Y-126850000D01*
X147372619Y-126802380D01*
X147467857Y-126802380D01*
X147610714Y-126850000D01*
X147658333Y-126897619D01*
X147991666Y-126802380D02*
X148610714Y-126802380D01*
X148277380Y-127183333D01*
X148420238Y-127183333D01*
X148515476Y-127230952D01*
X148563095Y-127278571D01*
X148610714Y-127373809D01*
X148610714Y-127611904D01*
X148563095Y-127707142D01*
X148515476Y-127754761D01*
X148420238Y-127802380D01*
X148134523Y-127802380D01*
X148039285Y-127754761D01*
X147991666Y-127707142D01*
X160733333Y-129557142D02*
X160685714Y-129604761D01*
X160542857Y-129652380D01*
X160447619Y-129652380D01*
X160304761Y-129604761D01*
X160209523Y-129509523D01*
X160161904Y-129414285D01*
X160114285Y-129223809D01*
X160114285Y-129080952D01*
X160161904Y-128890476D01*
X160209523Y-128795238D01*
X160304761Y-128700000D01*
X160447619Y-128652380D01*
X160542857Y-128652380D01*
X160685714Y-128700000D01*
X160733333Y-128747619D01*
X161114285Y-128747619D02*
X161161904Y-128700000D01*
X161257142Y-128652380D01*
X161495238Y-128652380D01*
X161590476Y-128700000D01*
X161638095Y-128747619D01*
X161685714Y-128842857D01*
X161685714Y-128938095D01*
X161638095Y-129080952D01*
X161066666Y-129652380D01*
X161685714Y-129652380D01*
X124607142Y-131691666D02*
X124654761Y-131739285D01*
X124702380Y-131882142D01*
X124702380Y-131977380D01*
X124654761Y-132120238D01*
X124559523Y-132215476D01*
X124464285Y-132263095D01*
X124273809Y-132310714D01*
X124130952Y-132310714D01*
X123940476Y-132263095D01*
X123845238Y-132215476D01*
X123750000Y-132120238D01*
X123702380Y-131977380D01*
X123702380Y-131882142D01*
X123750000Y-131739285D01*
X123797619Y-131691666D01*
X124702380Y-130739285D02*
X124702380Y-131310714D01*
X124702380Y-131025000D02*
X123702380Y-131025000D01*
X123845238Y-131120238D01*
X123940476Y-131215476D01*
X123988095Y-131310714D01*
X135896666Y-128222380D02*
X135896666Y-128936666D01*
X135849047Y-129079523D01*
X135753809Y-129174761D01*
X135610952Y-129222380D01*
X135515714Y-129222380D01*
X136372857Y-129222380D02*
X136372857Y-128222380D01*
X136753809Y-128222380D01*
X136849047Y-128270000D01*
X136896666Y-128317619D01*
X136944285Y-128412857D01*
X136944285Y-128555714D01*
X136896666Y-128650952D01*
X136849047Y-128698571D01*
X136753809Y-128746190D01*
X136372857Y-128746190D01*
X137896666Y-129222380D02*
X137325238Y-129222380D01*
X137610952Y-129222380D02*
X137610952Y-128222380D01*
X137515714Y-128365238D01*
X137420476Y-128460476D01*
X137325238Y-128508095D01*
X167238095Y-124452380D02*
X167238095Y-123452380D01*
X167238095Y-123928571D02*
X167809523Y-123928571D01*
X167809523Y-124452380D02*
X167809523Y-123452380D01*
X168714285Y-123785714D02*
X168714285Y-124452380D01*
X168476190Y-123404761D02*
X168238095Y-124119047D01*
X168857142Y-124119047D01*
X167238095Y-149452380D02*
X167238095Y-148452380D01*
X167238095Y-148928571D02*
X167809523Y-148928571D01*
X167809523Y-149452380D02*
X167809523Y-148452380D01*
X168190476Y-148452380D02*
X168809523Y-148452380D01*
X168476190Y-148833333D01*
X168619047Y-148833333D01*
X168714285Y-148880952D01*
X168761904Y-148928571D01*
X168809523Y-149023809D01*
X168809523Y-149261904D01*
X168761904Y-149357142D01*
X168714285Y-149404761D01*
X168619047Y-149452380D01*
X168333333Y-149452380D01*
X168238095Y-149404761D01*
X168190476Y-149357142D01*
X118238095Y-149452380D02*
X118238095Y-148452380D01*
X118238095Y-148928571D02*
X118809523Y-148928571D01*
X118809523Y-149452380D02*
X118809523Y-148452380D01*
X119238095Y-148547619D02*
X119285714Y-148500000D01*
X119380952Y-148452380D01*
X119619047Y-148452380D01*
X119714285Y-148500000D01*
X119761904Y-148547619D01*
X119809523Y-148642857D01*
X119809523Y-148738095D01*
X119761904Y-148880952D01*
X119190476Y-149452380D01*
X119809523Y-149452380D01*
X118238095Y-124452380D02*
X118238095Y-123452380D01*
X118238095Y-123928571D02*
X118809523Y-123928571D01*
X118809523Y-124452380D02*
X118809523Y-123452380D01*
X119809523Y-124452380D02*
X119238095Y-124452380D01*
X119523809Y-124452380D02*
X119523809Y-123452380D01*
X119428571Y-123595238D01*
X119333333Y-123690476D01*
X119238095Y-123738095D01*
X143833809Y-128122380D02*
X143833809Y-127122380D01*
X144881428Y-128027142D02*
X144833809Y-128074761D01*
X144690952Y-128122380D01*
X144595714Y-128122380D01*
X144452857Y-128074761D01*
X144357619Y-127979523D01*
X144310000Y-127884285D01*
X144262380Y-127693809D01*
X144262380Y-127550952D01*
X144310000Y-127360476D01*
X144357619Y-127265238D01*
X144452857Y-127170000D01*
X144595714Y-127122380D01*
X144690952Y-127122380D01*
X144833809Y-127170000D01*
X144881428Y-127217619D01*
X145833809Y-128122380D02*
X145262380Y-128122380D01*
X145548095Y-128122380D02*
X145548095Y-127122380D01*
X145452857Y-127265238D01*
X145357619Y-127360476D01*
X145262380Y-127408095D01*
X142810000Y-140402380D02*
X142333809Y-140402380D01*
X142333809Y-139402380D01*
X143000476Y-139402380D02*
X143571904Y-139402380D01*
X143286190Y-140402380D02*
X143286190Y-139402380D01*
X144476666Y-140307142D02*
X144429047Y-140354761D01*
X144286190Y-140402380D01*
X144190952Y-140402380D01*
X144048095Y-140354761D01*
X143952857Y-140259523D01*
X143905238Y-140164285D01*
X143857619Y-139973809D01*
X143857619Y-139830952D01*
X143905238Y-139640476D01*
X143952857Y-139545238D01*
X144048095Y-139450000D01*
X144190952Y-139402380D01*
X144286190Y-139402380D01*
X144429047Y-139450000D01*
X144476666Y-139497619D01*
X145333809Y-139735714D02*
X145333809Y-140402380D01*
X145095714Y-139354761D02*
X144857619Y-140069047D01*
X145476666Y-140069047D01*
X146000476Y-139830952D02*
X145905238Y-139783333D01*
X145857619Y-139735714D01*
X145810000Y-139640476D01*
X145810000Y-139592857D01*
X145857619Y-139497619D01*
X145905238Y-139450000D01*
X146000476Y-139402380D01*
X146190952Y-139402380D01*
X146286190Y-139450000D01*
X146333809Y-139497619D01*
X146381428Y-139592857D01*
X146381428Y-139640476D01*
X146333809Y-139735714D01*
X146286190Y-139783333D01*
X146190952Y-139830952D01*
X146000476Y-139830952D01*
X145905238Y-139878571D01*
X145857619Y-139926190D01*
X145810000Y-140021428D01*
X145810000Y-140211904D01*
X145857619Y-140307142D01*
X145905238Y-140354761D01*
X146000476Y-140402380D01*
X146190952Y-140402380D01*
X146286190Y-140354761D01*
X146333809Y-140307142D01*
X146381428Y-140211904D01*
X146381428Y-140021428D01*
X146333809Y-139926190D01*
X146286190Y-139878571D01*
X146190952Y-139830952D01*
X147286190Y-139402380D02*
X146810000Y-139402380D01*
X146762380Y-139878571D01*
X146810000Y-139830952D01*
X146905238Y-139783333D01*
X147143333Y-139783333D01*
X147238571Y-139830952D01*
X147286190Y-139878571D01*
X147333809Y-139973809D01*
X147333809Y-140211904D01*
X147286190Y-140307142D01*
X147238571Y-140354761D01*
X147143333Y-140402380D01*
X146905238Y-140402380D01*
X146810000Y-140354761D01*
X146762380Y-140307142D01*
X139452380Y-148833333D02*
X140166666Y-148833333D01*
X140309523Y-148880952D01*
X140404761Y-148976190D01*
X140452380Y-149119047D01*
X140452380Y-149214285D01*
X139452380Y-147880952D02*
X139452380Y-148357142D01*
X139928571Y-148404761D01*
X139880952Y-148357142D01*
X139833333Y-148261904D01*
X139833333Y-148023809D01*
X139880952Y-147928571D01*
X139928571Y-147880952D01*
X140023809Y-147833333D01*
X140261904Y-147833333D01*
X140357142Y-147880952D01*
X140404761Y-147928571D01*
X140452380Y-148023809D01*
X140452380Y-148261904D01*
X140404761Y-148357142D01*
X140357142Y-148404761D01*
X147452380Y-151214285D02*
X148452380Y-150547619D01*
X147452380Y-150547619D02*
X148452380Y-151214285D01*
X147452380Y-150309523D02*
X147452380Y-149738095D01*
X148452380Y-150023809D02*
X147452380Y-150023809D01*
X147452380Y-149500000D02*
X147452380Y-148880952D01*
X147833333Y-149214285D01*
X147833333Y-149071428D01*
X147880952Y-148976190D01*
X147928571Y-148928571D01*
X148023809Y-148880952D01*
X148261904Y-148880952D01*
X148357142Y-148928571D01*
X148404761Y-148976190D01*
X148452380Y-149071428D01*
X148452380Y-149357142D01*
X148404761Y-149452380D01*
X148357142Y-149500000D01*
X147452380Y-148261904D02*
X147452380Y-148166666D01*
X147500000Y-148071428D01*
X147547619Y-148023809D01*
X147642857Y-147976190D01*
X147833333Y-147928571D01*
X148071428Y-147928571D01*
X148261904Y-147976190D01*
X148357142Y-148023809D01*
X148404761Y-148071428D01*
X148452380Y-148166666D01*
X148452380Y-148261904D01*
X148404761Y-148357142D01*
X148357142Y-148404761D01*
X148261904Y-148452380D01*
X148071428Y-148500000D01*
X147833333Y-148500000D01*
X147642857Y-148452380D01*
X147547619Y-148404761D01*
X147500000Y-148357142D01*
X147452380Y-148261904D01*
X148071428Y-147500000D02*
X148071428Y-146738095D01*
X147928571Y-145928571D02*
X147928571Y-146261904D01*
X148452380Y-146261904D02*
X147452380Y-146261904D01*
X147452380Y-145785714D01*
X144107142Y-155571428D02*
X144107142Y-154428571D01*
X144107142Y-142571428D02*
X144107142Y-141428571D01*
X144678571Y-142000000D02*
X143535714Y-142000000D01*
X155238095Y-128722380D02*
X155238095Y-129531904D01*
X155285714Y-129627142D01*
X155333333Y-129674761D01*
X155428571Y-129722380D01*
X155619047Y-129722380D01*
X155714285Y-129674761D01*
X155761904Y-129627142D01*
X155809523Y-129531904D01*
X155809523Y-128722380D01*
X156809523Y-129722380D02*
X156238095Y-129722380D01*
X156523809Y-129722380D02*
X156523809Y-128722380D01*
X156428571Y-128865238D01*
X156333333Y-128960476D01*
X156238095Y-129008095D01*
X125452380Y-148833333D02*
X126166666Y-148833333D01*
X126309523Y-148880952D01*
X126404761Y-148976190D01*
X126452380Y-149119047D01*
X126452380Y-149214285D01*
X125785714Y-147928571D02*
X126452380Y-147928571D01*
X125404761Y-148166666D02*
X126119047Y-148404761D01*
X126119047Y-147785714D01*
X133452380Y-151357142D02*
X134452380Y-150690476D01*
X133452380Y-150690476D02*
X134452380Y-151357142D01*
X133452380Y-150452380D02*
X133452380Y-149880952D01*
X134452380Y-150166666D02*
X133452380Y-150166666D01*
X133452380Y-149642857D02*
X133452380Y-149023809D01*
X133833333Y-149357142D01*
X133833333Y-149214285D01*
X133880952Y-149119047D01*
X133928571Y-149071428D01*
X134023809Y-149023809D01*
X134261904Y-149023809D01*
X134357142Y-149071428D01*
X134404761Y-149119047D01*
X134452380Y-149214285D01*
X134452380Y-149500000D01*
X134404761Y-149595238D01*
X134357142Y-149642857D01*
X133452380Y-148404761D02*
X133452380Y-148309523D01*
X133500000Y-148214285D01*
X133547619Y-148166666D01*
X133642857Y-148119047D01*
X133833333Y-148071428D01*
X134071428Y-148071428D01*
X134261904Y-148119047D01*
X134357142Y-148166666D01*
X134404761Y-148214285D01*
X134452380Y-148309523D01*
X134452380Y-148404761D01*
X134404761Y-148500000D01*
X134357142Y-148547619D01*
X134261904Y-148595238D01*
X134071428Y-148642857D01*
X133833333Y-148642857D01*
X133642857Y-148595238D01*
X133547619Y-148547619D01*
X133500000Y-148500000D01*
X133452380Y-148404761D01*
X134071428Y-147642857D02*
X134071428Y-146880952D01*
X134452380Y-146404761D02*
X133452380Y-146404761D01*
X134166666Y-146071428D01*
X133452380Y-145738095D01*
X134452380Y-145738095D01*
X130107142Y-155571428D02*
X130107142Y-154428571D01*
X130107142Y-142571428D02*
X130107142Y-141428571D01*
X130678571Y-142000000D02*
X129535714Y-142000000D01*
X118166666Y-132122380D02*
X118166666Y-132836666D01*
X118119047Y-132979523D01*
X118023809Y-133074761D01*
X117880952Y-133122380D01*
X117785714Y-133122380D01*
X118547619Y-132122380D02*
X119166666Y-132122380D01*
X118833333Y-132503333D01*
X118976190Y-132503333D01*
X119071428Y-132550952D01*
X119119047Y-132598571D01*
X119166666Y-132693809D01*
X119166666Y-132931904D01*
X119119047Y-133027142D01*
X119071428Y-133074761D01*
X118976190Y-133122380D01*
X118690476Y-133122380D01*
X118595238Y-133074761D01*
X118547619Y-133027142D01*
X162916666Y-148252380D02*
X162916666Y-148966666D01*
X162869047Y-149109523D01*
X162773809Y-149204761D01*
X162630952Y-149252380D01*
X162535714Y-149252380D01*
X163345238Y-148347619D02*
X163392857Y-148300000D01*
X163488095Y-148252380D01*
X163726190Y-148252380D01*
X163821428Y-148300000D01*
X163869047Y-148347619D01*
X163916666Y-148442857D01*
X163916666Y-148538095D01*
X163869047Y-148680952D01*
X163297619Y-149252380D01*
X163916666Y-149252380D01*
X162916666Y-139252380D02*
X162916666Y-139966666D01*
X162869047Y-140109523D01*
X162773809Y-140204761D01*
X162630952Y-140252380D01*
X162535714Y-140252380D01*
X163916666Y-140252380D02*
X163345238Y-140252380D01*
X163630952Y-140252380D02*
X163630952Y-139252380D01*
X163535714Y-139395238D01*
X163440476Y-139490476D01*
X163345238Y-139538095D01*
D14*
X129435238Y-135574523D02*
X129435238Y-134304523D01*
X130765714Y-135453571D02*
X130705238Y-135514047D01*
X130523809Y-135574523D01*
X130402857Y-135574523D01*
X130221428Y-135514047D01*
X130100476Y-135393095D01*
X130040000Y-135272142D01*
X129979523Y-135030238D01*
X129979523Y-134848809D01*
X130040000Y-134606904D01*
X130100476Y-134485952D01*
X130221428Y-134365000D01*
X130402857Y-134304523D01*
X130523809Y-134304523D01*
X130705238Y-134365000D01*
X130765714Y-134425476D01*
X131249523Y-134425476D02*
X131310000Y-134365000D01*
X131430952Y-134304523D01*
X131733333Y-134304523D01*
X131854285Y-134365000D01*
X131914761Y-134425476D01*
X131975238Y-134546428D01*
X131975238Y-134667380D01*
X131914761Y-134848809D01*
X131189047Y-135574523D01*
X131975238Y-135574523D01*
D11*
X128246428Y-141404761D02*
X128389285Y-141452380D01*
X128627380Y-141452380D01*
X128722619Y-141404761D01*
X128770238Y-141357142D01*
X128817857Y-141261904D01*
X128817857Y-141166666D01*
X128770238Y-141071428D01*
X128722619Y-141023809D01*
X128627380Y-140976190D01*
X128436904Y-140928571D01*
X128341666Y-140880952D01*
X128294047Y-140833333D01*
X128246428Y-140738095D01*
X128246428Y-140642857D01*
X128294047Y-140547619D01*
X128341666Y-140500000D01*
X128436904Y-140452380D01*
X128675000Y-140452380D01*
X128817857Y-140500000D01*
X129246428Y-141452380D02*
X129246428Y-140785714D01*
X129246428Y-140452380D02*
X129198809Y-140500000D01*
X129246428Y-140547619D01*
X129294047Y-140500000D01*
X129246428Y-140452380D01*
X129246428Y-140547619D01*
X129865476Y-140880952D02*
X129770238Y-140833333D01*
X129722619Y-140785714D01*
X129675000Y-140690476D01*
X129675000Y-140642857D01*
X129722619Y-140547619D01*
X129770238Y-140500000D01*
X129865476Y-140452380D01*
X130055952Y-140452380D01*
X130151190Y-140500000D01*
X130198809Y-140547619D01*
X130246428Y-140642857D01*
X130246428Y-140690476D01*
X130198809Y-140785714D01*
X130151190Y-140833333D01*
X130055952Y-140880952D01*
X129865476Y-140880952D01*
X129770238Y-140928571D01*
X129722619Y-140976190D01*
X129675000Y-141071428D01*
X129675000Y-141261904D01*
X129722619Y-141357142D01*
X129770238Y-141404761D01*
X129865476Y-141452380D01*
X130055952Y-141452380D01*
X130151190Y-141404761D01*
X130198809Y-141357142D01*
X130246428Y-141261904D01*
X130246428Y-141071428D01*
X130198809Y-140976190D01*
X130151190Y-140928571D01*
X130055952Y-140880952D01*
X131103571Y-140452380D02*
X130913095Y-140452380D01*
X130817857Y-140500000D01*
X130770238Y-140547619D01*
X130675000Y-140690476D01*
X130627380Y-140880952D01*
X130627380Y-141261904D01*
X130675000Y-141357142D01*
X130722619Y-141404761D01*
X130817857Y-141452380D01*
X131008333Y-141452380D01*
X131103571Y-141404761D01*
X131151190Y-141357142D01*
X131198809Y-141261904D01*
X131198809Y-141023809D01*
X131151190Y-140928571D01*
X131103571Y-140880952D01*
X131008333Y-140833333D01*
X130817857Y-140833333D01*
X130722619Y-140880952D01*
X130675000Y-140928571D01*
X130627380Y-141023809D01*
X131532142Y-140452380D02*
X132151190Y-140452380D01*
X131817857Y-140833333D01*
X131960714Y-140833333D01*
X132055952Y-140880952D01*
X132103571Y-140928571D01*
X132151190Y-141023809D01*
X132151190Y-141261904D01*
X132103571Y-141357142D01*
X132055952Y-141404761D01*
X131960714Y-141452380D01*
X131675000Y-141452380D01*
X131579761Y-141404761D01*
X131532142Y-141357142D01*
X133103571Y-141452380D02*
X132532142Y-141452380D01*
X132817857Y-141452380D02*
X132817857Y-140452380D01*
X132722619Y-140595238D01*
X132627380Y-140690476D01*
X132532142Y-140738095D01*
%LPC*%
D15*
X168000000Y-61000000D03*
X168000000Y-94000000D03*
X168000000Y-86000000D03*
X168000000Y-119000000D03*
D16*
X135460000Y-60000000D03*
D17*
X138000000Y-60000000D03*
D16*
X135460000Y-93000000D03*
D17*
X138000000Y-93000000D03*
D18*
G36*
X123105505Y-63875311D02*
G01*
X123131925Y-63879230D01*
X123157835Y-63885720D01*
X123182983Y-63894718D01*
X123207128Y-63906138D01*
X123230038Y-63919869D01*
X123251492Y-63935780D01*
X123271282Y-63953718D01*
X123289220Y-63973508D01*
X123305131Y-63994962D01*
X123318862Y-64017872D01*
X123330282Y-64042017D01*
X123339280Y-64067165D01*
X123345770Y-64093075D01*
X123349689Y-64119495D01*
X123351000Y-64146173D01*
X123351000Y-64853827D01*
X123349689Y-64880505D01*
X123345770Y-64906925D01*
X123339280Y-64932835D01*
X123330282Y-64957983D01*
X123318862Y-64982128D01*
X123305131Y-65005038D01*
X123289220Y-65026492D01*
X123271282Y-65046282D01*
X123251492Y-65064220D01*
X123230038Y-65080131D01*
X123207128Y-65093862D01*
X123182983Y-65105282D01*
X123157835Y-65114280D01*
X123131925Y-65120770D01*
X123105505Y-65124689D01*
X123078827Y-65126000D01*
X122121173Y-65126000D01*
X122094495Y-65124689D01*
X122068075Y-65120770D01*
X122042165Y-65114280D01*
X122017017Y-65105282D01*
X121992872Y-65093862D01*
X121969962Y-65080131D01*
X121948508Y-65064220D01*
X121928718Y-65046282D01*
X121910780Y-65026492D01*
X121894869Y-65005038D01*
X121881138Y-64982128D01*
X121869718Y-64957983D01*
X121860720Y-64932835D01*
X121854230Y-64906925D01*
X121850311Y-64880505D01*
X121849000Y-64853827D01*
X121849000Y-64146173D01*
X121850311Y-64119495D01*
X121854230Y-64093075D01*
X121860720Y-64067165D01*
X121869718Y-64042017D01*
X121881138Y-64017872D01*
X121894869Y-63994962D01*
X121910780Y-63973508D01*
X121928718Y-63953718D01*
X121948508Y-63935780D01*
X121969962Y-63919869D01*
X121992872Y-63906138D01*
X122017017Y-63894718D01*
X122042165Y-63885720D01*
X122068075Y-63879230D01*
X122094495Y-63875311D01*
X122121173Y-63874000D01*
X123078827Y-63874000D01*
X123105505Y-63875311D01*
G37*
G36*
X123105505Y-65925311D02*
G01*
X123131925Y-65929230D01*
X123157835Y-65935720D01*
X123182983Y-65944718D01*
X123207128Y-65956138D01*
X123230038Y-65969869D01*
X123251492Y-65985780D01*
X123271282Y-66003718D01*
X123289220Y-66023508D01*
X123305131Y-66044962D01*
X123318862Y-66067872D01*
X123330282Y-66092017D01*
X123339280Y-66117165D01*
X123345770Y-66143075D01*
X123349689Y-66169495D01*
X123351000Y-66196173D01*
X123351000Y-66903827D01*
X123349689Y-66930505D01*
X123345770Y-66956925D01*
X123339280Y-66982835D01*
X123330282Y-67007983D01*
X123318862Y-67032128D01*
X123305131Y-67055038D01*
X123289220Y-67076492D01*
X123271282Y-67096282D01*
X123251492Y-67114220D01*
X123230038Y-67130131D01*
X123207128Y-67143862D01*
X123182983Y-67155282D01*
X123157835Y-67164280D01*
X123131925Y-67170770D01*
X123105505Y-67174689D01*
X123078827Y-67176000D01*
X122121173Y-67176000D01*
X122094495Y-67174689D01*
X122068075Y-67170770D01*
X122042165Y-67164280D01*
X122017017Y-67155282D01*
X121992872Y-67143862D01*
X121969962Y-67130131D01*
X121948508Y-67114220D01*
X121928718Y-67096282D01*
X121910780Y-67076492D01*
X121894869Y-67055038D01*
X121881138Y-67032128D01*
X121869718Y-67007983D01*
X121860720Y-66982835D01*
X121854230Y-66956925D01*
X121850311Y-66930505D01*
X121849000Y-66903827D01*
X121849000Y-66196173D01*
X121850311Y-66169495D01*
X121854230Y-66143075D01*
X121860720Y-66117165D01*
X121869718Y-66092017D01*
X121881138Y-66067872D01*
X121894869Y-66044962D01*
X121910780Y-66023508D01*
X121928718Y-66003718D01*
X121948508Y-65985780D01*
X121969962Y-65969869D01*
X121992872Y-65956138D01*
X122017017Y-65944718D01*
X122042165Y-65935720D01*
X122068075Y-65929230D01*
X122094495Y-65925311D01*
X122121173Y-65924000D01*
X123078827Y-65924000D01*
X123105505Y-65925311D01*
G37*
G36*
X123105505Y-96875311D02*
G01*
X123131925Y-96879230D01*
X123157835Y-96885720D01*
X123182983Y-96894718D01*
X123207128Y-96906138D01*
X123230038Y-96919869D01*
X123251492Y-96935780D01*
X123271282Y-96953718D01*
X123289220Y-96973508D01*
X123305131Y-96994962D01*
X123318862Y-97017872D01*
X123330282Y-97042017D01*
X123339280Y-97067165D01*
X123345770Y-97093075D01*
X123349689Y-97119495D01*
X123351000Y-97146173D01*
X123351000Y-97853827D01*
X123349689Y-97880505D01*
X123345770Y-97906925D01*
X123339280Y-97932835D01*
X123330282Y-97957983D01*
X123318862Y-97982128D01*
X123305131Y-98005038D01*
X123289220Y-98026492D01*
X123271282Y-98046282D01*
X123251492Y-98064220D01*
X123230038Y-98080131D01*
X123207128Y-98093862D01*
X123182983Y-98105282D01*
X123157835Y-98114280D01*
X123131925Y-98120770D01*
X123105505Y-98124689D01*
X123078827Y-98126000D01*
X122121173Y-98126000D01*
X122094495Y-98124689D01*
X122068075Y-98120770D01*
X122042165Y-98114280D01*
X122017017Y-98105282D01*
X121992872Y-98093862D01*
X121969962Y-98080131D01*
X121948508Y-98064220D01*
X121928718Y-98046282D01*
X121910780Y-98026492D01*
X121894869Y-98005038D01*
X121881138Y-97982128D01*
X121869718Y-97957983D01*
X121860720Y-97932835D01*
X121854230Y-97906925D01*
X121850311Y-97880505D01*
X121849000Y-97853827D01*
X121849000Y-97146173D01*
X121850311Y-97119495D01*
X121854230Y-97093075D01*
X121860720Y-97067165D01*
X121869718Y-97042017D01*
X121881138Y-97017872D01*
X121894869Y-96994962D01*
X121910780Y-96973508D01*
X121928718Y-96953718D01*
X121948508Y-96935780D01*
X121969962Y-96919869D01*
X121992872Y-96906138D01*
X122017017Y-96894718D01*
X122042165Y-96885720D01*
X122068075Y-96879230D01*
X122094495Y-96875311D01*
X122121173Y-96874000D01*
X123078827Y-96874000D01*
X123105505Y-96875311D01*
G37*
G36*
X123105505Y-98925311D02*
G01*
X123131925Y-98929230D01*
X123157835Y-98935720D01*
X123182983Y-98944718D01*
X123207128Y-98956138D01*
X123230038Y-98969869D01*
X123251492Y-98985780D01*
X123271282Y-99003718D01*
X123289220Y-99023508D01*
X123305131Y-99044962D01*
X123318862Y-99067872D01*
X123330282Y-99092017D01*
X123339280Y-99117165D01*
X123345770Y-99143075D01*
X123349689Y-99169495D01*
X123351000Y-99196173D01*
X123351000Y-99903827D01*
X123349689Y-99930505D01*
X123345770Y-99956925D01*
X123339280Y-99982835D01*
X123330282Y-100007983D01*
X123318862Y-100032128D01*
X123305131Y-100055038D01*
X123289220Y-100076492D01*
X123271282Y-100096282D01*
X123251492Y-100114220D01*
X123230038Y-100130131D01*
X123207128Y-100143862D01*
X123182983Y-100155282D01*
X123157835Y-100164280D01*
X123131925Y-100170770D01*
X123105505Y-100174689D01*
X123078827Y-100176000D01*
X122121173Y-100176000D01*
X122094495Y-100174689D01*
X122068075Y-100170770D01*
X122042165Y-100164280D01*
X122017017Y-100155282D01*
X121992872Y-100143862D01*
X121969962Y-100130131D01*
X121948508Y-100114220D01*
X121928718Y-100096282D01*
X121910780Y-100076492D01*
X121894869Y-100055038D01*
X121881138Y-100032128D01*
X121869718Y-100007983D01*
X121860720Y-99982835D01*
X121854230Y-99956925D01*
X121850311Y-99930505D01*
X121849000Y-99903827D01*
X121849000Y-99196173D01*
X121850311Y-99169495D01*
X121854230Y-99143075D01*
X121860720Y-99117165D01*
X121869718Y-99092017D01*
X121881138Y-99067872D01*
X121894869Y-99044962D01*
X121910780Y-99023508D01*
X121928718Y-99003718D01*
X121948508Y-98985780D01*
X121969962Y-98969869D01*
X121992872Y-98956138D01*
X122017017Y-98944718D01*
X122042165Y-98935720D01*
X122068075Y-98929230D01*
X122094495Y-98925311D01*
X122121173Y-98924000D01*
X123078827Y-98924000D01*
X123105505Y-98925311D01*
G37*
G36*
X149230505Y-58950311D02*
G01*
X149256925Y-58954230D01*
X149282835Y-58960720D01*
X149307983Y-58969718D01*
X149332128Y-58981138D01*
X149355038Y-58994869D01*
X149376492Y-59010780D01*
X149396282Y-59028718D01*
X149414220Y-59048508D01*
X149430131Y-59069962D01*
X149443862Y-59092872D01*
X149455282Y-59117017D01*
X149464280Y-59142165D01*
X149470770Y-59168075D01*
X149474689Y-59194495D01*
X149476000Y-59221173D01*
X149476000Y-60178827D01*
X149474689Y-60205505D01*
X149470770Y-60231925D01*
X149464280Y-60257835D01*
X149455282Y-60282983D01*
X149443862Y-60307128D01*
X149430131Y-60330038D01*
X149414220Y-60351492D01*
X149396282Y-60371282D01*
X149376492Y-60389220D01*
X149355038Y-60405131D01*
X149332128Y-60418862D01*
X149307983Y-60430282D01*
X149282835Y-60439280D01*
X149256925Y-60445770D01*
X149230505Y-60449689D01*
X149203827Y-60451000D01*
X148496173Y-60451000D01*
X148469495Y-60449689D01*
X148443075Y-60445770D01*
X148417165Y-60439280D01*
X148392017Y-60430282D01*
X148367872Y-60418862D01*
X148344962Y-60405131D01*
X148323508Y-60389220D01*
X148303718Y-60371282D01*
X148285780Y-60351492D01*
X148269869Y-60330038D01*
X148256138Y-60307128D01*
X148244718Y-60282983D01*
X148235720Y-60257835D01*
X148229230Y-60231925D01*
X148225311Y-60205505D01*
X148224000Y-60178827D01*
X148224000Y-59221173D01*
X148225311Y-59194495D01*
X148229230Y-59168075D01*
X148235720Y-59142165D01*
X148244718Y-59117017D01*
X148256138Y-59092872D01*
X148269869Y-59069962D01*
X148285780Y-59048508D01*
X148303718Y-59028718D01*
X148323508Y-59010780D01*
X148344962Y-58994869D01*
X148367872Y-58981138D01*
X148392017Y-58969718D01*
X148417165Y-58960720D01*
X148443075Y-58954230D01*
X148469495Y-58950311D01*
X148496173Y-58949000D01*
X149203827Y-58949000D01*
X149230505Y-58950311D01*
G37*
G36*
X147180505Y-58950311D02*
G01*
X147206925Y-58954230D01*
X147232835Y-58960720D01*
X147257983Y-58969718D01*
X147282128Y-58981138D01*
X147305038Y-58994869D01*
X147326492Y-59010780D01*
X147346282Y-59028718D01*
X147364220Y-59048508D01*
X147380131Y-59069962D01*
X147393862Y-59092872D01*
X147405282Y-59117017D01*
X147414280Y-59142165D01*
X147420770Y-59168075D01*
X147424689Y-59194495D01*
X147426000Y-59221173D01*
X147426000Y-60178827D01*
X147424689Y-60205505D01*
X147420770Y-60231925D01*
X147414280Y-60257835D01*
X147405282Y-60282983D01*
X147393862Y-60307128D01*
X147380131Y-60330038D01*
X147364220Y-60351492D01*
X147346282Y-60371282D01*
X147326492Y-60389220D01*
X147305038Y-60405131D01*
X147282128Y-60418862D01*
X147257983Y-60430282D01*
X147232835Y-60439280D01*
X147206925Y-60445770D01*
X147180505Y-60449689D01*
X147153827Y-60451000D01*
X146446173Y-60451000D01*
X146419495Y-60449689D01*
X146393075Y-60445770D01*
X146367165Y-60439280D01*
X146342017Y-60430282D01*
X146317872Y-60418862D01*
X146294962Y-60405131D01*
X146273508Y-60389220D01*
X146253718Y-60371282D01*
X146235780Y-60351492D01*
X146219869Y-60330038D01*
X146206138Y-60307128D01*
X146194718Y-60282983D01*
X146185720Y-60257835D01*
X146179230Y-60231925D01*
X146175311Y-60205505D01*
X146174000Y-60178827D01*
X146174000Y-59221173D01*
X146175311Y-59194495D01*
X146179230Y-59168075D01*
X146185720Y-59142165D01*
X146194718Y-59117017D01*
X146206138Y-59092872D01*
X146219869Y-59069962D01*
X146235780Y-59048508D01*
X146253718Y-59028718D01*
X146273508Y-59010780D01*
X146294962Y-58994869D01*
X146317872Y-58981138D01*
X146342017Y-58969718D01*
X146367165Y-58960720D01*
X146393075Y-58954230D01*
X146419495Y-58950311D01*
X146446173Y-58949000D01*
X147153827Y-58949000D01*
X147180505Y-58950311D01*
G37*
G36*
X149230505Y-91950311D02*
G01*
X149256925Y-91954230D01*
X149282835Y-91960720D01*
X149307983Y-91969718D01*
X149332128Y-91981138D01*
X149355038Y-91994869D01*
X149376492Y-92010780D01*
X149396282Y-92028718D01*
X149414220Y-92048508D01*
X149430131Y-92069962D01*
X149443862Y-92092872D01*
X149455282Y-92117017D01*
X149464280Y-92142165D01*
X149470770Y-92168075D01*
X149474689Y-92194495D01*
X149476000Y-92221173D01*
X149476000Y-93178827D01*
X149474689Y-93205505D01*
X149470770Y-93231925D01*
X149464280Y-93257835D01*
X149455282Y-93282983D01*
X149443862Y-93307128D01*
X149430131Y-93330038D01*
X149414220Y-93351492D01*
X149396282Y-93371282D01*
X149376492Y-93389220D01*
X149355038Y-93405131D01*
X149332128Y-93418862D01*
X149307983Y-93430282D01*
X149282835Y-93439280D01*
X149256925Y-93445770D01*
X149230505Y-93449689D01*
X149203827Y-93451000D01*
X148496173Y-93451000D01*
X148469495Y-93449689D01*
X148443075Y-93445770D01*
X148417165Y-93439280D01*
X148392017Y-93430282D01*
X148367872Y-93418862D01*
X148344962Y-93405131D01*
X148323508Y-93389220D01*
X148303718Y-93371282D01*
X148285780Y-93351492D01*
X148269869Y-93330038D01*
X148256138Y-93307128D01*
X148244718Y-93282983D01*
X148235720Y-93257835D01*
X148229230Y-93231925D01*
X148225311Y-93205505D01*
X148224000Y-93178827D01*
X148224000Y-92221173D01*
X148225311Y-92194495D01*
X148229230Y-92168075D01*
X148235720Y-92142165D01*
X148244718Y-92117017D01*
X148256138Y-92092872D01*
X148269869Y-92069962D01*
X148285780Y-92048508D01*
X148303718Y-92028718D01*
X148323508Y-92010780D01*
X148344962Y-91994869D01*
X148367872Y-91981138D01*
X148392017Y-91969718D01*
X148417165Y-91960720D01*
X148443075Y-91954230D01*
X148469495Y-91950311D01*
X148496173Y-91949000D01*
X149203827Y-91949000D01*
X149230505Y-91950311D01*
G37*
G36*
X147180505Y-91950311D02*
G01*
X147206925Y-91954230D01*
X147232835Y-91960720D01*
X147257983Y-91969718D01*
X147282128Y-91981138D01*
X147305038Y-91994869D01*
X147326492Y-92010780D01*
X147346282Y-92028718D01*
X147364220Y-92048508D01*
X147380131Y-92069962D01*
X147393862Y-92092872D01*
X147405282Y-92117017D01*
X147414280Y-92142165D01*
X147420770Y-92168075D01*
X147424689Y-92194495D01*
X147426000Y-92221173D01*
X147426000Y-93178827D01*
X147424689Y-93205505D01*
X147420770Y-93231925D01*
X147414280Y-93257835D01*
X147405282Y-93282983D01*
X147393862Y-93307128D01*
X147380131Y-93330038D01*
X147364220Y-93351492D01*
X147346282Y-93371282D01*
X147326492Y-93389220D01*
X147305038Y-93405131D01*
X147282128Y-93418862D01*
X147257983Y-93430282D01*
X147232835Y-93439280D01*
X147206925Y-93445770D01*
X147180505Y-93449689D01*
X147153827Y-93451000D01*
X146446173Y-93451000D01*
X146419495Y-93449689D01*
X146393075Y-93445770D01*
X146367165Y-93439280D01*
X146342017Y-93430282D01*
X146317872Y-93418862D01*
X146294962Y-93405131D01*
X146273508Y-93389220D01*
X146253718Y-93371282D01*
X146235780Y-93351492D01*
X146219869Y-93330038D01*
X146206138Y-93307128D01*
X146194718Y-93282983D01*
X146185720Y-93257835D01*
X146179230Y-93231925D01*
X146175311Y-93205505D01*
X146174000Y-93178827D01*
X146174000Y-92221173D01*
X146175311Y-92194495D01*
X146179230Y-92168075D01*
X146185720Y-92142165D01*
X146194718Y-92117017D01*
X146206138Y-92092872D01*
X146219869Y-92069962D01*
X146235780Y-92048508D01*
X146253718Y-92028718D01*
X146273508Y-92010780D01*
X146294962Y-91994869D01*
X146317872Y-91981138D01*
X146342017Y-91969718D01*
X146367165Y-91960720D01*
X146393075Y-91954230D01*
X146419495Y-91950311D01*
X146446173Y-91949000D01*
X147153827Y-91949000D01*
X147180505Y-91950311D01*
G37*
D15*
X119000000Y-86000000D03*
X119000000Y-119000000D03*
D18*
G36*
X162305505Y-64050311D02*
G01*
X162331925Y-64054230D01*
X162357835Y-64060720D01*
X162382983Y-64069718D01*
X162407128Y-64081138D01*
X162430038Y-64094869D01*
X162451492Y-64110780D01*
X162471282Y-64128718D01*
X162489220Y-64148508D01*
X162505131Y-64169962D01*
X162518862Y-64192872D01*
X162530282Y-64217017D01*
X162539280Y-64242165D01*
X162545770Y-64268075D01*
X162549689Y-64294495D01*
X162551000Y-64321173D01*
X162551000Y-65278827D01*
X162549689Y-65305505D01*
X162545770Y-65331925D01*
X162539280Y-65357835D01*
X162530282Y-65382983D01*
X162518862Y-65407128D01*
X162505131Y-65430038D01*
X162489220Y-65451492D01*
X162471282Y-65471282D01*
X162451492Y-65489220D01*
X162430038Y-65505131D01*
X162407128Y-65518862D01*
X162382983Y-65530282D01*
X162357835Y-65539280D01*
X162331925Y-65545770D01*
X162305505Y-65549689D01*
X162278827Y-65551000D01*
X161571173Y-65551000D01*
X161544495Y-65549689D01*
X161518075Y-65545770D01*
X161492165Y-65539280D01*
X161467017Y-65530282D01*
X161442872Y-65518862D01*
X161419962Y-65505131D01*
X161398508Y-65489220D01*
X161378718Y-65471282D01*
X161360780Y-65451492D01*
X161344869Y-65430038D01*
X161331138Y-65407128D01*
X161319718Y-65382983D01*
X161310720Y-65357835D01*
X161304230Y-65331925D01*
X161300311Y-65305505D01*
X161299000Y-65278827D01*
X161299000Y-64321173D01*
X161300311Y-64294495D01*
X161304230Y-64268075D01*
X161310720Y-64242165D01*
X161319718Y-64217017D01*
X161331138Y-64192872D01*
X161344869Y-64169962D01*
X161360780Y-64148508D01*
X161378718Y-64128718D01*
X161398508Y-64110780D01*
X161419962Y-64094869D01*
X161442872Y-64081138D01*
X161467017Y-64069718D01*
X161492165Y-64060720D01*
X161518075Y-64054230D01*
X161544495Y-64050311D01*
X161571173Y-64049000D01*
X162278827Y-64049000D01*
X162305505Y-64050311D01*
G37*
G36*
X160255505Y-64050311D02*
G01*
X160281925Y-64054230D01*
X160307835Y-64060720D01*
X160332983Y-64069718D01*
X160357128Y-64081138D01*
X160380038Y-64094869D01*
X160401492Y-64110780D01*
X160421282Y-64128718D01*
X160439220Y-64148508D01*
X160455131Y-64169962D01*
X160468862Y-64192872D01*
X160480282Y-64217017D01*
X160489280Y-64242165D01*
X160495770Y-64268075D01*
X160499689Y-64294495D01*
X160501000Y-64321173D01*
X160501000Y-65278827D01*
X160499689Y-65305505D01*
X160495770Y-65331925D01*
X160489280Y-65357835D01*
X160480282Y-65382983D01*
X160468862Y-65407128D01*
X160455131Y-65430038D01*
X160439220Y-65451492D01*
X160421282Y-65471282D01*
X160401492Y-65489220D01*
X160380038Y-65505131D01*
X160357128Y-65518862D01*
X160332983Y-65530282D01*
X160307835Y-65539280D01*
X160281925Y-65545770D01*
X160255505Y-65549689D01*
X160228827Y-65551000D01*
X159521173Y-65551000D01*
X159494495Y-65549689D01*
X159468075Y-65545770D01*
X159442165Y-65539280D01*
X159417017Y-65530282D01*
X159392872Y-65518862D01*
X159369962Y-65505131D01*
X159348508Y-65489220D01*
X159328718Y-65471282D01*
X159310780Y-65451492D01*
X159294869Y-65430038D01*
X159281138Y-65407128D01*
X159269718Y-65382983D01*
X159260720Y-65357835D01*
X159254230Y-65331925D01*
X159250311Y-65305505D01*
X159249000Y-65278827D01*
X159249000Y-64321173D01*
X159250311Y-64294495D01*
X159254230Y-64268075D01*
X159260720Y-64242165D01*
X159269718Y-64217017D01*
X159281138Y-64192872D01*
X159294869Y-64169962D01*
X159310780Y-64148508D01*
X159328718Y-64128718D01*
X159348508Y-64110780D01*
X159369962Y-64094869D01*
X159392872Y-64081138D01*
X159417017Y-64069718D01*
X159442165Y-64060720D01*
X159468075Y-64054230D01*
X159494495Y-64050311D01*
X159521173Y-64049000D01*
X160228827Y-64049000D01*
X160255505Y-64050311D01*
G37*
G36*
X162305505Y-97050311D02*
G01*
X162331925Y-97054230D01*
X162357835Y-97060720D01*
X162382983Y-97069718D01*
X162407128Y-97081138D01*
X162430038Y-97094869D01*
X162451492Y-97110780D01*
X162471282Y-97128718D01*
X162489220Y-97148508D01*
X162505131Y-97169962D01*
X162518862Y-97192872D01*
X162530282Y-97217017D01*
X162539280Y-97242165D01*
X162545770Y-97268075D01*
X162549689Y-97294495D01*
X162551000Y-97321173D01*
X162551000Y-98278827D01*
X162549689Y-98305505D01*
X162545770Y-98331925D01*
X162539280Y-98357835D01*
X162530282Y-98382983D01*
X162518862Y-98407128D01*
X162505131Y-98430038D01*
X162489220Y-98451492D01*
X162471282Y-98471282D01*
X162451492Y-98489220D01*
X162430038Y-98505131D01*
X162407128Y-98518862D01*
X162382983Y-98530282D01*
X162357835Y-98539280D01*
X162331925Y-98545770D01*
X162305505Y-98549689D01*
X162278827Y-98551000D01*
X161571173Y-98551000D01*
X161544495Y-98549689D01*
X161518075Y-98545770D01*
X161492165Y-98539280D01*
X161467017Y-98530282D01*
X161442872Y-98518862D01*
X161419962Y-98505131D01*
X161398508Y-98489220D01*
X161378718Y-98471282D01*
X161360780Y-98451492D01*
X161344869Y-98430038D01*
X161331138Y-98407128D01*
X161319718Y-98382983D01*
X161310720Y-98357835D01*
X161304230Y-98331925D01*
X161300311Y-98305505D01*
X161299000Y-98278827D01*
X161299000Y-97321173D01*
X161300311Y-97294495D01*
X161304230Y-97268075D01*
X161310720Y-97242165D01*
X161319718Y-97217017D01*
X161331138Y-97192872D01*
X161344869Y-97169962D01*
X161360780Y-97148508D01*
X161378718Y-97128718D01*
X161398508Y-97110780D01*
X161419962Y-97094869D01*
X161442872Y-97081138D01*
X161467017Y-97069718D01*
X161492165Y-97060720D01*
X161518075Y-97054230D01*
X161544495Y-97050311D01*
X161571173Y-97049000D01*
X162278827Y-97049000D01*
X162305505Y-97050311D01*
G37*
G36*
X160255505Y-97050311D02*
G01*
X160281925Y-97054230D01*
X160307835Y-97060720D01*
X160332983Y-97069718D01*
X160357128Y-97081138D01*
X160380038Y-97094869D01*
X160401492Y-97110780D01*
X160421282Y-97128718D01*
X160439220Y-97148508D01*
X160455131Y-97169962D01*
X160468862Y-97192872D01*
X160480282Y-97217017D01*
X160489280Y-97242165D01*
X160495770Y-97268075D01*
X160499689Y-97294495D01*
X160501000Y-97321173D01*
X160501000Y-98278827D01*
X160499689Y-98305505D01*
X160495770Y-98331925D01*
X160489280Y-98357835D01*
X160480282Y-98382983D01*
X160468862Y-98407128D01*
X160455131Y-98430038D01*
X160439220Y-98451492D01*
X160421282Y-98471282D01*
X160401492Y-98489220D01*
X160380038Y-98505131D01*
X160357128Y-98518862D01*
X160332983Y-98530282D01*
X160307835Y-98539280D01*
X160281925Y-98545770D01*
X160255505Y-98549689D01*
X160228827Y-98551000D01*
X159521173Y-98551000D01*
X159494495Y-98549689D01*
X159468075Y-98545770D01*
X159442165Y-98539280D01*
X159417017Y-98530282D01*
X159392872Y-98518862D01*
X159369962Y-98505131D01*
X159348508Y-98489220D01*
X159328718Y-98471282D01*
X159310780Y-98451492D01*
X159294869Y-98430038D01*
X159281138Y-98407128D01*
X159269718Y-98382983D01*
X159260720Y-98357835D01*
X159254230Y-98331925D01*
X159250311Y-98305505D01*
X159249000Y-98278827D01*
X159249000Y-97321173D01*
X159250311Y-97294495D01*
X159254230Y-97268075D01*
X159260720Y-97242165D01*
X159269718Y-97217017D01*
X159281138Y-97192872D01*
X159294869Y-97169962D01*
X159310780Y-97148508D01*
X159328718Y-97128718D01*
X159348508Y-97110780D01*
X159369962Y-97094869D01*
X159392872Y-97081138D01*
X159417017Y-97069718D01*
X159442165Y-97060720D01*
X159468075Y-97054230D01*
X159494495Y-97050311D01*
X159521173Y-97049000D01*
X160228827Y-97049000D01*
X160255505Y-97050311D01*
G37*
D15*
X119000000Y-61000000D03*
X119000000Y-94000000D03*
D16*
X118500000Y-69000000D03*
D17*
X118500000Y-71540000D03*
X118500000Y-74080000D03*
X118500000Y-76620000D03*
X118500000Y-79160000D03*
D16*
X118500000Y-102000000D03*
D17*
X118500000Y-104540000D03*
X118500000Y-107080000D03*
X118500000Y-109620000D03*
X118500000Y-112160000D03*
D19*
X130000000Y-85000000D03*
D20*
X130000000Y-80000000D03*
D19*
X130000000Y-118000000D03*
D20*
X130000000Y-113000000D03*
D21*
X141000000Y-64000000D03*
D22*
X148620000Y-71620000D03*
X141000000Y-66540000D03*
X148620000Y-69080000D03*
X141000000Y-69080000D03*
X148620000Y-66540000D03*
X141000000Y-71620000D03*
X148620000Y-64000000D03*
D21*
X141000000Y-97000000D03*
D22*
X148620000Y-104620000D03*
X141000000Y-99540000D03*
X148620000Y-102080000D03*
X141000000Y-102080000D03*
X148620000Y-99540000D03*
X141000000Y-104620000D03*
X148620000Y-97000000D03*
D23*
X126000000Y-64555000D03*
X126000000Y-65825000D03*
X126000000Y-67095000D03*
X126000000Y-68365000D03*
X126000000Y-69635000D03*
X126000000Y-70905000D03*
X126000000Y-72175000D03*
X126000000Y-73445000D03*
X135350000Y-73445000D03*
X135350000Y-72175000D03*
X135350000Y-70905000D03*
X135350000Y-69635000D03*
X135350000Y-68365000D03*
X135350000Y-67095000D03*
X135350000Y-65825000D03*
X135350000Y-64555000D03*
X126000000Y-97555000D03*
X126000000Y-98825000D03*
X126000000Y-100095000D03*
X126000000Y-101365000D03*
X126000000Y-102635000D03*
X126000000Y-103905000D03*
X126000000Y-105175000D03*
X126000000Y-106445000D03*
X135350000Y-106445000D03*
X135350000Y-105175000D03*
X135350000Y-103905000D03*
X135350000Y-102635000D03*
X135350000Y-101365000D03*
X135350000Y-100095000D03*
X135350000Y-98825000D03*
X135350000Y-97555000D03*
D18*
G36*
X167661975Y-78975276D02*
G01*
X167687699Y-78979092D01*
X167712925Y-78985411D01*
X167737411Y-78994172D01*
X167760920Y-79005291D01*
X167783226Y-79018661D01*
X167804114Y-79034152D01*
X167823383Y-79051617D01*
X167840848Y-79070886D01*
X167856339Y-79091774D01*
X167869709Y-79114080D01*
X167880828Y-79137589D01*
X167889589Y-79162075D01*
X167895908Y-79187301D01*
X167899724Y-79213025D01*
X167901000Y-79239000D01*
X167901000Y-80761000D01*
X167899724Y-80786975D01*
X167895908Y-80812699D01*
X167889589Y-80837925D01*
X167880828Y-80862411D01*
X167869709Y-80885920D01*
X167856339Y-80908226D01*
X167840848Y-80929114D01*
X167823383Y-80948383D01*
X167804114Y-80965848D01*
X167783226Y-80981339D01*
X167760920Y-80994709D01*
X167737411Y-81005828D01*
X167712925Y-81014589D01*
X167687699Y-81020908D01*
X167661975Y-81024724D01*
X167636000Y-81026000D01*
X166364000Y-81026000D01*
X166338025Y-81024724D01*
X166312301Y-81020908D01*
X166287075Y-81014589D01*
X166262589Y-81005828D01*
X166239080Y-80994709D01*
X166216774Y-80981339D01*
X166195886Y-80965848D01*
X166176617Y-80948383D01*
X166159152Y-80929114D01*
X166143661Y-80908226D01*
X166130291Y-80885920D01*
X166119172Y-80862411D01*
X166110411Y-80837925D01*
X166104092Y-80812699D01*
X166100276Y-80786975D01*
X166099000Y-80761000D01*
X166099000Y-79239000D01*
X166100276Y-79213025D01*
X166104092Y-79187301D01*
X166110411Y-79162075D01*
X166119172Y-79137589D01*
X166130291Y-79114080D01*
X166143661Y-79091774D01*
X166159152Y-79070886D01*
X166176617Y-79051617D01*
X166195886Y-79034152D01*
X166216774Y-79018661D01*
X166239080Y-79005291D01*
X166262589Y-78994172D01*
X166287075Y-78985411D01*
X166312301Y-78979092D01*
X166338025Y-78975276D01*
X166364000Y-78974000D01*
X167636000Y-78974000D01*
X167661975Y-78975276D01*
G37*
D24*
X164500000Y-80000000D03*
X162000000Y-80000000D03*
X159500000Y-80000000D03*
D18*
G36*
X167661975Y-111975276D02*
G01*
X167687699Y-111979092D01*
X167712925Y-111985411D01*
X167737411Y-111994172D01*
X167760920Y-112005291D01*
X167783226Y-112018661D01*
X167804114Y-112034152D01*
X167823383Y-112051617D01*
X167840848Y-112070886D01*
X167856339Y-112091774D01*
X167869709Y-112114080D01*
X167880828Y-112137589D01*
X167889589Y-112162075D01*
X167895908Y-112187301D01*
X167899724Y-112213025D01*
X167901000Y-112239000D01*
X167901000Y-113761000D01*
X167899724Y-113786975D01*
X167895908Y-113812699D01*
X167889589Y-113837925D01*
X167880828Y-113862411D01*
X167869709Y-113885920D01*
X167856339Y-113908226D01*
X167840848Y-113929114D01*
X167823383Y-113948383D01*
X167804114Y-113965848D01*
X167783226Y-113981339D01*
X167760920Y-113994709D01*
X167737411Y-114005828D01*
X167712925Y-114014589D01*
X167687699Y-114020908D01*
X167661975Y-114024724D01*
X167636000Y-114026000D01*
X166364000Y-114026000D01*
X166338025Y-114024724D01*
X166312301Y-114020908D01*
X166287075Y-114014589D01*
X166262589Y-114005828D01*
X166239080Y-113994709D01*
X166216774Y-113981339D01*
X166195886Y-113965848D01*
X166176617Y-113948383D01*
X166159152Y-113929114D01*
X166143661Y-113908226D01*
X166130291Y-113885920D01*
X166119172Y-113862411D01*
X166110411Y-113837925D01*
X166104092Y-113812699D01*
X166100276Y-113786975D01*
X166099000Y-113761000D01*
X166099000Y-112239000D01*
X166100276Y-112213025D01*
X166104092Y-112187301D01*
X166110411Y-112162075D01*
X166119172Y-112137589D01*
X166130291Y-112114080D01*
X166143661Y-112091774D01*
X166159152Y-112070886D01*
X166176617Y-112051617D01*
X166195886Y-112034152D01*
X166216774Y-112018661D01*
X166239080Y-112005291D01*
X166262589Y-111994172D01*
X166287075Y-111985411D01*
X166312301Y-111979092D01*
X166338025Y-111975276D01*
X166364000Y-111974000D01*
X167636000Y-111974000D01*
X167661975Y-111975276D01*
G37*
D24*
X164500000Y-113000000D03*
X162000000Y-113000000D03*
X159500000Y-113000000D03*
D18*
G36*
X167661975Y-69975276D02*
G01*
X167687699Y-69979092D01*
X167712925Y-69985411D01*
X167737411Y-69994172D01*
X167760920Y-70005291D01*
X167783226Y-70018661D01*
X167804114Y-70034152D01*
X167823383Y-70051617D01*
X167840848Y-70070886D01*
X167856339Y-70091774D01*
X167869709Y-70114080D01*
X167880828Y-70137589D01*
X167889589Y-70162075D01*
X167895908Y-70187301D01*
X167899724Y-70213025D01*
X167901000Y-70239000D01*
X167901000Y-71761000D01*
X167899724Y-71786975D01*
X167895908Y-71812699D01*
X167889589Y-71837925D01*
X167880828Y-71862411D01*
X167869709Y-71885920D01*
X167856339Y-71908226D01*
X167840848Y-71929114D01*
X167823383Y-71948383D01*
X167804114Y-71965848D01*
X167783226Y-71981339D01*
X167760920Y-71994709D01*
X167737411Y-72005828D01*
X167712925Y-72014589D01*
X167687699Y-72020908D01*
X167661975Y-72024724D01*
X167636000Y-72026000D01*
X166364000Y-72026000D01*
X166338025Y-72024724D01*
X166312301Y-72020908D01*
X166287075Y-72014589D01*
X166262589Y-72005828D01*
X166239080Y-71994709D01*
X166216774Y-71981339D01*
X166195886Y-71965848D01*
X166176617Y-71948383D01*
X166159152Y-71929114D01*
X166143661Y-71908226D01*
X166130291Y-71885920D01*
X166119172Y-71862411D01*
X166110411Y-71837925D01*
X166104092Y-71812699D01*
X166100276Y-71786975D01*
X166099000Y-71761000D01*
X166099000Y-70239000D01*
X166100276Y-70213025D01*
X166104092Y-70187301D01*
X166110411Y-70162075D01*
X166119172Y-70137589D01*
X166130291Y-70114080D01*
X166143661Y-70091774D01*
X166159152Y-70070886D01*
X166176617Y-70051617D01*
X166195886Y-70034152D01*
X166216774Y-70018661D01*
X166239080Y-70005291D01*
X166262589Y-69994172D01*
X166287075Y-69985411D01*
X166312301Y-69979092D01*
X166338025Y-69975276D01*
X166364000Y-69974000D01*
X167636000Y-69974000D01*
X167661975Y-69975276D01*
G37*
D24*
X164500000Y-71000000D03*
X162000000Y-71000000D03*
X159500000Y-71000000D03*
D18*
G36*
X167661975Y-102975276D02*
G01*
X167687699Y-102979092D01*
X167712925Y-102985411D01*
X167737411Y-102994172D01*
X167760920Y-103005291D01*
X167783226Y-103018661D01*
X167804114Y-103034152D01*
X167823383Y-103051617D01*
X167840848Y-103070886D01*
X167856339Y-103091774D01*
X167869709Y-103114080D01*
X167880828Y-103137589D01*
X167889589Y-103162075D01*
X167895908Y-103187301D01*
X167899724Y-103213025D01*
X167901000Y-103239000D01*
X167901000Y-104761000D01*
X167899724Y-104786975D01*
X167895908Y-104812699D01*
X167889589Y-104837925D01*
X167880828Y-104862411D01*
X167869709Y-104885920D01*
X167856339Y-104908226D01*
X167840848Y-104929114D01*
X167823383Y-104948383D01*
X167804114Y-104965848D01*
X167783226Y-104981339D01*
X167760920Y-104994709D01*
X167737411Y-105005828D01*
X167712925Y-105014589D01*
X167687699Y-105020908D01*
X167661975Y-105024724D01*
X167636000Y-105026000D01*
X166364000Y-105026000D01*
X166338025Y-105024724D01*
X166312301Y-105020908D01*
X166287075Y-105014589D01*
X166262589Y-105005828D01*
X166239080Y-104994709D01*
X166216774Y-104981339D01*
X166195886Y-104965848D01*
X166176617Y-104948383D01*
X166159152Y-104929114D01*
X166143661Y-104908226D01*
X166130291Y-104885920D01*
X166119172Y-104862411D01*
X166110411Y-104837925D01*
X166104092Y-104812699D01*
X166100276Y-104786975D01*
X166099000Y-104761000D01*
X166099000Y-103239000D01*
X166100276Y-103213025D01*
X166104092Y-103187301D01*
X166110411Y-103162075D01*
X166119172Y-103137589D01*
X166130291Y-103114080D01*
X166143661Y-103091774D01*
X166159152Y-103070886D01*
X166176617Y-103051617D01*
X166195886Y-103034152D01*
X166216774Y-103018661D01*
X166239080Y-103005291D01*
X166262589Y-102994172D01*
X166287075Y-102985411D01*
X166312301Y-102979092D01*
X166338025Y-102975276D01*
X166364000Y-102974000D01*
X167636000Y-102974000D01*
X167661975Y-102975276D01*
G37*
D24*
X164500000Y-104000000D03*
X162000000Y-104000000D03*
X159500000Y-104000000D03*
D25*
X158540000Y-59000000D03*
D26*
X156000000Y-59000000D03*
X153460000Y-59000000D03*
D25*
X158540000Y-92000000D03*
D26*
X156000000Y-92000000D03*
X153460000Y-92000000D03*
D19*
X144000000Y-85000000D03*
D20*
X144000000Y-80000000D03*
D19*
X144000000Y-118000000D03*
D20*
X144000000Y-113000000D03*
D18*
G36*
X147180505Y-124950311D02*
G01*
X147206925Y-124954230D01*
X147232835Y-124960720D01*
X147257983Y-124969718D01*
X147282128Y-124981138D01*
X147305038Y-124994869D01*
X147326492Y-125010780D01*
X147346282Y-125028718D01*
X147364220Y-125048508D01*
X147380131Y-125069962D01*
X147393862Y-125092872D01*
X147405282Y-125117017D01*
X147414280Y-125142165D01*
X147420770Y-125168075D01*
X147424689Y-125194495D01*
X147426000Y-125221173D01*
X147426000Y-126178827D01*
X147424689Y-126205505D01*
X147420770Y-126231925D01*
X147414280Y-126257835D01*
X147405282Y-126282983D01*
X147393862Y-126307128D01*
X147380131Y-126330038D01*
X147364220Y-126351492D01*
X147346282Y-126371282D01*
X147326492Y-126389220D01*
X147305038Y-126405131D01*
X147282128Y-126418862D01*
X147257983Y-126430282D01*
X147232835Y-126439280D01*
X147206925Y-126445770D01*
X147180505Y-126449689D01*
X147153827Y-126451000D01*
X146446173Y-126451000D01*
X146419495Y-126449689D01*
X146393075Y-126445770D01*
X146367165Y-126439280D01*
X146342017Y-126430282D01*
X146317872Y-126418862D01*
X146294962Y-126405131D01*
X146273508Y-126389220D01*
X146253718Y-126371282D01*
X146235780Y-126351492D01*
X146219869Y-126330038D01*
X146206138Y-126307128D01*
X146194718Y-126282983D01*
X146185720Y-126257835D01*
X146179230Y-126231925D01*
X146175311Y-126205505D01*
X146174000Y-126178827D01*
X146174000Y-125221173D01*
X146175311Y-125194495D01*
X146179230Y-125168075D01*
X146185720Y-125142165D01*
X146194718Y-125117017D01*
X146206138Y-125092872D01*
X146219869Y-125069962D01*
X146235780Y-125048508D01*
X146253718Y-125028718D01*
X146273508Y-125010780D01*
X146294962Y-124994869D01*
X146317872Y-124981138D01*
X146342017Y-124969718D01*
X146367165Y-124960720D01*
X146393075Y-124954230D01*
X146419495Y-124950311D01*
X146446173Y-124949000D01*
X147153827Y-124949000D01*
X147180505Y-124950311D01*
G37*
G36*
X149230505Y-124950311D02*
G01*
X149256925Y-124954230D01*
X149282835Y-124960720D01*
X149307983Y-124969718D01*
X149332128Y-124981138D01*
X149355038Y-124994869D01*
X149376492Y-125010780D01*
X149396282Y-125028718D01*
X149414220Y-125048508D01*
X149430131Y-125069962D01*
X149443862Y-125092872D01*
X149455282Y-125117017D01*
X149464280Y-125142165D01*
X149470770Y-125168075D01*
X149474689Y-125194495D01*
X149476000Y-125221173D01*
X149476000Y-126178827D01*
X149474689Y-126205505D01*
X149470770Y-126231925D01*
X149464280Y-126257835D01*
X149455282Y-126282983D01*
X149443862Y-126307128D01*
X149430131Y-126330038D01*
X149414220Y-126351492D01*
X149396282Y-126371282D01*
X149376492Y-126389220D01*
X149355038Y-126405131D01*
X149332128Y-126418862D01*
X149307983Y-126430282D01*
X149282835Y-126439280D01*
X149256925Y-126445770D01*
X149230505Y-126449689D01*
X149203827Y-126451000D01*
X148496173Y-126451000D01*
X148469495Y-126449689D01*
X148443075Y-126445770D01*
X148417165Y-126439280D01*
X148392017Y-126430282D01*
X148367872Y-126418862D01*
X148344962Y-126405131D01*
X148323508Y-126389220D01*
X148303718Y-126371282D01*
X148285780Y-126351492D01*
X148269869Y-126330038D01*
X148256138Y-126307128D01*
X148244718Y-126282983D01*
X148235720Y-126257835D01*
X148229230Y-126231925D01*
X148225311Y-126205505D01*
X148224000Y-126178827D01*
X148224000Y-125221173D01*
X148225311Y-125194495D01*
X148229230Y-125168075D01*
X148235720Y-125142165D01*
X148244718Y-125117017D01*
X148256138Y-125092872D01*
X148269869Y-125069962D01*
X148285780Y-125048508D01*
X148303718Y-125028718D01*
X148323508Y-125010780D01*
X148344962Y-124994869D01*
X148367872Y-124981138D01*
X148392017Y-124969718D01*
X148417165Y-124960720D01*
X148443075Y-124954230D01*
X148469495Y-124950311D01*
X148496173Y-124949000D01*
X149203827Y-124949000D01*
X149230505Y-124950311D01*
G37*
G36*
X160255505Y-130050311D02*
G01*
X160281925Y-130054230D01*
X160307835Y-130060720D01*
X160332983Y-130069718D01*
X160357128Y-130081138D01*
X160380038Y-130094869D01*
X160401492Y-130110780D01*
X160421282Y-130128718D01*
X160439220Y-130148508D01*
X160455131Y-130169962D01*
X160468862Y-130192872D01*
X160480282Y-130217017D01*
X160489280Y-130242165D01*
X160495770Y-130268075D01*
X160499689Y-130294495D01*
X160501000Y-130321173D01*
X160501000Y-131278827D01*
X160499689Y-131305505D01*
X160495770Y-131331925D01*
X160489280Y-131357835D01*
X160480282Y-131382983D01*
X160468862Y-131407128D01*
X160455131Y-131430038D01*
X160439220Y-131451492D01*
X160421282Y-131471282D01*
X160401492Y-131489220D01*
X160380038Y-131505131D01*
X160357128Y-131518862D01*
X160332983Y-131530282D01*
X160307835Y-131539280D01*
X160281925Y-131545770D01*
X160255505Y-131549689D01*
X160228827Y-131551000D01*
X159521173Y-131551000D01*
X159494495Y-131549689D01*
X159468075Y-131545770D01*
X159442165Y-131539280D01*
X159417017Y-131530282D01*
X159392872Y-131518862D01*
X159369962Y-131505131D01*
X159348508Y-131489220D01*
X159328718Y-131471282D01*
X159310780Y-131451492D01*
X159294869Y-131430038D01*
X159281138Y-131407128D01*
X159269718Y-131382983D01*
X159260720Y-131357835D01*
X159254230Y-131331925D01*
X159250311Y-131305505D01*
X159249000Y-131278827D01*
X159249000Y-130321173D01*
X159250311Y-130294495D01*
X159254230Y-130268075D01*
X159260720Y-130242165D01*
X159269718Y-130217017D01*
X159281138Y-130192872D01*
X159294869Y-130169962D01*
X159310780Y-130148508D01*
X159328718Y-130128718D01*
X159348508Y-130110780D01*
X159369962Y-130094869D01*
X159392872Y-130081138D01*
X159417017Y-130069718D01*
X159442165Y-130060720D01*
X159468075Y-130054230D01*
X159494495Y-130050311D01*
X159521173Y-130049000D01*
X160228827Y-130049000D01*
X160255505Y-130050311D01*
G37*
G36*
X162305505Y-130050311D02*
G01*
X162331925Y-130054230D01*
X162357835Y-130060720D01*
X162382983Y-130069718D01*
X162407128Y-130081138D01*
X162430038Y-130094869D01*
X162451492Y-130110780D01*
X162471282Y-130128718D01*
X162489220Y-130148508D01*
X162505131Y-130169962D01*
X162518862Y-130192872D01*
X162530282Y-130217017D01*
X162539280Y-130242165D01*
X162545770Y-130268075D01*
X162549689Y-130294495D01*
X162551000Y-130321173D01*
X162551000Y-131278827D01*
X162549689Y-131305505D01*
X162545770Y-131331925D01*
X162539280Y-131357835D01*
X162530282Y-131382983D01*
X162518862Y-131407128D01*
X162505131Y-131430038D01*
X162489220Y-131451492D01*
X162471282Y-131471282D01*
X162451492Y-131489220D01*
X162430038Y-131505131D01*
X162407128Y-131518862D01*
X162382983Y-131530282D01*
X162357835Y-131539280D01*
X162331925Y-131545770D01*
X162305505Y-131549689D01*
X162278827Y-131551000D01*
X161571173Y-131551000D01*
X161544495Y-131549689D01*
X161518075Y-131545770D01*
X161492165Y-131539280D01*
X161467017Y-131530282D01*
X161442872Y-131518862D01*
X161419962Y-131505131D01*
X161398508Y-131489220D01*
X161378718Y-131471282D01*
X161360780Y-131451492D01*
X161344869Y-131430038D01*
X161331138Y-131407128D01*
X161319718Y-131382983D01*
X161310720Y-131357835D01*
X161304230Y-131331925D01*
X161300311Y-131305505D01*
X161299000Y-131278827D01*
X161299000Y-130321173D01*
X161300311Y-130294495D01*
X161304230Y-130268075D01*
X161310720Y-130242165D01*
X161319718Y-130217017D01*
X161331138Y-130192872D01*
X161344869Y-130169962D01*
X161360780Y-130148508D01*
X161378718Y-130128718D01*
X161398508Y-130110780D01*
X161419962Y-130094869D01*
X161442872Y-130081138D01*
X161467017Y-130069718D01*
X161492165Y-130060720D01*
X161518075Y-130054230D01*
X161544495Y-130050311D01*
X161571173Y-130049000D01*
X162278827Y-130049000D01*
X162305505Y-130050311D01*
G37*
G36*
X123105505Y-131925311D02*
G01*
X123131925Y-131929230D01*
X123157835Y-131935720D01*
X123182983Y-131944718D01*
X123207128Y-131956138D01*
X123230038Y-131969869D01*
X123251492Y-131985780D01*
X123271282Y-132003718D01*
X123289220Y-132023508D01*
X123305131Y-132044962D01*
X123318862Y-132067872D01*
X123330282Y-132092017D01*
X123339280Y-132117165D01*
X123345770Y-132143075D01*
X123349689Y-132169495D01*
X123351000Y-132196173D01*
X123351000Y-132903827D01*
X123349689Y-132930505D01*
X123345770Y-132956925D01*
X123339280Y-132982835D01*
X123330282Y-133007983D01*
X123318862Y-133032128D01*
X123305131Y-133055038D01*
X123289220Y-133076492D01*
X123271282Y-133096282D01*
X123251492Y-133114220D01*
X123230038Y-133130131D01*
X123207128Y-133143862D01*
X123182983Y-133155282D01*
X123157835Y-133164280D01*
X123131925Y-133170770D01*
X123105505Y-133174689D01*
X123078827Y-133176000D01*
X122121173Y-133176000D01*
X122094495Y-133174689D01*
X122068075Y-133170770D01*
X122042165Y-133164280D01*
X122017017Y-133155282D01*
X121992872Y-133143862D01*
X121969962Y-133130131D01*
X121948508Y-133114220D01*
X121928718Y-133096282D01*
X121910780Y-133076492D01*
X121894869Y-133055038D01*
X121881138Y-133032128D01*
X121869718Y-133007983D01*
X121860720Y-132982835D01*
X121854230Y-132956925D01*
X121850311Y-132930505D01*
X121849000Y-132903827D01*
X121849000Y-132196173D01*
X121850311Y-132169495D01*
X121854230Y-132143075D01*
X121860720Y-132117165D01*
X121869718Y-132092017D01*
X121881138Y-132067872D01*
X121894869Y-132044962D01*
X121910780Y-132023508D01*
X121928718Y-132003718D01*
X121948508Y-131985780D01*
X121969962Y-131969869D01*
X121992872Y-131956138D01*
X122017017Y-131944718D01*
X122042165Y-131935720D01*
X122068075Y-131929230D01*
X122094495Y-131925311D01*
X122121173Y-131924000D01*
X123078827Y-131924000D01*
X123105505Y-131925311D01*
G37*
G36*
X123105505Y-129875311D02*
G01*
X123131925Y-129879230D01*
X123157835Y-129885720D01*
X123182983Y-129894718D01*
X123207128Y-129906138D01*
X123230038Y-129919869D01*
X123251492Y-129935780D01*
X123271282Y-129953718D01*
X123289220Y-129973508D01*
X123305131Y-129994962D01*
X123318862Y-130017872D01*
X123330282Y-130042017D01*
X123339280Y-130067165D01*
X123345770Y-130093075D01*
X123349689Y-130119495D01*
X123351000Y-130146173D01*
X123351000Y-130853827D01*
X123349689Y-130880505D01*
X123345770Y-130906925D01*
X123339280Y-130932835D01*
X123330282Y-130957983D01*
X123318862Y-130982128D01*
X123305131Y-131005038D01*
X123289220Y-131026492D01*
X123271282Y-131046282D01*
X123251492Y-131064220D01*
X123230038Y-131080131D01*
X123207128Y-131093862D01*
X123182983Y-131105282D01*
X123157835Y-131114280D01*
X123131925Y-131120770D01*
X123105505Y-131124689D01*
X123078827Y-131126000D01*
X122121173Y-131126000D01*
X122094495Y-131124689D01*
X122068075Y-131120770D01*
X122042165Y-131114280D01*
X122017017Y-131105282D01*
X121992872Y-131093862D01*
X121969962Y-131080131D01*
X121948508Y-131064220D01*
X121928718Y-131046282D01*
X121910780Y-131026492D01*
X121894869Y-131005038D01*
X121881138Y-130982128D01*
X121869718Y-130957983D01*
X121860720Y-130932835D01*
X121854230Y-130906925D01*
X121850311Y-130880505D01*
X121849000Y-130853827D01*
X121849000Y-130146173D01*
X121850311Y-130119495D01*
X121854230Y-130093075D01*
X121860720Y-130067165D01*
X121869718Y-130042017D01*
X121881138Y-130017872D01*
X121894869Y-129994962D01*
X121910780Y-129973508D01*
X121928718Y-129953718D01*
X121948508Y-129935780D01*
X121969962Y-129919869D01*
X121992872Y-129906138D01*
X122017017Y-129894718D01*
X122042165Y-129885720D01*
X122068075Y-129879230D01*
X122094495Y-129875311D01*
X122121173Y-129874000D01*
X123078827Y-129874000D01*
X123105505Y-129875311D01*
G37*
D17*
X138000000Y-126000000D03*
D16*
X135460000Y-126000000D03*
D15*
X168000000Y-127000000D03*
X168000000Y-152000000D03*
X119000000Y-152000000D03*
X119000000Y-127000000D03*
D22*
X148620000Y-130000000D03*
X141000000Y-137620000D03*
X148620000Y-132540000D03*
X141000000Y-135080000D03*
X148620000Y-135080000D03*
X141000000Y-132540000D03*
X148620000Y-137620000D03*
D21*
X141000000Y-130000000D03*
D20*
X144000000Y-146000000D03*
D19*
X144000000Y-151000000D03*
D26*
X153460000Y-125000000D03*
X156000000Y-125000000D03*
D25*
X158540000Y-125000000D03*
D20*
X130000000Y-146000000D03*
D19*
X130000000Y-151000000D03*
D17*
X118500000Y-145160000D03*
X118500000Y-142620000D03*
X118500000Y-140080000D03*
X118500000Y-137540000D03*
D16*
X118500000Y-135000000D03*
D24*
X159500000Y-146000000D03*
X162000000Y-146000000D03*
X164500000Y-146000000D03*
D18*
G36*
X167661975Y-144975276D02*
G01*
X167687699Y-144979092D01*
X167712925Y-144985411D01*
X167737411Y-144994172D01*
X167760920Y-145005291D01*
X167783226Y-145018661D01*
X167804114Y-145034152D01*
X167823383Y-145051617D01*
X167840848Y-145070886D01*
X167856339Y-145091774D01*
X167869709Y-145114080D01*
X167880828Y-145137589D01*
X167889589Y-145162075D01*
X167895908Y-145187301D01*
X167899724Y-145213025D01*
X167901000Y-145239000D01*
X167901000Y-146761000D01*
X167899724Y-146786975D01*
X167895908Y-146812699D01*
X167889589Y-146837925D01*
X167880828Y-146862411D01*
X167869709Y-146885920D01*
X167856339Y-146908226D01*
X167840848Y-146929114D01*
X167823383Y-146948383D01*
X167804114Y-146965848D01*
X167783226Y-146981339D01*
X167760920Y-146994709D01*
X167737411Y-147005828D01*
X167712925Y-147014589D01*
X167687699Y-147020908D01*
X167661975Y-147024724D01*
X167636000Y-147026000D01*
X166364000Y-147026000D01*
X166338025Y-147024724D01*
X166312301Y-147020908D01*
X166287075Y-147014589D01*
X166262589Y-147005828D01*
X166239080Y-146994709D01*
X166216774Y-146981339D01*
X166195886Y-146965848D01*
X166176617Y-146948383D01*
X166159152Y-146929114D01*
X166143661Y-146908226D01*
X166130291Y-146885920D01*
X166119172Y-146862411D01*
X166110411Y-146837925D01*
X166104092Y-146812699D01*
X166100276Y-146786975D01*
X166099000Y-146761000D01*
X166099000Y-145239000D01*
X166100276Y-145213025D01*
X166104092Y-145187301D01*
X166110411Y-145162075D01*
X166119172Y-145137589D01*
X166130291Y-145114080D01*
X166143661Y-145091774D01*
X166159152Y-145070886D01*
X166176617Y-145051617D01*
X166195886Y-145034152D01*
X166216774Y-145018661D01*
X166239080Y-145005291D01*
X166262589Y-144994172D01*
X166287075Y-144985411D01*
X166312301Y-144979092D01*
X166338025Y-144975276D01*
X166364000Y-144974000D01*
X167636000Y-144974000D01*
X167661975Y-144975276D01*
G37*
D24*
X159500000Y-137000000D03*
X162000000Y-137000000D03*
X164500000Y-137000000D03*
D18*
G36*
X167661975Y-135975276D02*
G01*
X167687699Y-135979092D01*
X167712925Y-135985411D01*
X167737411Y-135994172D01*
X167760920Y-136005291D01*
X167783226Y-136018661D01*
X167804114Y-136034152D01*
X167823383Y-136051617D01*
X167840848Y-136070886D01*
X167856339Y-136091774D01*
X167869709Y-136114080D01*
X167880828Y-136137589D01*
X167889589Y-136162075D01*
X167895908Y-136187301D01*
X167899724Y-136213025D01*
X167901000Y-136239000D01*
X167901000Y-137761000D01*
X167899724Y-137786975D01*
X167895908Y-137812699D01*
X167889589Y-137837925D01*
X167880828Y-137862411D01*
X167869709Y-137885920D01*
X167856339Y-137908226D01*
X167840848Y-137929114D01*
X167823383Y-137948383D01*
X167804114Y-137965848D01*
X167783226Y-137981339D01*
X167760920Y-137994709D01*
X167737411Y-138005828D01*
X167712925Y-138014589D01*
X167687699Y-138020908D01*
X167661975Y-138024724D01*
X167636000Y-138026000D01*
X166364000Y-138026000D01*
X166338025Y-138024724D01*
X166312301Y-138020908D01*
X166287075Y-138014589D01*
X166262589Y-138005828D01*
X166239080Y-137994709D01*
X166216774Y-137981339D01*
X166195886Y-137965848D01*
X166176617Y-137948383D01*
X166159152Y-137929114D01*
X166143661Y-137908226D01*
X166130291Y-137885920D01*
X166119172Y-137862411D01*
X166110411Y-137837925D01*
X166104092Y-137812699D01*
X166100276Y-137786975D01*
X166099000Y-137761000D01*
X166099000Y-136239000D01*
X166100276Y-136213025D01*
X166104092Y-136187301D01*
X166110411Y-136162075D01*
X166119172Y-136137589D01*
X166130291Y-136114080D01*
X166143661Y-136091774D01*
X166159152Y-136070886D01*
X166176617Y-136051617D01*
X166195886Y-136034152D01*
X166216774Y-136018661D01*
X166239080Y-136005291D01*
X166262589Y-135994172D01*
X166287075Y-135985411D01*
X166312301Y-135979092D01*
X166338025Y-135975276D01*
X166364000Y-135974000D01*
X167636000Y-135974000D01*
X167661975Y-135975276D01*
G37*
D23*
X135350000Y-130555000D03*
X135350000Y-131825000D03*
X135350000Y-133095000D03*
X135350000Y-134365000D03*
X135350000Y-135635000D03*
X135350000Y-136905000D03*
X135350000Y-138175000D03*
X135350000Y-139445000D03*
X126000000Y-139445000D03*
X126000000Y-138175000D03*
X126000000Y-136905000D03*
X126000000Y-135635000D03*
X126000000Y-134365000D03*
X126000000Y-133095000D03*
X126000000Y-131825000D03*
X126000000Y-130555000D03*
M02*
