M48
; DRILL file {KiCad (5.1.5)-3} date 2020/02/20 5:13:04
; FORMAT={-:-/ absolute / metric / decimal}
; #@! TF.CreationDate,2020-02-20T05:13:04+09:00
; #@! TF.GenerationSoftware,Kicad,Pcbnew,(5.1.5)-3
FMAT,2
METRIC
T1C0.300
T2C0.400
T3C0.800
T4C0.950
T5C1.000
T6C1.100
T7C2.700
T8C3.200
%
G90
G05
T1
X117.5Y-66.5
X117.5Y-81.5
X117.5Y-99.5
X117.5Y-114.5
X117.5Y-132.5
X117.5Y-147.5
X121.8Y-63.0
X121.8Y-96.0
X121.8Y-129.0
X123.9Y-71.7
X123.9Y-104.7
X123.9Y-137.7
X124.8Y-74.7
X124.8Y-107.7
X124.8Y-140.7
X125.0Y-59.0
X125.0Y-81.5
X125.0Y-89.0
X125.0Y-92.0
X125.0Y-114.5
X125.0Y-122.0
X125.0Y-125.0
X125.0Y-147.5
X125.0Y-155.0
X127.3Y-74.6
X127.3Y-107.6
X127.3Y-140.6
X127.4Y-62.7
X127.4Y-95.7
X127.4Y-128.7
X131.7Y-64.3
X131.7Y-97.3
X131.7Y-130.3
X132.5Y-59.0
X132.5Y-74.0
X132.5Y-89.0
X132.5Y-92.0
X132.5Y-107.0
X132.5Y-122.0
X132.5Y-125.0
X132.5Y-140.0
X132.5Y-155.0
X133.0Y-78.0
X133.0Y-82.0
X133.0Y-111.0
X133.0Y-115.0
X133.0Y-144.0
X133.0Y-148.0
X137.2Y-63.8
X137.2Y-66.1
X137.2Y-96.8
X137.2Y-99.1
X137.2Y-129.8
X137.2Y-132.1
X138.4Y-74.9
X138.4Y-107.9
X138.4Y-140.9
X139.3Y-61.5
X139.3Y-63.8
X139.3Y-94.5
X139.3Y-96.8
X139.3Y-127.5
X139.3Y-129.8
X139.4Y-68.2
X139.4Y-101.2
X139.4Y-134.2
X140.0Y-59.0
X140.0Y-89.0
X140.0Y-92.0
X140.0Y-122.0
X140.0Y-125.0
X140.0Y-155.0
X141.0Y-78.0
X141.0Y-82.0
X141.0Y-111.0
X141.0Y-115.0
X141.0Y-144.0
X141.0Y-148.0
X142.7Y-64.2
X142.7Y-97.2
X142.7Y-130.2
X143.9Y-73.0
X143.9Y-106.0
X143.9Y-139.0
X147.0Y-80.0
X147.0Y-84.0
X147.0Y-113.0
X147.0Y-117.0
X147.0Y-146.0
X147.0Y-150.0
X147.1Y-65.8
X147.1Y-73.0
X147.1Y-98.8
X147.1Y-106.0
X147.1Y-131.8
X147.1Y-139.0
X147.5Y-89.0
X147.5Y-122.0
X147.5Y-155.0
X149.0Y-75.2
X149.0Y-108.2
X149.0Y-141.2
X150.0Y-63.0
X150.0Y-96.0
X150.0Y-129.0
X150.3Y-66.6
X150.3Y-69.0
X150.3Y-99.6
X150.3Y-102.0
X150.3Y-132.6
X150.3Y-135.0
X150.4Y-60.2
X150.4Y-93.2
X150.4Y-126.2
X151.75Y-57.9
X151.75Y-90.9
X151.75Y-123.9
X152.5Y-71.9
X152.5Y-104.9
X152.5Y-137.9
X155.0Y-89.0
X155.0Y-122.0
X155.0Y-155.0
X155.7Y-66.6
X155.7Y-69.0
X155.7Y-99.6
X155.7Y-102.0
X155.7Y-132.6
X155.7Y-135.0
X157.0Y-80.0
X157.0Y-113.0
X157.0Y-146.0
X160.0Y-61.0
X160.0Y-73.0
X160.0Y-78.0
X160.0Y-94.0
X160.0Y-106.0
X160.0Y-111.0
X160.0Y-127.0
X160.0Y-139.0
X160.0Y-144.0
X160.7Y-69.5
X160.7Y-102.5
X160.7Y-135.5
X161.0Y-84.0
X161.0Y-117.0
X161.0Y-150.0
X162.5Y-59.0
X162.5Y-89.0
X162.5Y-92.0
X162.5Y-122.0
X162.5Y-125.0
X162.5Y-155.0
X163.4Y-66.1
X163.4Y-69.4
X163.4Y-99.1
X163.4Y-102.4
X163.4Y-132.1
X163.4Y-135.4
X164.0Y-73.0
X164.0Y-78.0
X164.0Y-106.0
X164.0Y-111.0
X164.0Y-139.0
X164.0Y-144.0
X166.5Y-69.1
X166.5Y-102.1
X166.5Y-135.1
X170.0Y-66.5
X170.0Y-74.0
X170.0Y-81.5
X170.0Y-99.5
X170.0Y-107.0
X170.0Y-114.5
X170.0Y-132.5
X170.0Y-140.0
X170.0Y-147.5
T2
X120.4Y-78.8
X120.4Y-111.8
X120.4Y-144.8
X124.145Y-64.555
X124.145Y-97.555
X124.145Y-130.555
X128.3Y-70.9
X128.3Y-103.9
X128.3Y-136.9
X128.4Y-67.1
X128.4Y-100.1
X128.4Y-133.1
X128.7Y-72.2
X128.7Y-105.2
X128.7Y-138.2
X131.239Y-68.35
X131.239Y-101.35
X131.239Y-134.35
X133.5Y-67.6
X133.5Y-100.6
X133.5Y-133.6
X137.2Y-68.2
X137.2Y-101.2
X137.2Y-134.2
X137.257Y-70.942
X137.257Y-103.942
X137.257Y-136.942
X138.7Y-71.0
X138.7Y-104.0
X138.7Y-137.0
T3
X141.0Y-130.0
X141.0Y-132.54
X141.0Y-135.08
X141.0Y-137.62
X148.62Y-130.0
X148.62Y-132.54
X148.62Y-135.08
X148.62Y-137.62
X141.0Y-97.0
X141.0Y-99.54
X141.0Y-102.08
X141.0Y-104.62
X148.62Y-97.0
X148.62Y-99.54
X148.62Y-102.08
X148.62Y-104.62
X141.0Y-64.0
X141.0Y-66.54
X141.0Y-69.08
X141.0Y-71.62
X148.62Y-64.0
X148.62Y-66.54
X148.62Y-69.08
X148.62Y-71.62
T4
X159.5Y-146.0
X162.0Y-146.0
X164.5Y-146.0
X167.0Y-146.0
X159.5Y-113.0
X162.0Y-113.0
X164.5Y-113.0
X167.0Y-113.0
X159.5Y-137.0
X162.0Y-137.0
X164.5Y-137.0
X167.0Y-137.0
X159.5Y-71.0
X162.0Y-71.0
X164.5Y-71.0
X167.0Y-71.0
X159.5Y-80.0
X162.0Y-80.0
X164.5Y-80.0
X167.0Y-80.0
X159.5Y-104.0
X162.0Y-104.0
X164.5Y-104.0
X167.0Y-104.0
T5
X135.46Y-126.0
X138.0Y-126.0
X118.5Y-102.0
X118.5Y-104.54
X118.5Y-107.08
X118.5Y-109.62
X118.5Y-112.16
X118.5Y-135.0
X118.5Y-137.54
X118.5Y-140.08
X118.5Y-142.62
X118.5Y-145.16
X135.46Y-60.0
X138.0Y-60.0
X135.46Y-93.0
X138.0Y-93.0
X118.5Y-69.0
X118.5Y-71.54
X118.5Y-74.08
X118.5Y-76.62
X118.5Y-79.16
T6
X153.46Y-59.0
X156.0Y-59.0
X158.54Y-59.0
X153.46Y-92.0
X156.0Y-92.0
X158.54Y-92.0
X153.46Y-125.0
X156.0Y-125.0
X158.54Y-125.0
T7
X144.0Y-146.0
X144.0Y-151.0
X130.0Y-146.0
X130.0Y-151.0
X130.0Y-113.0
X130.0Y-118.0
X144.0Y-113.0
X144.0Y-118.0
X144.0Y-80.0
X144.0Y-85.0
X130.0Y-80.0
X130.0Y-85.0
T8
X119.0Y-94.0
X119.0Y-127.0
X168.0Y-127.0
X119.0Y-152.0
X168.0Y-86.0
X168.0Y-152.0
X168.0Y-119.0
X119.0Y-61.0
X119.0Y-86.0
X168.0Y-94.0
X119.0Y-119.0
X168.0Y-61.0
T0
M30
