M48
METRIC,TZ
T1C0.300
T2C0.400
T3C0.800
T4C0.950
T5C1.000
T6C1.100
T7C2.700
%
G90
G05
T1
X117500Y-66500
X117500Y-81500
X117500Y-99500
X117500Y-114500
X117500Y-132500
X117500Y-147500
X121800Y-63000
X121800Y-96000
X121800Y-129000
X123900Y-71700
X123900Y-104700
X123900Y-137700
X124800Y-74700
X124800Y-107700
X124800Y-140700
X125000Y-59000
X125000Y-81500
X125000Y-89000
X125000Y-92000
X125000Y-114500
X125000Y-122000
X125000Y-125000
X125000Y-147500
X125000Y-155000
X127300Y-74600
X127300Y-107600
X127300Y-140600
X127400Y-62700
X127400Y-95700
X127400Y-128700
X131700Y-64300
X131700Y-97300
X131700Y-130300
X132500Y-59000
X132500Y-74000
X132500Y-89000
X132500Y-92000
X132500Y-107000
X132500Y-122000
X132500Y-125000
X132500Y-140000
X132500Y-155000
X133000Y-78000
X133000Y-82000
X133000Y-111000
X133000Y-115000
X133000Y-144000
X133000Y-148000
X137200Y-63800
X137200Y-66100
X137200Y-96800
X137200Y-99100
X137200Y-129800
X137200Y-132100
X138400Y-74900
X138400Y-107900
X138400Y-140900
X139300Y-61500
X139300Y-63800
X139300Y-94500
X139300Y-96800
X139300Y-127500
X139300Y-129800
X139400Y-68200
X139400Y-101200
X139400Y-134200
X140000Y-59000
X140000Y-89000
X140000Y-92000
X140000Y-122000
X140000Y-125000
X140000Y-155000
X141000Y-78000
X141000Y-82000
X141000Y-111000
X141000Y-115000
X141000Y-144000
X141000Y-148000
X142700Y-64200
X142700Y-97200
X142700Y-130200
X143900Y-73000
X143900Y-106000
X143900Y-139000
X147000Y-80000
X147000Y-84000
X147000Y-113000
X147000Y-117000
X147000Y-146000
X147000Y-150000
X147100Y-65800
X147100Y-73000
X147100Y-98800
X147100Y-106000
X147100Y-131800
X147100Y-139000
X147500Y-89000
X147500Y-122000
X147500Y-155000
X149000Y-75200
X149000Y-108200
X149000Y-141200
X150000Y-63000
X150000Y-96000
X150000Y-129000
X150300Y-66600
X150300Y-69000
X150300Y-99600
X150300Y-102000
X150300Y-132600
X150300Y-135000
X150400Y-60200
X150400Y-93200
X150400Y-126200
X151750Y-57900
X151750Y-90900
X151750Y-123900
X152500Y-71900
X152500Y-104900
X152500Y-137900
X155000Y-89000
X155000Y-122000
X155000Y-155000
X155700Y-66600
X155700Y-69000
X155700Y-99600
X155700Y-102000
X155700Y-132600
X155700Y-135000
X157000Y-80000
X157000Y-113000
X157000Y-146000
X160000Y-61000
X160000Y-73000
X160000Y-78000
X160000Y-94000
X160000Y-106000
X160000Y-111000
X160000Y-127000
X160000Y-139000
X160000Y-144000
X160700Y-69500
X160700Y-102500
X160700Y-135500
X161000Y-84000
X161000Y-117000
X161000Y-150000
X162500Y-59000
X162500Y-89000
X162500Y-92000
X162500Y-122000
X162500Y-125000
X162500Y-155000
X163400Y-66100
X163400Y-69400
X163400Y-99100
X163400Y-102400
X163400Y-132100
X163400Y-135400
X164000Y-73000
X164000Y-78000
X164000Y-106000
X164000Y-111000
X164000Y-139000
X164000Y-144000
X166500Y-69100
X166500Y-102100
X166500Y-135100
X170000Y-66500
X170000Y-74000
X170000Y-81500
X170000Y-99500
X170000Y-107000
X170000Y-114500
X170000Y-132500
X170000Y-140000
X170000Y-147500
T2
X120400Y-78800
X120400Y-111800
X120400Y-144800
X124145Y-64555
X124145Y-97555
X124145Y-130555
X128300Y-70900
X128300Y-103900
X128300Y-136900
X128400Y-67100
X128400Y-100100
X128400Y-133100
X128700Y-72200
X128700Y-105200
X128700Y-138200
X131239Y-68350
X131239Y-101350
X131239Y-134350
X133500Y-67600
X133500Y-100600
X133500Y-133600
X137200Y-68200
X137200Y-101200
X137200Y-134200
X137257Y-70943
X137257Y-103943
X137257Y-136943
X138700Y-71000
X138700Y-104000
X138700Y-137000
T3
X141000Y-130000
X141000Y-132540
X141000Y-135080
X141000Y-137620
X148620Y-130000
X148620Y-132540
X148620Y-135080
X148620Y-137620
X141000Y-97000
X141000Y-99540
X141000Y-102080
X141000Y-104620
X148620Y-97000
X148620Y-99540
X148620Y-102080
X148620Y-104620
X141000Y-64000
X141000Y-66540
X141000Y-69080
X141000Y-71620
X148620Y-64000
X148620Y-66540
X148620Y-69080
X148620Y-71620
T4
X159500Y-146000
X162000Y-146000
X164500Y-146000
X167000Y-146000
X159500Y-113000
X162000Y-113000
X164500Y-113000
X167000Y-113000
X159500Y-137000
X162000Y-137000
X164500Y-137000
X167000Y-137000
X159500Y-71000
X162000Y-71000
X164500Y-71000
X167000Y-71000
X159500Y-80000
X162000Y-80000
X164500Y-80000
X167000Y-80000
X159500Y-104000
X162000Y-104000
X164500Y-104000
X167000Y-104000
T5
X135460Y-126000
X138000Y-126000
X118500Y-102000
X118500Y-104540
X118500Y-107080
X118500Y-109620
X118500Y-112160
X118500Y-135000
X118500Y-137540
X118500Y-140080
X118500Y-142620
X118500Y-145160
X135460Y-60000
X138000Y-60000
X135460Y-93000
X138000Y-93000
X118500Y-69000
X118500Y-71540
X118500Y-74080
X118500Y-76620
X118500Y-79160
T6
X153460Y-125000
X156000Y-125000
X158540Y-125000
X153460Y-59000
X156000Y-59000
X158540Y-59000
X153460Y-92000
X156000Y-92000
X158540Y-92000
T7
X130000Y-80000
X130000Y-85000
X144000Y-146000
X144000Y-151000
X130000Y-146000
X130000Y-151000
X130000Y-113000
X130000Y-118000
X144000Y-113000
X144000Y-118000
X144000Y-80000
X144000Y-85000
T0
M30
