G04 #@! TF.GenerationSoftware,KiCad,Pcbnew,(5.1.5)-3*
G04 #@! TF.CreationDate,2020-02-20T05:13:05+09:00*
G04 #@! TF.ProjectId,ServoDriver-order,53657276-6f44-4726-9976-65722d6f7264,rev?*
G04 #@! TF.SameCoordinates,Original*
G04 #@! TF.FileFunction,Soldermask,Bot*
G04 #@! TF.FilePolarity,Negative*
%FSLAX46Y46*%
G04 Gerber Fmt 4.6, Leading zero omitted, Abs format (unit mm)*
G04 Created by KiCad (PCBNEW (5.1.5)-3) date 2020-02-20 05:13:05*
%MOMM*%
%LPD*%
G04 APERTURE LIST*
%ADD10C,0.050000*%
%ADD11C,0.100000*%
G04 APERTURE END LIST*
D10*
X168000000Y-57000000D02*
X119000000Y-57000000D01*
X172000000Y-86000000D02*
G75*
G02X168000000Y-90000000I-4000000J0D01*
G01*
X172000000Y-119000000D02*
G75*
G02X168000000Y-123000000I-4000000J0D01*
G01*
X115000000Y-61000000D02*
X115000000Y-86000000D01*
X115000000Y-94000000D02*
X115000000Y-119000000D01*
X172000000Y-86000000D02*
X172000000Y-61000000D01*
X172000000Y-119000000D02*
X172000000Y-94000000D01*
X168000000Y-57000000D02*
G75*
G02X172000000Y-61000000I0J-4000000D01*
G01*
X168000000Y-90000000D02*
G75*
G02X172000000Y-94000000I0J-4000000D01*
G01*
X115000000Y-61000000D02*
G75*
G02X119000000Y-57000000I4000000J0D01*
G01*
X115000000Y-94000000D02*
G75*
G02X119000000Y-90000000I4000000J0D01*
G01*
X119000000Y-90000000D02*
G75*
G02X115000000Y-86000000I0J4000000D01*
G01*
X119000000Y-123000000D02*
G75*
G02X115000000Y-119000000I0J4000000D01*
G01*
X172000000Y-152000000D02*
G75*
G02X168000000Y-156000000I-4000000J0D01*
G01*
X119000000Y-156000000D02*
X168000000Y-156000000D01*
X119000000Y-156000000D02*
G75*
G02X115000000Y-152000000I0J4000000D01*
G01*
X115000000Y-127000000D02*
G75*
G02X119000000Y-123000000I4000000J0D01*
G01*
X168000000Y-123000000D02*
G75*
G02X172000000Y-127000000I0J-4000000D01*
G01*
X172000000Y-152000000D02*
X172000000Y-127000000D01*
X115000000Y-127000000D02*
X115000000Y-152000000D01*
D11*
G36*
X168375256Y-150391298D02*
G01*
X168481579Y-150412447D01*
X168782042Y-150536903D01*
X169052451Y-150717585D01*
X169282415Y-150947549D01*
X169463097Y-151217958D01*
X169587553Y-151518421D01*
X169651000Y-151837391D01*
X169651000Y-152162609D01*
X169587553Y-152481579D01*
X169463097Y-152782042D01*
X169282415Y-153052451D01*
X169052451Y-153282415D01*
X168782042Y-153463097D01*
X168481579Y-153587553D01*
X168375256Y-153608702D01*
X168162611Y-153651000D01*
X167837389Y-153651000D01*
X167624744Y-153608702D01*
X167518421Y-153587553D01*
X167217958Y-153463097D01*
X166947549Y-153282415D01*
X166717585Y-153052451D01*
X166536903Y-152782042D01*
X166412447Y-152481579D01*
X166349000Y-152162609D01*
X166349000Y-151837391D01*
X166412447Y-151518421D01*
X166536903Y-151217958D01*
X166717585Y-150947549D01*
X166947549Y-150717585D01*
X167217958Y-150536903D01*
X167518421Y-150412447D01*
X167624744Y-150391298D01*
X167837389Y-150349000D01*
X168162611Y-150349000D01*
X168375256Y-150391298D01*
G37*
G36*
X119375256Y-150391298D02*
G01*
X119481579Y-150412447D01*
X119782042Y-150536903D01*
X120052451Y-150717585D01*
X120282415Y-150947549D01*
X120463097Y-151217958D01*
X120587553Y-151518421D01*
X120651000Y-151837391D01*
X120651000Y-152162609D01*
X120587553Y-152481579D01*
X120463097Y-152782042D01*
X120282415Y-153052451D01*
X120052451Y-153282415D01*
X119782042Y-153463097D01*
X119481579Y-153587553D01*
X119375256Y-153608702D01*
X119162611Y-153651000D01*
X118837389Y-153651000D01*
X118624744Y-153608702D01*
X118518421Y-153587553D01*
X118217958Y-153463097D01*
X117947549Y-153282415D01*
X117717585Y-153052451D01*
X117536903Y-152782042D01*
X117412447Y-152481579D01*
X117349000Y-152162609D01*
X117349000Y-151837391D01*
X117412447Y-151518421D01*
X117536903Y-151217958D01*
X117717585Y-150947549D01*
X117947549Y-150717585D01*
X118217958Y-150536903D01*
X118518421Y-150412447D01*
X118624744Y-150391298D01*
X118837389Y-150349000D01*
X119162611Y-150349000D01*
X119375256Y-150391298D01*
G37*
G36*
X145951000Y-152951000D02*
G01*
X142049000Y-152951000D01*
X142049000Y-149049000D01*
X145951000Y-149049000D01*
X145951000Y-152951000D01*
G37*
G36*
X131951000Y-152951000D02*
G01*
X128049000Y-152951000D01*
X128049000Y-149049000D01*
X131951000Y-149049000D01*
X131951000Y-152951000D01*
G37*
G36*
X144569085Y-144123975D02*
G01*
X144924143Y-144271045D01*
X144924145Y-144271046D01*
X145243690Y-144484559D01*
X145515441Y-144756310D01*
X145713614Y-145052897D01*
X145728955Y-145075857D01*
X145876025Y-145430915D01*
X145951000Y-145807842D01*
X145951000Y-146192158D01*
X145876025Y-146569085D01*
X145745748Y-146883600D01*
X145728954Y-146924145D01*
X145515441Y-147243690D01*
X145243690Y-147515441D01*
X144924145Y-147728954D01*
X144924144Y-147728955D01*
X144924143Y-147728955D01*
X144569085Y-147876025D01*
X144192158Y-147951000D01*
X143807842Y-147951000D01*
X143430915Y-147876025D01*
X143075857Y-147728955D01*
X143075856Y-147728955D01*
X143075855Y-147728954D01*
X142756310Y-147515441D01*
X142484559Y-147243690D01*
X142271046Y-146924145D01*
X142254252Y-146883600D01*
X142123975Y-146569085D01*
X142049000Y-146192158D01*
X142049000Y-145807842D01*
X142123975Y-145430915D01*
X142271045Y-145075857D01*
X142286386Y-145052897D01*
X142484559Y-144756310D01*
X142756310Y-144484559D01*
X143075855Y-144271046D01*
X143075857Y-144271045D01*
X143430915Y-144123975D01*
X143807842Y-144049000D01*
X144192158Y-144049000D01*
X144569085Y-144123975D01*
G37*
G36*
X130569085Y-144123975D02*
G01*
X130924143Y-144271045D01*
X130924145Y-144271046D01*
X131243690Y-144484559D01*
X131515441Y-144756310D01*
X131713614Y-145052897D01*
X131728955Y-145075857D01*
X131876025Y-145430915D01*
X131951000Y-145807842D01*
X131951000Y-146192158D01*
X131876025Y-146569085D01*
X131745748Y-146883600D01*
X131728954Y-146924145D01*
X131515441Y-147243690D01*
X131243690Y-147515441D01*
X130924145Y-147728954D01*
X130924144Y-147728955D01*
X130924143Y-147728955D01*
X130569085Y-147876025D01*
X130192158Y-147951000D01*
X129807842Y-147951000D01*
X129430915Y-147876025D01*
X129075857Y-147728955D01*
X129075856Y-147728955D01*
X129075855Y-147728954D01*
X128756310Y-147515441D01*
X128484559Y-147243690D01*
X128271046Y-146924145D01*
X128254252Y-146883600D01*
X128123975Y-146569085D01*
X128049000Y-146192158D01*
X128049000Y-145807842D01*
X128123975Y-145430915D01*
X128271045Y-145075857D01*
X128286386Y-145052897D01*
X128484559Y-144756310D01*
X128756310Y-144484559D01*
X129075855Y-144271046D01*
X129075857Y-144271045D01*
X129430915Y-144123975D01*
X129807842Y-144049000D01*
X130192158Y-144049000D01*
X130569085Y-144123975D01*
G37*
G36*
X164676627Y-144987037D02*
G01*
X164846466Y-145038557D01*
X165002991Y-145122222D01*
X165038729Y-145151552D01*
X165140186Y-145234814D01*
X165223448Y-145336271D01*
X165252778Y-145372009D01*
X165336443Y-145528534D01*
X165387963Y-145698374D01*
X165391507Y-145734354D01*
X165398745Y-145807842D01*
X165401000Y-145830743D01*
X165401000Y-146169258D01*
X165387963Y-146301627D01*
X165336443Y-146471466D01*
X165252778Y-146627991D01*
X165223448Y-146663729D01*
X165140186Y-146765186D01*
X165002989Y-146877779D01*
X164846467Y-146961442D01*
X164846465Y-146961443D01*
X164676626Y-147012963D01*
X164500000Y-147030359D01*
X164323373Y-147012963D01*
X164153534Y-146961443D01*
X163997009Y-146877778D01*
X163954750Y-146843097D01*
X163859814Y-146765186D01*
X163747221Y-146627989D01*
X163663558Y-146471467D01*
X163663557Y-146471465D01*
X163612037Y-146301626D01*
X163605519Y-146235442D01*
X163599000Y-146169259D01*
X163599000Y-145830740D01*
X163612037Y-145698375D01*
X163612037Y-145698373D01*
X163663557Y-145528534D01*
X163747222Y-145372009D01*
X163859815Y-145234815D01*
X163997010Y-145122222D01*
X164153535Y-145038557D01*
X164323374Y-144987037D01*
X164500000Y-144969641D01*
X164676627Y-144987037D01*
G37*
G36*
X162176627Y-144987037D02*
G01*
X162346466Y-145038557D01*
X162502991Y-145122222D01*
X162538729Y-145151552D01*
X162640186Y-145234814D01*
X162723448Y-145336271D01*
X162752778Y-145372009D01*
X162836443Y-145528534D01*
X162887963Y-145698374D01*
X162891507Y-145734354D01*
X162898745Y-145807842D01*
X162901000Y-145830743D01*
X162901000Y-146169258D01*
X162887963Y-146301627D01*
X162836443Y-146471466D01*
X162752778Y-146627991D01*
X162723448Y-146663729D01*
X162640186Y-146765186D01*
X162502989Y-146877779D01*
X162346467Y-146961442D01*
X162346465Y-146961443D01*
X162176626Y-147012963D01*
X162000000Y-147030359D01*
X161823373Y-147012963D01*
X161653534Y-146961443D01*
X161497009Y-146877778D01*
X161454750Y-146843097D01*
X161359814Y-146765186D01*
X161247221Y-146627989D01*
X161163558Y-146471467D01*
X161163557Y-146471465D01*
X161112037Y-146301626D01*
X161105519Y-146235442D01*
X161099000Y-146169259D01*
X161099000Y-145830740D01*
X161112037Y-145698375D01*
X161112037Y-145698373D01*
X161163557Y-145528534D01*
X161247222Y-145372009D01*
X161359815Y-145234815D01*
X161497010Y-145122222D01*
X161653535Y-145038557D01*
X161823374Y-144987037D01*
X162000000Y-144969641D01*
X162176627Y-144987037D01*
G37*
G36*
X159676627Y-144987037D02*
G01*
X159846466Y-145038557D01*
X160002991Y-145122222D01*
X160038729Y-145151552D01*
X160140186Y-145234814D01*
X160223448Y-145336271D01*
X160252778Y-145372009D01*
X160336443Y-145528534D01*
X160387963Y-145698374D01*
X160391507Y-145734354D01*
X160398745Y-145807842D01*
X160401000Y-145830743D01*
X160401000Y-146169258D01*
X160387963Y-146301627D01*
X160336443Y-146471466D01*
X160252778Y-146627991D01*
X160223448Y-146663729D01*
X160140186Y-146765186D01*
X160002989Y-146877779D01*
X159846467Y-146961442D01*
X159846465Y-146961443D01*
X159676626Y-147012963D01*
X159500000Y-147030359D01*
X159323373Y-147012963D01*
X159153534Y-146961443D01*
X158997009Y-146877778D01*
X158954750Y-146843097D01*
X158859814Y-146765186D01*
X158747221Y-146627989D01*
X158663558Y-146471467D01*
X158663557Y-146471465D01*
X158612037Y-146301626D01*
X158605519Y-146235442D01*
X158599000Y-146169259D01*
X158599000Y-145830740D01*
X158612037Y-145698375D01*
X158612037Y-145698373D01*
X158663557Y-145528534D01*
X158747222Y-145372009D01*
X158859815Y-145234815D01*
X158997010Y-145122222D01*
X159153535Y-145038557D01*
X159323374Y-144987037D01*
X159500000Y-144969641D01*
X159676627Y-144987037D01*
G37*
G36*
X167758600Y-144977989D02*
G01*
X167791652Y-144988015D01*
X167822103Y-145004292D01*
X167848799Y-145026201D01*
X167870708Y-145052897D01*
X167886985Y-145083348D01*
X167897011Y-145116400D01*
X167901000Y-145156903D01*
X167901000Y-146843097D01*
X167897011Y-146883600D01*
X167886985Y-146916652D01*
X167870708Y-146947103D01*
X167848799Y-146973799D01*
X167822103Y-146995708D01*
X167791652Y-147011985D01*
X167758600Y-147022011D01*
X167718097Y-147026000D01*
X166281903Y-147026000D01*
X166241400Y-147022011D01*
X166208348Y-147011985D01*
X166177897Y-146995708D01*
X166151201Y-146973799D01*
X166129292Y-146947103D01*
X166113015Y-146916652D01*
X166102989Y-146883600D01*
X166099000Y-146843097D01*
X166099000Y-145156903D01*
X166102989Y-145116400D01*
X166113015Y-145083348D01*
X166129292Y-145052897D01*
X166151201Y-145026201D01*
X166177897Y-145004292D01*
X166208348Y-144988015D01*
X166241400Y-144977989D01*
X166281903Y-144974000D01*
X167718097Y-144974000D01*
X167758600Y-144977989D01*
G37*
G36*
X118613512Y-144263927D02*
G01*
X118762812Y-144293624D01*
X118926784Y-144361544D01*
X119074354Y-144460147D01*
X119199853Y-144585646D01*
X119298456Y-144733216D01*
X119366376Y-144897188D01*
X119401000Y-145071259D01*
X119401000Y-145248741D01*
X119366376Y-145422812D01*
X119298456Y-145586784D01*
X119199853Y-145734354D01*
X119074354Y-145859853D01*
X118926784Y-145958456D01*
X118762812Y-146026376D01*
X118613512Y-146056073D01*
X118588742Y-146061000D01*
X118411258Y-146061000D01*
X118386488Y-146056073D01*
X118237188Y-146026376D01*
X118073216Y-145958456D01*
X117925646Y-145859853D01*
X117800147Y-145734354D01*
X117701544Y-145586784D01*
X117633624Y-145422812D01*
X117599000Y-145248741D01*
X117599000Y-145071259D01*
X117633624Y-144897188D01*
X117701544Y-144733216D01*
X117800147Y-144585646D01*
X117925646Y-144460147D01*
X118073216Y-144361544D01*
X118237188Y-144293624D01*
X118386488Y-144263927D01*
X118411258Y-144259000D01*
X118588742Y-144259000D01*
X118613512Y-144263927D01*
G37*
G36*
X118613512Y-141723927D02*
G01*
X118762812Y-141753624D01*
X118926784Y-141821544D01*
X119074354Y-141920147D01*
X119199853Y-142045646D01*
X119298456Y-142193216D01*
X119366376Y-142357188D01*
X119401000Y-142531259D01*
X119401000Y-142708741D01*
X119366376Y-142882812D01*
X119298456Y-143046784D01*
X119199853Y-143194354D01*
X119074354Y-143319853D01*
X118926784Y-143418456D01*
X118762812Y-143486376D01*
X118613512Y-143516073D01*
X118588742Y-143521000D01*
X118411258Y-143521000D01*
X118386488Y-143516073D01*
X118237188Y-143486376D01*
X118073216Y-143418456D01*
X117925646Y-143319853D01*
X117800147Y-143194354D01*
X117701544Y-143046784D01*
X117633624Y-142882812D01*
X117599000Y-142708741D01*
X117599000Y-142531259D01*
X117633624Y-142357188D01*
X117701544Y-142193216D01*
X117800147Y-142045646D01*
X117925646Y-141920147D01*
X118073216Y-141821544D01*
X118237188Y-141753624D01*
X118386488Y-141723927D01*
X118411258Y-141719000D01*
X118588742Y-141719000D01*
X118613512Y-141723927D01*
G37*
G36*
X118613512Y-139183927D02*
G01*
X118762812Y-139213624D01*
X118926784Y-139281544D01*
X119074354Y-139380147D01*
X119199853Y-139505646D01*
X119298456Y-139653216D01*
X119366376Y-139817188D01*
X119401000Y-139991259D01*
X119401000Y-140168741D01*
X119366376Y-140342812D01*
X119298456Y-140506784D01*
X119199853Y-140654354D01*
X119074354Y-140779853D01*
X118926784Y-140878456D01*
X118762812Y-140946376D01*
X118613512Y-140976073D01*
X118588742Y-140981000D01*
X118411258Y-140981000D01*
X118386488Y-140976073D01*
X118237188Y-140946376D01*
X118073216Y-140878456D01*
X117925646Y-140779853D01*
X117800147Y-140654354D01*
X117701544Y-140506784D01*
X117633624Y-140342812D01*
X117599000Y-140168741D01*
X117599000Y-139991259D01*
X117633624Y-139817188D01*
X117701544Y-139653216D01*
X117800147Y-139505646D01*
X117925646Y-139380147D01*
X118073216Y-139281544D01*
X118237188Y-139213624D01*
X118386488Y-139183927D01*
X118411258Y-139179000D01*
X118588742Y-139179000D01*
X118613512Y-139183927D01*
G37*
G36*
X130889500Y-139911000D02*
G01*
X129262500Y-139911000D01*
X129262500Y-139109000D01*
X130889500Y-139109000D01*
X130889500Y-139911000D01*
G37*
G36*
X136313500Y-139911000D02*
G01*
X134686500Y-139911000D01*
X134686500Y-139109000D01*
X136313500Y-139109000D01*
X136313500Y-139911000D01*
G37*
G36*
X136313500Y-138641000D02*
G01*
X134686500Y-138641000D01*
X134686500Y-137839000D01*
X136313500Y-137839000D01*
X136313500Y-138641000D01*
G37*
G36*
X130889500Y-138641000D02*
G01*
X129262500Y-138641000D01*
X129262500Y-137839000D01*
X130889500Y-137839000D01*
X130889500Y-138641000D01*
G37*
G36*
X148868228Y-136801703D02*
G01*
X149023100Y-136865853D01*
X149162481Y-136958985D01*
X149281015Y-137077519D01*
X149374147Y-137216900D01*
X149438297Y-137371772D01*
X149471000Y-137536184D01*
X149471000Y-137703816D01*
X149438297Y-137868228D01*
X149374147Y-138023100D01*
X149281015Y-138162481D01*
X149162481Y-138281015D01*
X149023100Y-138374147D01*
X148868228Y-138438297D01*
X148703816Y-138471000D01*
X148536184Y-138471000D01*
X148371772Y-138438297D01*
X148216900Y-138374147D01*
X148077519Y-138281015D01*
X147958985Y-138162481D01*
X147865853Y-138023100D01*
X147801703Y-137868228D01*
X147769000Y-137703816D01*
X147769000Y-137536184D01*
X147801703Y-137371772D01*
X147865853Y-137216900D01*
X147958985Y-137077519D01*
X148077519Y-136958985D01*
X148216900Y-136865853D01*
X148371772Y-136801703D01*
X148536184Y-136769000D01*
X148703816Y-136769000D01*
X148868228Y-136801703D01*
G37*
G36*
X141248228Y-136801703D02*
G01*
X141403100Y-136865853D01*
X141542481Y-136958985D01*
X141661015Y-137077519D01*
X141754147Y-137216900D01*
X141818297Y-137371772D01*
X141851000Y-137536184D01*
X141851000Y-137703816D01*
X141818297Y-137868228D01*
X141754147Y-138023100D01*
X141661015Y-138162481D01*
X141542481Y-138281015D01*
X141403100Y-138374147D01*
X141248228Y-138438297D01*
X141083816Y-138471000D01*
X140916184Y-138471000D01*
X140751772Y-138438297D01*
X140596900Y-138374147D01*
X140457519Y-138281015D01*
X140338985Y-138162481D01*
X140245853Y-138023100D01*
X140181703Y-137868228D01*
X140149000Y-137703816D01*
X140149000Y-137536184D01*
X140181703Y-137371772D01*
X140245853Y-137216900D01*
X140338985Y-137077519D01*
X140457519Y-136958985D01*
X140596900Y-136865853D01*
X140751772Y-136801703D01*
X140916184Y-136769000D01*
X141083816Y-136769000D01*
X141248228Y-136801703D01*
G37*
G36*
X118613512Y-136643927D02*
G01*
X118762812Y-136673624D01*
X118926784Y-136741544D01*
X119074354Y-136840147D01*
X119199853Y-136965646D01*
X119298456Y-137113216D01*
X119366376Y-137277188D01*
X119401000Y-137451259D01*
X119401000Y-137628741D01*
X119366376Y-137802812D01*
X119298456Y-137966784D01*
X119199853Y-138114354D01*
X119074354Y-138239853D01*
X118926784Y-138338456D01*
X118762812Y-138406376D01*
X118613512Y-138436073D01*
X118588742Y-138441000D01*
X118411258Y-138441000D01*
X118386488Y-138436073D01*
X118237188Y-138406376D01*
X118073216Y-138338456D01*
X117925646Y-138239853D01*
X117800147Y-138114354D01*
X117701544Y-137966784D01*
X117633624Y-137802812D01*
X117599000Y-137628741D01*
X117599000Y-137451259D01*
X117633624Y-137277188D01*
X117701544Y-137113216D01*
X117800147Y-136965646D01*
X117925646Y-136840147D01*
X118073216Y-136741544D01*
X118237188Y-136673624D01*
X118386488Y-136643927D01*
X118411258Y-136639000D01*
X118588742Y-136639000D01*
X118613512Y-136643927D01*
G37*
G36*
X164676627Y-135987037D02*
G01*
X164846466Y-136038557D01*
X165002991Y-136122222D01*
X165038729Y-136151552D01*
X165140186Y-136234814D01*
X165223448Y-136336271D01*
X165252778Y-136372009D01*
X165336443Y-136528534D01*
X165387963Y-136698374D01*
X165387963Y-136698376D01*
X165401000Y-136830741D01*
X165401000Y-137169260D01*
X165394481Y-137235443D01*
X165387963Y-137301627D01*
X165336443Y-137471466D01*
X165252778Y-137627991D01*
X165223448Y-137663729D01*
X165140186Y-137765186D01*
X165002989Y-137877779D01*
X164846467Y-137961442D01*
X164846465Y-137961443D01*
X164676626Y-138012963D01*
X164500000Y-138030359D01*
X164323373Y-138012963D01*
X164153534Y-137961443D01*
X163997009Y-137877778D01*
X163949758Y-137839000D01*
X163859814Y-137765186D01*
X163747221Y-137627989D01*
X163663558Y-137471467D01*
X163657428Y-137451259D01*
X163612037Y-137301626D01*
X163599000Y-137169257D01*
X163599000Y-136830742D01*
X163612037Y-136698373D01*
X163663557Y-136528534D01*
X163747222Y-136372009D01*
X163859815Y-136234815D01*
X163997010Y-136122222D01*
X164153535Y-136038557D01*
X164323374Y-135987037D01*
X164500000Y-135969641D01*
X164676627Y-135987037D01*
G37*
G36*
X162176627Y-135987037D02*
G01*
X162346466Y-136038557D01*
X162502991Y-136122222D01*
X162538729Y-136151552D01*
X162640186Y-136234814D01*
X162723448Y-136336271D01*
X162752778Y-136372009D01*
X162836443Y-136528534D01*
X162887963Y-136698374D01*
X162887963Y-136698376D01*
X162901000Y-136830741D01*
X162901000Y-137169260D01*
X162894481Y-137235443D01*
X162887963Y-137301627D01*
X162836443Y-137471466D01*
X162752778Y-137627991D01*
X162723448Y-137663729D01*
X162640186Y-137765186D01*
X162502989Y-137877779D01*
X162346467Y-137961442D01*
X162346465Y-137961443D01*
X162176626Y-138012963D01*
X162000000Y-138030359D01*
X161823373Y-138012963D01*
X161653534Y-137961443D01*
X161497009Y-137877778D01*
X161449758Y-137839000D01*
X161359814Y-137765186D01*
X161247221Y-137627989D01*
X161163558Y-137471467D01*
X161157428Y-137451259D01*
X161112037Y-137301626D01*
X161099000Y-137169257D01*
X161099000Y-136830742D01*
X161112037Y-136698373D01*
X161163557Y-136528534D01*
X161247222Y-136372009D01*
X161359815Y-136234815D01*
X161497010Y-136122222D01*
X161653535Y-136038557D01*
X161823374Y-135987037D01*
X162000000Y-135969641D01*
X162176627Y-135987037D01*
G37*
G36*
X159676627Y-135987037D02*
G01*
X159846466Y-136038557D01*
X160002991Y-136122222D01*
X160038729Y-136151552D01*
X160140186Y-136234814D01*
X160223448Y-136336271D01*
X160252778Y-136372009D01*
X160336443Y-136528534D01*
X160387963Y-136698374D01*
X160387963Y-136698376D01*
X160401000Y-136830741D01*
X160401000Y-137169260D01*
X160394481Y-137235443D01*
X160387963Y-137301627D01*
X160336443Y-137471466D01*
X160252778Y-137627991D01*
X160223448Y-137663729D01*
X160140186Y-137765186D01*
X160002989Y-137877779D01*
X159846467Y-137961442D01*
X159846465Y-137961443D01*
X159676626Y-138012963D01*
X159500000Y-138030359D01*
X159323373Y-138012963D01*
X159153534Y-137961443D01*
X158997009Y-137877778D01*
X158949758Y-137839000D01*
X158859814Y-137765186D01*
X158747221Y-137627989D01*
X158663558Y-137471467D01*
X158657428Y-137451259D01*
X158612037Y-137301626D01*
X158599000Y-137169257D01*
X158599000Y-136830742D01*
X158612037Y-136698373D01*
X158663557Y-136528534D01*
X158747222Y-136372009D01*
X158859815Y-136234815D01*
X158997010Y-136122222D01*
X159153535Y-136038557D01*
X159323374Y-135987037D01*
X159500000Y-135969641D01*
X159676627Y-135987037D01*
G37*
G36*
X167758600Y-135977989D02*
G01*
X167791652Y-135988015D01*
X167822103Y-136004292D01*
X167848799Y-136026201D01*
X167870708Y-136052897D01*
X167886985Y-136083348D01*
X167897011Y-136116400D01*
X167901000Y-136156903D01*
X167901000Y-137843097D01*
X167897011Y-137883600D01*
X167886985Y-137916652D01*
X167870708Y-137947103D01*
X167848799Y-137973799D01*
X167822103Y-137995708D01*
X167791652Y-138011985D01*
X167758600Y-138022011D01*
X167718097Y-138026000D01*
X166281903Y-138026000D01*
X166241400Y-138022011D01*
X166208348Y-138011985D01*
X166177897Y-137995708D01*
X166151201Y-137973799D01*
X166129292Y-137947103D01*
X166113015Y-137916652D01*
X166102989Y-137883600D01*
X166099000Y-137843097D01*
X166099000Y-136156903D01*
X166102989Y-136116400D01*
X166113015Y-136083348D01*
X166129292Y-136052897D01*
X166151201Y-136026201D01*
X166177897Y-136004292D01*
X166208348Y-135988015D01*
X166241400Y-135977989D01*
X166281903Y-135974000D01*
X167718097Y-135974000D01*
X167758600Y-135977989D01*
G37*
G36*
X136313500Y-137371000D02*
G01*
X134686500Y-137371000D01*
X134686500Y-136569000D01*
X136313500Y-136569000D01*
X136313500Y-137371000D01*
G37*
G36*
X130889500Y-137371000D02*
G01*
X129262500Y-137371000D01*
X129262500Y-136569000D01*
X130889500Y-136569000D01*
X130889500Y-137371000D01*
G37*
G36*
X136313500Y-136101000D02*
G01*
X134686500Y-136101000D01*
X134686500Y-135299000D01*
X136313500Y-135299000D01*
X136313500Y-136101000D01*
G37*
G36*
X130889500Y-136101000D02*
G01*
X129262500Y-136101000D01*
X129262500Y-135299000D01*
X130889500Y-135299000D01*
X130889500Y-136101000D01*
G37*
G36*
X148868228Y-134261703D02*
G01*
X149023100Y-134325853D01*
X149162481Y-134418985D01*
X149281015Y-134537519D01*
X149374147Y-134676900D01*
X149438297Y-134831772D01*
X149471000Y-134996184D01*
X149471000Y-135163816D01*
X149438297Y-135328228D01*
X149374147Y-135483100D01*
X149281015Y-135622481D01*
X149162481Y-135741015D01*
X149023100Y-135834147D01*
X148868228Y-135898297D01*
X148703816Y-135931000D01*
X148536184Y-135931000D01*
X148371772Y-135898297D01*
X148216900Y-135834147D01*
X148077519Y-135741015D01*
X147958985Y-135622481D01*
X147865853Y-135483100D01*
X147801703Y-135328228D01*
X147769000Y-135163816D01*
X147769000Y-134996184D01*
X147801703Y-134831772D01*
X147865853Y-134676900D01*
X147958985Y-134537519D01*
X148077519Y-134418985D01*
X148216900Y-134325853D01*
X148371772Y-134261703D01*
X148536184Y-134229000D01*
X148703816Y-134229000D01*
X148868228Y-134261703D01*
G37*
G36*
X141248228Y-134261703D02*
G01*
X141403100Y-134325853D01*
X141542481Y-134418985D01*
X141661015Y-134537519D01*
X141754147Y-134676900D01*
X141818297Y-134831772D01*
X141851000Y-134996184D01*
X141851000Y-135163816D01*
X141818297Y-135328228D01*
X141754147Y-135483100D01*
X141661015Y-135622481D01*
X141542481Y-135741015D01*
X141403100Y-135834147D01*
X141248228Y-135898297D01*
X141083816Y-135931000D01*
X140916184Y-135931000D01*
X140751772Y-135898297D01*
X140596900Y-135834147D01*
X140457519Y-135741015D01*
X140338985Y-135622481D01*
X140245853Y-135483100D01*
X140181703Y-135328228D01*
X140149000Y-135163816D01*
X140149000Y-134996184D01*
X140181703Y-134831772D01*
X140245853Y-134676900D01*
X140338985Y-134537519D01*
X140457519Y-134418985D01*
X140596900Y-134325853D01*
X140751772Y-134261703D01*
X140916184Y-134229000D01*
X141083816Y-134229000D01*
X141248228Y-134261703D01*
G37*
G36*
X119401000Y-135901000D02*
G01*
X117599000Y-135901000D01*
X117599000Y-134099000D01*
X119401000Y-134099000D01*
X119401000Y-135901000D01*
G37*
G36*
X136313500Y-134001000D02*
G01*
X134686500Y-134001000D01*
X134686500Y-133199000D01*
X136313500Y-133199000D01*
X136313500Y-134001000D01*
G37*
G36*
X130889500Y-134001000D02*
G01*
X129262500Y-134001000D01*
X129262500Y-133199000D01*
X130889500Y-133199000D01*
X130889500Y-134001000D01*
G37*
G36*
X148868228Y-131721703D02*
G01*
X149023100Y-131785853D01*
X149162481Y-131878985D01*
X149281015Y-131997519D01*
X149374147Y-132136900D01*
X149438297Y-132291772D01*
X149471000Y-132456184D01*
X149471000Y-132623816D01*
X149438297Y-132788228D01*
X149374147Y-132943100D01*
X149281015Y-133082481D01*
X149162481Y-133201015D01*
X149023100Y-133294147D01*
X148868228Y-133358297D01*
X148703816Y-133391000D01*
X148536184Y-133391000D01*
X148371772Y-133358297D01*
X148216900Y-133294147D01*
X148077519Y-133201015D01*
X147958985Y-133082481D01*
X147865853Y-132943100D01*
X147801703Y-132788228D01*
X147769000Y-132623816D01*
X147769000Y-132456184D01*
X147801703Y-132291772D01*
X147865853Y-132136900D01*
X147958985Y-131997519D01*
X148077519Y-131878985D01*
X148216900Y-131785853D01*
X148371772Y-131721703D01*
X148536184Y-131689000D01*
X148703816Y-131689000D01*
X148868228Y-131721703D01*
G37*
G36*
X141248228Y-131721703D02*
G01*
X141403100Y-131785853D01*
X141542481Y-131878985D01*
X141661015Y-131997519D01*
X141754147Y-132136900D01*
X141818297Y-132291772D01*
X141851000Y-132456184D01*
X141851000Y-132623816D01*
X141818297Y-132788228D01*
X141754147Y-132943100D01*
X141661015Y-133082481D01*
X141542481Y-133201015D01*
X141403100Y-133294147D01*
X141248228Y-133358297D01*
X141083816Y-133391000D01*
X140916184Y-133391000D01*
X140751772Y-133358297D01*
X140596900Y-133294147D01*
X140457519Y-133201015D01*
X140338985Y-133082481D01*
X140245853Y-132943100D01*
X140181703Y-132788228D01*
X140149000Y-132623816D01*
X140149000Y-132456184D01*
X140181703Y-132291772D01*
X140245853Y-132136900D01*
X140338985Y-131997519D01*
X140457519Y-131878985D01*
X140596900Y-131785853D01*
X140751772Y-131721703D01*
X140916184Y-131689000D01*
X141083816Y-131689000D01*
X141248228Y-131721703D01*
G37*
G36*
X136313500Y-132731000D02*
G01*
X134686500Y-132731000D01*
X134686500Y-131929000D01*
X136313500Y-131929000D01*
X136313500Y-132731000D01*
G37*
G36*
X130889500Y-132731000D02*
G01*
X129262500Y-132731000D01*
X129262500Y-131929000D01*
X130889500Y-131929000D01*
X130889500Y-132731000D01*
G37*
G36*
X136313500Y-131461000D02*
G01*
X134686500Y-131461000D01*
X134686500Y-130659000D01*
X136313500Y-130659000D01*
X136313500Y-131461000D01*
G37*
G36*
X130889500Y-131461000D02*
G01*
X129262500Y-131461000D01*
X129262500Y-130659000D01*
X130889500Y-130659000D01*
X130889500Y-131461000D01*
G37*
G36*
X141851000Y-130851000D02*
G01*
X140149000Y-130851000D01*
X140149000Y-129149000D01*
X141851000Y-129149000D01*
X141851000Y-130851000D01*
G37*
G36*
X148868228Y-129181703D02*
G01*
X149023100Y-129245853D01*
X149162481Y-129338985D01*
X149281015Y-129457519D01*
X149374147Y-129596900D01*
X149438297Y-129751772D01*
X149471000Y-129916184D01*
X149471000Y-130083816D01*
X149438297Y-130248228D01*
X149374147Y-130403100D01*
X149281015Y-130542481D01*
X149162481Y-130661015D01*
X149023100Y-130754147D01*
X148868228Y-130818297D01*
X148703816Y-130851000D01*
X148536184Y-130851000D01*
X148371772Y-130818297D01*
X148216900Y-130754147D01*
X148077519Y-130661015D01*
X147958985Y-130542481D01*
X147865853Y-130403100D01*
X147801703Y-130248228D01*
X147769000Y-130083816D01*
X147769000Y-129916184D01*
X147801703Y-129751772D01*
X147865853Y-129596900D01*
X147958985Y-129457519D01*
X148077519Y-129338985D01*
X148216900Y-129245853D01*
X148371772Y-129181703D01*
X148536184Y-129149000D01*
X148703816Y-129149000D01*
X148868228Y-129181703D01*
G37*
G36*
X130889500Y-130191000D02*
G01*
X129262500Y-130191000D01*
X129262500Y-129389000D01*
X130889500Y-129389000D01*
X130889500Y-130191000D01*
G37*
G36*
X136313500Y-130191000D02*
G01*
X134686500Y-130191000D01*
X134686500Y-129389000D01*
X136313500Y-129389000D01*
X136313500Y-130191000D01*
G37*
G36*
X168375256Y-125391298D02*
G01*
X168481579Y-125412447D01*
X168782042Y-125536903D01*
X169052451Y-125717585D01*
X169282415Y-125947549D01*
X169463097Y-126217958D01*
X169587553Y-126518421D01*
X169598679Y-126574354D01*
X169643256Y-126798456D01*
X169651000Y-126837391D01*
X169651000Y-127162609D01*
X169587553Y-127481579D01*
X169463097Y-127782042D01*
X169282415Y-128052451D01*
X169052451Y-128282415D01*
X168782042Y-128463097D01*
X168481579Y-128587553D01*
X168375256Y-128608702D01*
X168162611Y-128651000D01*
X167837389Y-128651000D01*
X167624744Y-128608702D01*
X167518421Y-128587553D01*
X167217958Y-128463097D01*
X166947549Y-128282415D01*
X166717585Y-128052451D01*
X166536903Y-127782042D01*
X166412447Y-127481579D01*
X166349000Y-127162609D01*
X166349000Y-126837391D01*
X166356745Y-126798456D01*
X166401321Y-126574354D01*
X166412447Y-126518421D01*
X166536903Y-126217958D01*
X166717585Y-125947549D01*
X166947549Y-125717585D01*
X167217958Y-125536903D01*
X167518421Y-125412447D01*
X167624744Y-125391298D01*
X167837389Y-125349000D01*
X168162611Y-125349000D01*
X168375256Y-125391298D01*
G37*
G36*
X119375256Y-125391298D02*
G01*
X119481579Y-125412447D01*
X119782042Y-125536903D01*
X120052451Y-125717585D01*
X120282415Y-125947549D01*
X120463097Y-126217958D01*
X120587553Y-126518421D01*
X120598679Y-126574354D01*
X120643256Y-126798456D01*
X120651000Y-126837391D01*
X120651000Y-127162609D01*
X120587553Y-127481579D01*
X120463097Y-127782042D01*
X120282415Y-128052451D01*
X120052451Y-128282415D01*
X119782042Y-128463097D01*
X119481579Y-128587553D01*
X119375256Y-128608702D01*
X119162611Y-128651000D01*
X118837389Y-128651000D01*
X118624744Y-128608702D01*
X118518421Y-128587553D01*
X118217958Y-128463097D01*
X117947549Y-128282415D01*
X117717585Y-128052451D01*
X117536903Y-127782042D01*
X117412447Y-127481579D01*
X117349000Y-127162609D01*
X117349000Y-126837391D01*
X117356745Y-126798456D01*
X117401321Y-126574354D01*
X117412447Y-126518421D01*
X117536903Y-126217958D01*
X117717585Y-125947549D01*
X117947549Y-125717585D01*
X118217958Y-125536903D01*
X118518421Y-125412447D01*
X118624744Y-125391298D01*
X118837389Y-125349000D01*
X119162611Y-125349000D01*
X119375256Y-125391298D01*
G37*
G36*
X138113512Y-125103927D02*
G01*
X138262812Y-125133624D01*
X138426784Y-125201544D01*
X138574354Y-125300147D01*
X138699853Y-125425646D01*
X138798456Y-125573216D01*
X138866376Y-125737188D01*
X138901000Y-125911259D01*
X138901000Y-126088741D01*
X138866376Y-126262812D01*
X138798456Y-126426784D01*
X138699853Y-126574354D01*
X138574354Y-126699853D01*
X138426784Y-126798456D01*
X138262812Y-126866376D01*
X138113512Y-126896073D01*
X138088742Y-126901000D01*
X137911258Y-126901000D01*
X137886488Y-126896073D01*
X137737188Y-126866376D01*
X137573216Y-126798456D01*
X137425646Y-126699853D01*
X137300147Y-126574354D01*
X137201544Y-126426784D01*
X137133624Y-126262812D01*
X137099000Y-126088741D01*
X137099000Y-125911259D01*
X137133624Y-125737188D01*
X137201544Y-125573216D01*
X137300147Y-125425646D01*
X137425646Y-125300147D01*
X137573216Y-125201544D01*
X137737188Y-125133624D01*
X137886488Y-125103927D01*
X137911258Y-125099000D01*
X138088742Y-125099000D01*
X138113512Y-125103927D01*
G37*
G36*
X136361000Y-126901000D02*
G01*
X134559000Y-126901000D01*
X134559000Y-125099000D01*
X136361000Y-125099000D01*
X136361000Y-126901000D01*
G37*
G36*
X153656720Y-123963520D02*
G01*
X153845881Y-124020901D01*
X154020212Y-124114083D01*
X154173015Y-124239485D01*
X154298417Y-124392288D01*
X154342182Y-124474167D01*
X154391598Y-124566617D01*
X154391599Y-124566620D01*
X154448980Y-124755781D01*
X154463500Y-124903207D01*
X154463500Y-125096794D01*
X154448980Y-125244220D01*
X154391599Y-125433381D01*
X154298417Y-125607712D01*
X154173015Y-125760515D01*
X154020212Y-125885917D01*
X153972802Y-125911258D01*
X153845883Y-125979098D01*
X153845880Y-125979099D01*
X153656719Y-126036480D01*
X153460000Y-126055855D01*
X153263280Y-126036480D01*
X153074119Y-125979099D01*
X152899788Y-125885917D01*
X152746985Y-125760515D01*
X152621583Y-125607712D01*
X152577818Y-125525833D01*
X152528402Y-125433383D01*
X152487986Y-125300148D01*
X152471020Y-125244219D01*
X152456500Y-125096793D01*
X152456500Y-124903206D01*
X152471020Y-124755780D01*
X152528401Y-124566619D01*
X152621583Y-124392288D01*
X152746985Y-124239485D01*
X152899788Y-124114083D01*
X153074120Y-124020901D01*
X153263281Y-123963520D01*
X153460000Y-123944145D01*
X153656720Y-123963520D01*
G37*
G36*
X156196720Y-123963520D02*
G01*
X156385881Y-124020901D01*
X156560212Y-124114083D01*
X156713015Y-124239485D01*
X156838417Y-124392288D01*
X156882182Y-124474167D01*
X156931598Y-124566617D01*
X156931599Y-124566620D01*
X156988980Y-124755781D01*
X157003500Y-124903207D01*
X157003500Y-125096794D01*
X156988980Y-125244220D01*
X156931599Y-125433381D01*
X156838417Y-125607712D01*
X156713015Y-125760515D01*
X156560212Y-125885917D01*
X156512802Y-125911258D01*
X156385883Y-125979098D01*
X156385880Y-125979099D01*
X156196719Y-126036480D01*
X156000000Y-126055855D01*
X155803280Y-126036480D01*
X155614119Y-125979099D01*
X155439788Y-125885917D01*
X155286985Y-125760515D01*
X155161583Y-125607712D01*
X155117818Y-125525833D01*
X155068402Y-125433383D01*
X155027986Y-125300148D01*
X155011020Y-125244219D01*
X154996500Y-125096793D01*
X154996500Y-124903206D01*
X155011020Y-124755780D01*
X155068401Y-124566619D01*
X155161583Y-124392288D01*
X155286985Y-124239485D01*
X155439788Y-124114083D01*
X155614120Y-124020901D01*
X155803281Y-123963520D01*
X156000000Y-123944145D01*
X156196720Y-123963520D01*
G37*
G36*
X159543500Y-126051000D02*
G01*
X157536500Y-126051000D01*
X157536500Y-123949000D01*
X159543500Y-123949000D01*
X159543500Y-126051000D01*
G37*
G36*
X119375256Y-117391298D02*
G01*
X119481579Y-117412447D01*
X119782042Y-117536903D01*
X120052451Y-117717585D01*
X120282415Y-117947549D01*
X120463097Y-118217958D01*
X120587553Y-118518421D01*
X120651000Y-118837391D01*
X120651000Y-119162609D01*
X120587553Y-119481579D01*
X120463097Y-119782042D01*
X120282415Y-120052451D01*
X120052451Y-120282415D01*
X119782042Y-120463097D01*
X119481579Y-120587553D01*
X119375256Y-120608702D01*
X119162611Y-120651000D01*
X118837389Y-120651000D01*
X118624744Y-120608702D01*
X118518421Y-120587553D01*
X118217958Y-120463097D01*
X117947549Y-120282415D01*
X117717585Y-120052451D01*
X117536903Y-119782042D01*
X117412447Y-119481579D01*
X117349000Y-119162609D01*
X117349000Y-118837391D01*
X117412447Y-118518421D01*
X117536903Y-118217958D01*
X117717585Y-117947549D01*
X117947549Y-117717585D01*
X118217958Y-117536903D01*
X118518421Y-117412447D01*
X118624744Y-117391298D01*
X118837389Y-117349000D01*
X119162611Y-117349000D01*
X119375256Y-117391298D01*
G37*
G36*
X168375256Y-117391298D02*
G01*
X168481579Y-117412447D01*
X168782042Y-117536903D01*
X169052451Y-117717585D01*
X169282415Y-117947549D01*
X169463097Y-118217958D01*
X169587553Y-118518421D01*
X169651000Y-118837391D01*
X169651000Y-119162609D01*
X169587553Y-119481579D01*
X169463097Y-119782042D01*
X169282415Y-120052451D01*
X169052451Y-120282415D01*
X168782042Y-120463097D01*
X168481579Y-120587553D01*
X168375256Y-120608702D01*
X168162611Y-120651000D01*
X167837389Y-120651000D01*
X167624744Y-120608702D01*
X167518421Y-120587553D01*
X167217958Y-120463097D01*
X166947549Y-120282415D01*
X166717585Y-120052451D01*
X166536903Y-119782042D01*
X166412447Y-119481579D01*
X166349000Y-119162609D01*
X166349000Y-118837391D01*
X166412447Y-118518421D01*
X166536903Y-118217958D01*
X166717585Y-117947549D01*
X166947549Y-117717585D01*
X167217958Y-117536903D01*
X167518421Y-117412447D01*
X167624744Y-117391298D01*
X167837389Y-117349000D01*
X168162611Y-117349000D01*
X168375256Y-117391298D01*
G37*
G36*
X145951000Y-119951000D02*
G01*
X142049000Y-119951000D01*
X142049000Y-116049000D01*
X145951000Y-116049000D01*
X145951000Y-119951000D01*
G37*
G36*
X131951000Y-119951000D02*
G01*
X128049000Y-119951000D01*
X128049000Y-116049000D01*
X131951000Y-116049000D01*
X131951000Y-119951000D01*
G37*
G36*
X144569085Y-111123975D02*
G01*
X144924143Y-111271045D01*
X144924145Y-111271046D01*
X145243690Y-111484559D01*
X145515441Y-111756310D01*
X145713614Y-112052897D01*
X145728955Y-112075857D01*
X145876025Y-112430915D01*
X145951000Y-112807842D01*
X145951000Y-113192158D01*
X145876025Y-113569085D01*
X145745748Y-113883600D01*
X145728954Y-113924145D01*
X145515441Y-114243690D01*
X145243690Y-114515441D01*
X144924145Y-114728954D01*
X144924144Y-114728955D01*
X144924143Y-114728955D01*
X144569085Y-114876025D01*
X144192158Y-114951000D01*
X143807842Y-114951000D01*
X143430915Y-114876025D01*
X143075857Y-114728955D01*
X143075856Y-114728955D01*
X143075855Y-114728954D01*
X142756310Y-114515441D01*
X142484559Y-114243690D01*
X142271046Y-113924145D01*
X142254252Y-113883600D01*
X142123975Y-113569085D01*
X142049000Y-113192158D01*
X142049000Y-112807842D01*
X142123975Y-112430915D01*
X142271045Y-112075857D01*
X142286386Y-112052897D01*
X142484559Y-111756310D01*
X142756310Y-111484559D01*
X143075855Y-111271046D01*
X143075857Y-111271045D01*
X143430915Y-111123975D01*
X143807842Y-111049000D01*
X144192158Y-111049000D01*
X144569085Y-111123975D01*
G37*
G36*
X130569085Y-111123975D02*
G01*
X130924143Y-111271045D01*
X130924145Y-111271046D01*
X131243690Y-111484559D01*
X131515441Y-111756310D01*
X131713614Y-112052897D01*
X131728955Y-112075857D01*
X131876025Y-112430915D01*
X131951000Y-112807842D01*
X131951000Y-113192158D01*
X131876025Y-113569085D01*
X131745748Y-113883600D01*
X131728954Y-113924145D01*
X131515441Y-114243690D01*
X131243690Y-114515441D01*
X130924145Y-114728954D01*
X130924144Y-114728955D01*
X130924143Y-114728955D01*
X130569085Y-114876025D01*
X130192158Y-114951000D01*
X129807842Y-114951000D01*
X129430915Y-114876025D01*
X129075857Y-114728955D01*
X129075856Y-114728955D01*
X129075855Y-114728954D01*
X128756310Y-114515441D01*
X128484559Y-114243690D01*
X128271046Y-113924145D01*
X128254252Y-113883600D01*
X128123975Y-113569085D01*
X128049000Y-113192158D01*
X128049000Y-112807842D01*
X128123975Y-112430915D01*
X128271045Y-112075857D01*
X128286386Y-112052897D01*
X128484559Y-111756310D01*
X128756310Y-111484559D01*
X129075855Y-111271046D01*
X129075857Y-111271045D01*
X129430915Y-111123975D01*
X129807842Y-111049000D01*
X130192158Y-111049000D01*
X130569085Y-111123975D01*
G37*
G36*
X162176627Y-111987037D02*
G01*
X162346466Y-112038557D01*
X162502991Y-112122222D01*
X162538729Y-112151552D01*
X162640186Y-112234814D01*
X162723448Y-112336271D01*
X162752778Y-112372009D01*
X162836443Y-112528534D01*
X162887963Y-112698374D01*
X162891507Y-112734354D01*
X162898745Y-112807842D01*
X162901000Y-112830743D01*
X162901000Y-113169258D01*
X162887963Y-113301627D01*
X162836443Y-113471466D01*
X162752778Y-113627991D01*
X162723448Y-113663729D01*
X162640186Y-113765186D01*
X162502989Y-113877779D01*
X162346467Y-113961442D01*
X162346465Y-113961443D01*
X162176626Y-114012963D01*
X162000000Y-114030359D01*
X161823373Y-114012963D01*
X161653534Y-113961443D01*
X161497009Y-113877778D01*
X161454750Y-113843097D01*
X161359814Y-113765186D01*
X161247221Y-113627989D01*
X161163558Y-113471467D01*
X161163557Y-113471465D01*
X161112037Y-113301626D01*
X161105519Y-113235442D01*
X161099000Y-113169259D01*
X161099000Y-112830740D01*
X161112037Y-112698375D01*
X161112037Y-112698373D01*
X161163557Y-112528534D01*
X161247222Y-112372009D01*
X161359815Y-112234815D01*
X161497010Y-112122222D01*
X161653535Y-112038557D01*
X161823374Y-111987037D01*
X162000000Y-111969641D01*
X162176627Y-111987037D01*
G37*
G36*
X159676627Y-111987037D02*
G01*
X159846466Y-112038557D01*
X160002991Y-112122222D01*
X160038729Y-112151552D01*
X160140186Y-112234814D01*
X160223448Y-112336271D01*
X160252778Y-112372009D01*
X160336443Y-112528534D01*
X160387963Y-112698374D01*
X160391507Y-112734354D01*
X160398745Y-112807842D01*
X160401000Y-112830743D01*
X160401000Y-113169258D01*
X160387963Y-113301627D01*
X160336443Y-113471466D01*
X160252778Y-113627991D01*
X160223448Y-113663729D01*
X160140186Y-113765186D01*
X160002989Y-113877779D01*
X159846467Y-113961442D01*
X159846465Y-113961443D01*
X159676626Y-114012963D01*
X159500000Y-114030359D01*
X159323373Y-114012963D01*
X159153534Y-113961443D01*
X158997009Y-113877778D01*
X158954750Y-113843097D01*
X158859814Y-113765186D01*
X158747221Y-113627989D01*
X158663558Y-113471467D01*
X158663557Y-113471465D01*
X158612037Y-113301626D01*
X158605519Y-113235442D01*
X158599000Y-113169259D01*
X158599000Y-112830740D01*
X158612037Y-112698375D01*
X158612037Y-112698373D01*
X158663557Y-112528534D01*
X158747222Y-112372009D01*
X158859815Y-112234815D01*
X158997010Y-112122222D01*
X159153535Y-112038557D01*
X159323374Y-111987037D01*
X159500000Y-111969641D01*
X159676627Y-111987037D01*
G37*
G36*
X164676627Y-111987037D02*
G01*
X164846466Y-112038557D01*
X165002991Y-112122222D01*
X165038729Y-112151552D01*
X165140186Y-112234814D01*
X165223448Y-112336271D01*
X165252778Y-112372009D01*
X165336443Y-112528534D01*
X165387963Y-112698374D01*
X165391507Y-112734354D01*
X165398745Y-112807842D01*
X165401000Y-112830743D01*
X165401000Y-113169258D01*
X165387963Y-113301627D01*
X165336443Y-113471466D01*
X165252778Y-113627991D01*
X165223448Y-113663729D01*
X165140186Y-113765186D01*
X165002989Y-113877779D01*
X164846467Y-113961442D01*
X164846465Y-113961443D01*
X164676626Y-114012963D01*
X164500000Y-114030359D01*
X164323373Y-114012963D01*
X164153534Y-113961443D01*
X163997009Y-113877778D01*
X163954750Y-113843097D01*
X163859814Y-113765186D01*
X163747221Y-113627989D01*
X163663558Y-113471467D01*
X163663557Y-113471465D01*
X163612037Y-113301626D01*
X163605519Y-113235442D01*
X163599000Y-113169259D01*
X163599000Y-112830740D01*
X163612037Y-112698375D01*
X163612037Y-112698373D01*
X163663557Y-112528534D01*
X163747222Y-112372009D01*
X163859815Y-112234815D01*
X163997010Y-112122222D01*
X164153535Y-112038557D01*
X164323374Y-111987037D01*
X164500000Y-111969641D01*
X164676627Y-111987037D01*
G37*
G36*
X167758600Y-111977989D02*
G01*
X167791652Y-111988015D01*
X167822103Y-112004292D01*
X167848799Y-112026201D01*
X167870708Y-112052897D01*
X167886985Y-112083348D01*
X167897011Y-112116400D01*
X167901000Y-112156903D01*
X167901000Y-113843097D01*
X167897011Y-113883600D01*
X167886985Y-113916652D01*
X167870708Y-113947103D01*
X167848799Y-113973799D01*
X167822103Y-113995708D01*
X167791652Y-114011985D01*
X167758600Y-114022011D01*
X167718097Y-114026000D01*
X166281903Y-114026000D01*
X166241400Y-114022011D01*
X166208348Y-114011985D01*
X166177897Y-113995708D01*
X166151201Y-113973799D01*
X166129292Y-113947103D01*
X166113015Y-113916652D01*
X166102989Y-113883600D01*
X166099000Y-113843097D01*
X166099000Y-112156903D01*
X166102989Y-112116400D01*
X166113015Y-112083348D01*
X166129292Y-112052897D01*
X166151201Y-112026201D01*
X166177897Y-112004292D01*
X166208348Y-111988015D01*
X166241400Y-111977989D01*
X166281903Y-111974000D01*
X167718097Y-111974000D01*
X167758600Y-111977989D01*
G37*
G36*
X118613512Y-111263927D02*
G01*
X118762812Y-111293624D01*
X118926784Y-111361544D01*
X119074354Y-111460147D01*
X119199853Y-111585646D01*
X119298456Y-111733216D01*
X119366376Y-111897188D01*
X119401000Y-112071259D01*
X119401000Y-112248741D01*
X119366376Y-112422812D01*
X119298456Y-112586784D01*
X119199853Y-112734354D01*
X119074354Y-112859853D01*
X118926784Y-112958456D01*
X118762812Y-113026376D01*
X118613512Y-113056073D01*
X118588742Y-113061000D01*
X118411258Y-113061000D01*
X118386488Y-113056073D01*
X118237188Y-113026376D01*
X118073216Y-112958456D01*
X117925646Y-112859853D01*
X117800147Y-112734354D01*
X117701544Y-112586784D01*
X117633624Y-112422812D01*
X117599000Y-112248741D01*
X117599000Y-112071259D01*
X117633624Y-111897188D01*
X117701544Y-111733216D01*
X117800147Y-111585646D01*
X117925646Y-111460147D01*
X118073216Y-111361544D01*
X118237188Y-111293624D01*
X118386488Y-111263927D01*
X118411258Y-111259000D01*
X118588742Y-111259000D01*
X118613512Y-111263927D01*
G37*
G36*
X118613512Y-108723927D02*
G01*
X118762812Y-108753624D01*
X118926784Y-108821544D01*
X119074354Y-108920147D01*
X119199853Y-109045646D01*
X119298456Y-109193216D01*
X119366376Y-109357188D01*
X119401000Y-109531259D01*
X119401000Y-109708741D01*
X119366376Y-109882812D01*
X119298456Y-110046784D01*
X119199853Y-110194354D01*
X119074354Y-110319853D01*
X118926784Y-110418456D01*
X118762812Y-110486376D01*
X118613512Y-110516073D01*
X118588742Y-110521000D01*
X118411258Y-110521000D01*
X118386488Y-110516073D01*
X118237188Y-110486376D01*
X118073216Y-110418456D01*
X117925646Y-110319853D01*
X117800147Y-110194354D01*
X117701544Y-110046784D01*
X117633624Y-109882812D01*
X117599000Y-109708741D01*
X117599000Y-109531259D01*
X117633624Y-109357188D01*
X117701544Y-109193216D01*
X117800147Y-109045646D01*
X117925646Y-108920147D01*
X118073216Y-108821544D01*
X118237188Y-108753624D01*
X118386488Y-108723927D01*
X118411258Y-108719000D01*
X118588742Y-108719000D01*
X118613512Y-108723927D01*
G37*
G36*
X118613512Y-106183927D02*
G01*
X118762812Y-106213624D01*
X118926784Y-106281544D01*
X119074354Y-106380147D01*
X119199853Y-106505646D01*
X119298456Y-106653216D01*
X119366376Y-106817188D01*
X119401000Y-106991259D01*
X119401000Y-107168741D01*
X119366376Y-107342812D01*
X119298456Y-107506784D01*
X119199853Y-107654354D01*
X119074354Y-107779853D01*
X118926784Y-107878456D01*
X118762812Y-107946376D01*
X118613512Y-107976073D01*
X118588742Y-107981000D01*
X118411258Y-107981000D01*
X118386488Y-107976073D01*
X118237188Y-107946376D01*
X118073216Y-107878456D01*
X117925646Y-107779853D01*
X117800147Y-107654354D01*
X117701544Y-107506784D01*
X117633624Y-107342812D01*
X117599000Y-107168741D01*
X117599000Y-106991259D01*
X117633624Y-106817188D01*
X117701544Y-106653216D01*
X117800147Y-106505646D01*
X117925646Y-106380147D01*
X118073216Y-106281544D01*
X118237188Y-106213624D01*
X118386488Y-106183927D01*
X118411258Y-106179000D01*
X118588742Y-106179000D01*
X118613512Y-106183927D01*
G37*
G36*
X130889500Y-106911000D02*
G01*
X129262500Y-106911000D01*
X129262500Y-106109000D01*
X130889500Y-106109000D01*
X130889500Y-106911000D01*
G37*
G36*
X136313500Y-106911000D02*
G01*
X134686500Y-106911000D01*
X134686500Y-106109000D01*
X136313500Y-106109000D01*
X136313500Y-106911000D01*
G37*
G36*
X130889500Y-105641000D02*
G01*
X129262500Y-105641000D01*
X129262500Y-104839000D01*
X130889500Y-104839000D01*
X130889500Y-105641000D01*
G37*
G36*
X136313500Y-105641000D02*
G01*
X134686500Y-105641000D01*
X134686500Y-104839000D01*
X136313500Y-104839000D01*
X136313500Y-105641000D01*
G37*
G36*
X141248228Y-103801703D02*
G01*
X141403100Y-103865853D01*
X141542481Y-103958985D01*
X141661015Y-104077519D01*
X141754147Y-104216900D01*
X141818297Y-104371772D01*
X141851000Y-104536184D01*
X141851000Y-104703816D01*
X141818297Y-104868228D01*
X141754147Y-105023100D01*
X141661015Y-105162481D01*
X141542481Y-105281015D01*
X141403100Y-105374147D01*
X141248228Y-105438297D01*
X141083816Y-105471000D01*
X140916184Y-105471000D01*
X140751772Y-105438297D01*
X140596900Y-105374147D01*
X140457519Y-105281015D01*
X140338985Y-105162481D01*
X140245853Y-105023100D01*
X140181703Y-104868228D01*
X140149000Y-104703816D01*
X140149000Y-104536184D01*
X140181703Y-104371772D01*
X140245853Y-104216900D01*
X140338985Y-104077519D01*
X140457519Y-103958985D01*
X140596900Y-103865853D01*
X140751772Y-103801703D01*
X140916184Y-103769000D01*
X141083816Y-103769000D01*
X141248228Y-103801703D01*
G37*
G36*
X148868228Y-103801703D02*
G01*
X149023100Y-103865853D01*
X149162481Y-103958985D01*
X149281015Y-104077519D01*
X149374147Y-104216900D01*
X149438297Y-104371772D01*
X149471000Y-104536184D01*
X149471000Y-104703816D01*
X149438297Y-104868228D01*
X149374147Y-105023100D01*
X149281015Y-105162481D01*
X149162481Y-105281015D01*
X149023100Y-105374147D01*
X148868228Y-105438297D01*
X148703816Y-105471000D01*
X148536184Y-105471000D01*
X148371772Y-105438297D01*
X148216900Y-105374147D01*
X148077519Y-105281015D01*
X147958985Y-105162481D01*
X147865853Y-105023100D01*
X147801703Y-104868228D01*
X147769000Y-104703816D01*
X147769000Y-104536184D01*
X147801703Y-104371772D01*
X147865853Y-104216900D01*
X147958985Y-104077519D01*
X148077519Y-103958985D01*
X148216900Y-103865853D01*
X148371772Y-103801703D01*
X148536184Y-103769000D01*
X148703816Y-103769000D01*
X148868228Y-103801703D01*
G37*
G36*
X118613512Y-103643927D02*
G01*
X118762812Y-103673624D01*
X118926784Y-103741544D01*
X119074354Y-103840147D01*
X119199853Y-103965646D01*
X119298456Y-104113216D01*
X119366376Y-104277188D01*
X119401000Y-104451259D01*
X119401000Y-104628741D01*
X119366376Y-104802812D01*
X119298456Y-104966784D01*
X119199853Y-105114354D01*
X119074354Y-105239853D01*
X118926784Y-105338456D01*
X118762812Y-105406376D01*
X118613512Y-105436073D01*
X118588742Y-105441000D01*
X118411258Y-105441000D01*
X118386488Y-105436073D01*
X118237188Y-105406376D01*
X118073216Y-105338456D01*
X117925646Y-105239853D01*
X117800147Y-105114354D01*
X117701544Y-104966784D01*
X117633624Y-104802812D01*
X117599000Y-104628741D01*
X117599000Y-104451259D01*
X117633624Y-104277188D01*
X117701544Y-104113216D01*
X117800147Y-103965646D01*
X117925646Y-103840147D01*
X118073216Y-103741544D01*
X118237188Y-103673624D01*
X118386488Y-103643927D01*
X118411258Y-103639000D01*
X118588742Y-103639000D01*
X118613512Y-103643927D01*
G37*
G36*
X164676627Y-102987037D02*
G01*
X164846466Y-103038557D01*
X165002991Y-103122222D01*
X165038729Y-103151552D01*
X165140186Y-103234814D01*
X165223448Y-103336271D01*
X165252778Y-103372009D01*
X165336443Y-103528534D01*
X165387963Y-103698374D01*
X165387963Y-103698376D01*
X165401000Y-103830741D01*
X165401000Y-104169260D01*
X165394481Y-104235443D01*
X165387963Y-104301627D01*
X165336443Y-104471466D01*
X165252778Y-104627991D01*
X165223448Y-104663729D01*
X165140186Y-104765186D01*
X165002989Y-104877779D01*
X164846467Y-104961442D01*
X164846465Y-104961443D01*
X164676626Y-105012963D01*
X164500000Y-105030359D01*
X164323373Y-105012963D01*
X164153534Y-104961443D01*
X163997009Y-104877778D01*
X163949758Y-104839000D01*
X163859814Y-104765186D01*
X163747221Y-104627989D01*
X163663558Y-104471467D01*
X163657428Y-104451259D01*
X163612037Y-104301626D01*
X163599000Y-104169257D01*
X163599000Y-103830742D01*
X163612037Y-103698373D01*
X163663557Y-103528534D01*
X163747222Y-103372009D01*
X163859815Y-103234815D01*
X163997010Y-103122222D01*
X164153535Y-103038557D01*
X164323374Y-102987037D01*
X164500000Y-102969641D01*
X164676627Y-102987037D01*
G37*
G36*
X162176627Y-102987037D02*
G01*
X162346466Y-103038557D01*
X162502991Y-103122222D01*
X162538729Y-103151552D01*
X162640186Y-103234814D01*
X162723448Y-103336271D01*
X162752778Y-103372009D01*
X162836443Y-103528534D01*
X162887963Y-103698374D01*
X162887963Y-103698376D01*
X162901000Y-103830741D01*
X162901000Y-104169260D01*
X162894481Y-104235443D01*
X162887963Y-104301627D01*
X162836443Y-104471466D01*
X162752778Y-104627991D01*
X162723448Y-104663729D01*
X162640186Y-104765186D01*
X162502989Y-104877779D01*
X162346467Y-104961442D01*
X162346465Y-104961443D01*
X162176626Y-105012963D01*
X162000000Y-105030359D01*
X161823373Y-105012963D01*
X161653534Y-104961443D01*
X161497009Y-104877778D01*
X161449758Y-104839000D01*
X161359814Y-104765186D01*
X161247221Y-104627989D01*
X161163558Y-104471467D01*
X161157428Y-104451259D01*
X161112037Y-104301626D01*
X161099000Y-104169257D01*
X161099000Y-103830742D01*
X161112037Y-103698373D01*
X161163557Y-103528534D01*
X161247222Y-103372009D01*
X161359815Y-103234815D01*
X161497010Y-103122222D01*
X161653535Y-103038557D01*
X161823374Y-102987037D01*
X162000000Y-102969641D01*
X162176627Y-102987037D01*
G37*
G36*
X159676627Y-102987037D02*
G01*
X159846466Y-103038557D01*
X160002991Y-103122222D01*
X160038729Y-103151552D01*
X160140186Y-103234814D01*
X160223448Y-103336271D01*
X160252778Y-103372009D01*
X160336443Y-103528534D01*
X160387963Y-103698374D01*
X160387963Y-103698376D01*
X160401000Y-103830741D01*
X160401000Y-104169260D01*
X160394481Y-104235443D01*
X160387963Y-104301627D01*
X160336443Y-104471466D01*
X160252778Y-104627991D01*
X160223448Y-104663729D01*
X160140186Y-104765186D01*
X160002989Y-104877779D01*
X159846467Y-104961442D01*
X159846465Y-104961443D01*
X159676626Y-105012963D01*
X159500000Y-105030359D01*
X159323373Y-105012963D01*
X159153534Y-104961443D01*
X158997009Y-104877778D01*
X158949758Y-104839000D01*
X158859814Y-104765186D01*
X158747221Y-104627989D01*
X158663558Y-104471467D01*
X158657428Y-104451259D01*
X158612037Y-104301626D01*
X158599000Y-104169257D01*
X158599000Y-103830742D01*
X158612037Y-103698373D01*
X158663557Y-103528534D01*
X158747222Y-103372009D01*
X158859815Y-103234815D01*
X158997010Y-103122222D01*
X159153535Y-103038557D01*
X159323374Y-102987037D01*
X159500000Y-102969641D01*
X159676627Y-102987037D01*
G37*
G36*
X167758600Y-102977989D02*
G01*
X167791652Y-102988015D01*
X167822103Y-103004292D01*
X167848799Y-103026201D01*
X167870708Y-103052897D01*
X167886985Y-103083348D01*
X167897011Y-103116400D01*
X167901000Y-103156903D01*
X167901000Y-104843097D01*
X167897011Y-104883600D01*
X167886985Y-104916652D01*
X167870708Y-104947103D01*
X167848799Y-104973799D01*
X167822103Y-104995708D01*
X167791652Y-105011985D01*
X167758600Y-105022011D01*
X167718097Y-105026000D01*
X166281903Y-105026000D01*
X166241400Y-105022011D01*
X166208348Y-105011985D01*
X166177897Y-104995708D01*
X166151201Y-104973799D01*
X166129292Y-104947103D01*
X166113015Y-104916652D01*
X166102989Y-104883600D01*
X166099000Y-104843097D01*
X166099000Y-103156903D01*
X166102989Y-103116400D01*
X166113015Y-103083348D01*
X166129292Y-103052897D01*
X166151201Y-103026201D01*
X166177897Y-103004292D01*
X166208348Y-102988015D01*
X166241400Y-102977989D01*
X166281903Y-102974000D01*
X167718097Y-102974000D01*
X167758600Y-102977989D01*
G37*
G36*
X130889500Y-104371000D02*
G01*
X129262500Y-104371000D01*
X129262500Y-103569000D01*
X130889500Y-103569000D01*
X130889500Y-104371000D01*
G37*
G36*
X136313500Y-104371000D02*
G01*
X134686500Y-104371000D01*
X134686500Y-103569000D01*
X136313500Y-103569000D01*
X136313500Y-104371000D01*
G37*
G36*
X130889500Y-103101000D02*
G01*
X129262500Y-103101000D01*
X129262500Y-102299000D01*
X130889500Y-102299000D01*
X130889500Y-103101000D01*
G37*
G36*
X136313500Y-103101000D02*
G01*
X134686500Y-103101000D01*
X134686500Y-102299000D01*
X136313500Y-102299000D01*
X136313500Y-103101000D01*
G37*
G36*
X148868228Y-101261703D02*
G01*
X149023100Y-101325853D01*
X149162481Y-101418985D01*
X149281015Y-101537519D01*
X149374147Y-101676900D01*
X149438297Y-101831772D01*
X149471000Y-101996184D01*
X149471000Y-102163816D01*
X149438297Y-102328228D01*
X149374147Y-102483100D01*
X149281015Y-102622481D01*
X149162481Y-102741015D01*
X149023100Y-102834147D01*
X148868228Y-102898297D01*
X148703816Y-102931000D01*
X148536184Y-102931000D01*
X148371772Y-102898297D01*
X148216900Y-102834147D01*
X148077519Y-102741015D01*
X147958985Y-102622481D01*
X147865853Y-102483100D01*
X147801703Y-102328228D01*
X147769000Y-102163816D01*
X147769000Y-101996184D01*
X147801703Y-101831772D01*
X147865853Y-101676900D01*
X147958985Y-101537519D01*
X148077519Y-101418985D01*
X148216900Y-101325853D01*
X148371772Y-101261703D01*
X148536184Y-101229000D01*
X148703816Y-101229000D01*
X148868228Y-101261703D01*
G37*
G36*
X141248228Y-101261703D02*
G01*
X141403100Y-101325853D01*
X141542481Y-101418985D01*
X141661015Y-101537519D01*
X141754147Y-101676900D01*
X141818297Y-101831772D01*
X141851000Y-101996184D01*
X141851000Y-102163816D01*
X141818297Y-102328228D01*
X141754147Y-102483100D01*
X141661015Y-102622481D01*
X141542481Y-102741015D01*
X141403100Y-102834147D01*
X141248228Y-102898297D01*
X141083816Y-102931000D01*
X140916184Y-102931000D01*
X140751772Y-102898297D01*
X140596900Y-102834147D01*
X140457519Y-102741015D01*
X140338985Y-102622481D01*
X140245853Y-102483100D01*
X140181703Y-102328228D01*
X140149000Y-102163816D01*
X140149000Y-101996184D01*
X140181703Y-101831772D01*
X140245853Y-101676900D01*
X140338985Y-101537519D01*
X140457519Y-101418985D01*
X140596900Y-101325853D01*
X140751772Y-101261703D01*
X140916184Y-101229000D01*
X141083816Y-101229000D01*
X141248228Y-101261703D01*
G37*
G36*
X119401000Y-102901000D02*
G01*
X117599000Y-102901000D01*
X117599000Y-101099000D01*
X119401000Y-101099000D01*
X119401000Y-102901000D01*
G37*
G36*
X130889500Y-101001000D02*
G01*
X129262500Y-101001000D01*
X129262500Y-100199000D01*
X130889500Y-100199000D01*
X130889500Y-101001000D01*
G37*
G36*
X136313500Y-101001000D02*
G01*
X134686500Y-101001000D01*
X134686500Y-100199000D01*
X136313500Y-100199000D01*
X136313500Y-101001000D01*
G37*
G36*
X148868228Y-98721703D02*
G01*
X149023100Y-98785853D01*
X149162481Y-98878985D01*
X149281015Y-98997519D01*
X149374147Y-99136900D01*
X149438297Y-99291772D01*
X149471000Y-99456184D01*
X149471000Y-99623816D01*
X149438297Y-99788228D01*
X149374147Y-99943100D01*
X149281015Y-100082481D01*
X149162481Y-100201015D01*
X149023100Y-100294147D01*
X148868228Y-100358297D01*
X148703816Y-100391000D01*
X148536184Y-100391000D01*
X148371772Y-100358297D01*
X148216900Y-100294147D01*
X148077519Y-100201015D01*
X147958985Y-100082481D01*
X147865853Y-99943100D01*
X147801703Y-99788228D01*
X147769000Y-99623816D01*
X147769000Y-99456184D01*
X147801703Y-99291772D01*
X147865853Y-99136900D01*
X147958985Y-98997519D01*
X148077519Y-98878985D01*
X148216900Y-98785853D01*
X148371772Y-98721703D01*
X148536184Y-98689000D01*
X148703816Y-98689000D01*
X148868228Y-98721703D01*
G37*
G36*
X141248228Y-98721703D02*
G01*
X141403100Y-98785853D01*
X141542481Y-98878985D01*
X141661015Y-98997519D01*
X141754147Y-99136900D01*
X141818297Y-99291772D01*
X141851000Y-99456184D01*
X141851000Y-99623816D01*
X141818297Y-99788228D01*
X141754147Y-99943100D01*
X141661015Y-100082481D01*
X141542481Y-100201015D01*
X141403100Y-100294147D01*
X141248228Y-100358297D01*
X141083816Y-100391000D01*
X140916184Y-100391000D01*
X140751772Y-100358297D01*
X140596900Y-100294147D01*
X140457519Y-100201015D01*
X140338985Y-100082481D01*
X140245853Y-99943100D01*
X140181703Y-99788228D01*
X140149000Y-99623816D01*
X140149000Y-99456184D01*
X140181703Y-99291772D01*
X140245853Y-99136900D01*
X140338985Y-98997519D01*
X140457519Y-98878985D01*
X140596900Y-98785853D01*
X140751772Y-98721703D01*
X140916184Y-98689000D01*
X141083816Y-98689000D01*
X141248228Y-98721703D01*
G37*
G36*
X136313500Y-99731000D02*
G01*
X134686500Y-99731000D01*
X134686500Y-98929000D01*
X136313500Y-98929000D01*
X136313500Y-99731000D01*
G37*
G36*
X130889500Y-99731000D02*
G01*
X129262500Y-99731000D01*
X129262500Y-98929000D01*
X130889500Y-98929000D01*
X130889500Y-99731000D01*
G37*
G36*
X136313500Y-98461000D02*
G01*
X134686500Y-98461000D01*
X134686500Y-97659000D01*
X136313500Y-97659000D01*
X136313500Y-98461000D01*
G37*
G36*
X130889500Y-98461000D02*
G01*
X129262500Y-98461000D01*
X129262500Y-97659000D01*
X130889500Y-97659000D01*
X130889500Y-98461000D01*
G37*
G36*
X148868228Y-96181703D02*
G01*
X149023100Y-96245853D01*
X149162481Y-96338985D01*
X149281015Y-96457519D01*
X149374147Y-96596900D01*
X149438297Y-96751772D01*
X149471000Y-96916184D01*
X149471000Y-97083816D01*
X149438297Y-97248228D01*
X149374147Y-97403100D01*
X149281015Y-97542481D01*
X149162481Y-97661015D01*
X149023100Y-97754147D01*
X148868228Y-97818297D01*
X148703816Y-97851000D01*
X148536184Y-97851000D01*
X148371772Y-97818297D01*
X148216900Y-97754147D01*
X148077519Y-97661015D01*
X147958985Y-97542481D01*
X147865853Y-97403100D01*
X147801703Y-97248228D01*
X147769000Y-97083816D01*
X147769000Y-96916184D01*
X147801703Y-96751772D01*
X147865853Y-96596900D01*
X147958985Y-96457519D01*
X148077519Y-96338985D01*
X148216900Y-96245853D01*
X148371772Y-96181703D01*
X148536184Y-96149000D01*
X148703816Y-96149000D01*
X148868228Y-96181703D01*
G37*
G36*
X141851000Y-97851000D02*
G01*
X140149000Y-97851000D01*
X140149000Y-96149000D01*
X141851000Y-96149000D01*
X141851000Y-97851000D01*
G37*
G36*
X130889500Y-97191000D02*
G01*
X129262500Y-97191000D01*
X129262500Y-96389000D01*
X130889500Y-96389000D01*
X130889500Y-97191000D01*
G37*
G36*
X136313500Y-97191000D02*
G01*
X134686500Y-97191000D01*
X134686500Y-96389000D01*
X136313500Y-96389000D01*
X136313500Y-97191000D01*
G37*
G36*
X168375256Y-92391298D02*
G01*
X168481579Y-92412447D01*
X168782042Y-92536903D01*
X169052451Y-92717585D01*
X169282415Y-92947549D01*
X169463097Y-93217958D01*
X169587553Y-93518421D01*
X169598679Y-93574354D01*
X169643256Y-93798456D01*
X169651000Y-93837391D01*
X169651000Y-94162609D01*
X169587553Y-94481579D01*
X169463097Y-94782042D01*
X169282415Y-95052451D01*
X169052451Y-95282415D01*
X168782042Y-95463097D01*
X168481579Y-95587553D01*
X168375256Y-95608702D01*
X168162611Y-95651000D01*
X167837389Y-95651000D01*
X167624744Y-95608702D01*
X167518421Y-95587553D01*
X167217958Y-95463097D01*
X166947549Y-95282415D01*
X166717585Y-95052451D01*
X166536903Y-94782042D01*
X166412447Y-94481579D01*
X166349000Y-94162609D01*
X166349000Y-93837391D01*
X166356745Y-93798456D01*
X166401321Y-93574354D01*
X166412447Y-93518421D01*
X166536903Y-93217958D01*
X166717585Y-92947549D01*
X166947549Y-92717585D01*
X167217958Y-92536903D01*
X167518421Y-92412447D01*
X167624744Y-92391298D01*
X167837389Y-92349000D01*
X168162611Y-92349000D01*
X168375256Y-92391298D01*
G37*
G36*
X119375256Y-92391298D02*
G01*
X119481579Y-92412447D01*
X119782042Y-92536903D01*
X120052451Y-92717585D01*
X120282415Y-92947549D01*
X120463097Y-93217958D01*
X120587553Y-93518421D01*
X120598679Y-93574354D01*
X120643256Y-93798456D01*
X120651000Y-93837391D01*
X120651000Y-94162609D01*
X120587553Y-94481579D01*
X120463097Y-94782042D01*
X120282415Y-95052451D01*
X120052451Y-95282415D01*
X119782042Y-95463097D01*
X119481579Y-95587553D01*
X119375256Y-95608702D01*
X119162611Y-95651000D01*
X118837389Y-95651000D01*
X118624744Y-95608702D01*
X118518421Y-95587553D01*
X118217958Y-95463097D01*
X117947549Y-95282415D01*
X117717585Y-95052451D01*
X117536903Y-94782042D01*
X117412447Y-94481579D01*
X117349000Y-94162609D01*
X117349000Y-93837391D01*
X117356745Y-93798456D01*
X117401321Y-93574354D01*
X117412447Y-93518421D01*
X117536903Y-93217958D01*
X117717585Y-92947549D01*
X117947549Y-92717585D01*
X118217958Y-92536903D01*
X118518421Y-92412447D01*
X118624744Y-92391298D01*
X118837389Y-92349000D01*
X119162611Y-92349000D01*
X119375256Y-92391298D01*
G37*
G36*
X136361000Y-93901000D02*
G01*
X134559000Y-93901000D01*
X134559000Y-92099000D01*
X136361000Y-92099000D01*
X136361000Y-93901000D01*
G37*
G36*
X138113512Y-92103927D02*
G01*
X138262812Y-92133624D01*
X138426784Y-92201544D01*
X138574354Y-92300147D01*
X138699853Y-92425646D01*
X138798456Y-92573216D01*
X138866376Y-92737188D01*
X138901000Y-92911259D01*
X138901000Y-93088741D01*
X138866376Y-93262812D01*
X138798456Y-93426784D01*
X138699853Y-93574354D01*
X138574354Y-93699853D01*
X138426784Y-93798456D01*
X138262812Y-93866376D01*
X138113512Y-93896073D01*
X138088742Y-93901000D01*
X137911258Y-93901000D01*
X137886488Y-93896073D01*
X137737188Y-93866376D01*
X137573216Y-93798456D01*
X137425646Y-93699853D01*
X137300147Y-93574354D01*
X137201544Y-93426784D01*
X137133624Y-93262812D01*
X137099000Y-93088741D01*
X137099000Y-92911259D01*
X137133624Y-92737188D01*
X137201544Y-92573216D01*
X137300147Y-92425646D01*
X137425646Y-92300147D01*
X137573216Y-92201544D01*
X137737188Y-92133624D01*
X137886488Y-92103927D01*
X137911258Y-92099000D01*
X138088742Y-92099000D01*
X138113512Y-92103927D01*
G37*
G36*
X153656720Y-90963520D02*
G01*
X153845881Y-91020901D01*
X154020212Y-91114083D01*
X154173015Y-91239485D01*
X154298417Y-91392288D01*
X154342182Y-91474167D01*
X154391598Y-91566617D01*
X154391599Y-91566620D01*
X154448980Y-91755781D01*
X154463500Y-91903207D01*
X154463500Y-92096794D01*
X154448980Y-92244220D01*
X154391599Y-92433381D01*
X154298417Y-92607712D01*
X154173015Y-92760515D01*
X154020212Y-92885917D01*
X153972802Y-92911258D01*
X153845883Y-92979098D01*
X153845880Y-92979099D01*
X153656719Y-93036480D01*
X153460000Y-93055855D01*
X153263280Y-93036480D01*
X153074119Y-92979099D01*
X152899788Y-92885917D01*
X152746985Y-92760515D01*
X152621583Y-92607712D01*
X152577818Y-92525833D01*
X152528402Y-92433383D01*
X152487986Y-92300148D01*
X152471020Y-92244219D01*
X152456500Y-92096793D01*
X152456500Y-91903206D01*
X152471020Y-91755780D01*
X152528401Y-91566619D01*
X152621583Y-91392288D01*
X152746985Y-91239485D01*
X152899788Y-91114083D01*
X153074120Y-91020901D01*
X153263281Y-90963520D01*
X153460000Y-90944145D01*
X153656720Y-90963520D01*
G37*
G36*
X156196720Y-90963520D02*
G01*
X156385881Y-91020901D01*
X156560212Y-91114083D01*
X156713015Y-91239485D01*
X156838417Y-91392288D01*
X156882182Y-91474167D01*
X156931598Y-91566617D01*
X156931599Y-91566620D01*
X156988980Y-91755781D01*
X157003500Y-91903207D01*
X157003500Y-92096794D01*
X156988980Y-92244220D01*
X156931599Y-92433381D01*
X156838417Y-92607712D01*
X156713015Y-92760515D01*
X156560212Y-92885917D01*
X156512802Y-92911258D01*
X156385883Y-92979098D01*
X156385880Y-92979099D01*
X156196719Y-93036480D01*
X156000000Y-93055855D01*
X155803280Y-93036480D01*
X155614119Y-92979099D01*
X155439788Y-92885917D01*
X155286985Y-92760515D01*
X155161583Y-92607712D01*
X155117818Y-92525833D01*
X155068402Y-92433383D01*
X155027986Y-92300148D01*
X155011020Y-92244219D01*
X154996500Y-92096793D01*
X154996500Y-91903206D01*
X155011020Y-91755780D01*
X155068401Y-91566619D01*
X155161583Y-91392288D01*
X155286985Y-91239485D01*
X155439788Y-91114083D01*
X155614120Y-91020901D01*
X155803281Y-90963520D01*
X156000000Y-90944145D01*
X156196720Y-90963520D01*
G37*
G36*
X159543500Y-93051000D02*
G01*
X157536500Y-93051000D01*
X157536500Y-90949000D01*
X159543500Y-90949000D01*
X159543500Y-93051000D01*
G37*
G36*
X168375256Y-84391298D02*
G01*
X168481579Y-84412447D01*
X168782042Y-84536903D01*
X169052451Y-84717585D01*
X169282415Y-84947549D01*
X169463097Y-85217958D01*
X169587553Y-85518421D01*
X169651000Y-85837391D01*
X169651000Y-86162609D01*
X169587553Y-86481579D01*
X169463097Y-86782042D01*
X169282415Y-87052451D01*
X169052451Y-87282415D01*
X168782042Y-87463097D01*
X168481579Y-87587553D01*
X168375256Y-87608702D01*
X168162611Y-87651000D01*
X167837389Y-87651000D01*
X167624744Y-87608702D01*
X167518421Y-87587553D01*
X167217958Y-87463097D01*
X166947549Y-87282415D01*
X166717585Y-87052451D01*
X166536903Y-86782042D01*
X166412447Y-86481579D01*
X166349000Y-86162609D01*
X166349000Y-85837391D01*
X166412447Y-85518421D01*
X166536903Y-85217958D01*
X166717585Y-84947549D01*
X166947549Y-84717585D01*
X167217958Y-84536903D01*
X167518421Y-84412447D01*
X167624744Y-84391298D01*
X167837389Y-84349000D01*
X168162611Y-84349000D01*
X168375256Y-84391298D01*
G37*
G36*
X119375256Y-84391298D02*
G01*
X119481579Y-84412447D01*
X119782042Y-84536903D01*
X120052451Y-84717585D01*
X120282415Y-84947549D01*
X120463097Y-85217958D01*
X120587553Y-85518421D01*
X120651000Y-85837391D01*
X120651000Y-86162609D01*
X120587553Y-86481579D01*
X120463097Y-86782042D01*
X120282415Y-87052451D01*
X120052451Y-87282415D01*
X119782042Y-87463097D01*
X119481579Y-87587553D01*
X119375256Y-87608702D01*
X119162611Y-87651000D01*
X118837389Y-87651000D01*
X118624744Y-87608702D01*
X118518421Y-87587553D01*
X118217958Y-87463097D01*
X117947549Y-87282415D01*
X117717585Y-87052451D01*
X117536903Y-86782042D01*
X117412447Y-86481579D01*
X117349000Y-86162609D01*
X117349000Y-85837391D01*
X117412447Y-85518421D01*
X117536903Y-85217958D01*
X117717585Y-84947549D01*
X117947549Y-84717585D01*
X118217958Y-84536903D01*
X118518421Y-84412447D01*
X118624744Y-84391298D01*
X118837389Y-84349000D01*
X119162611Y-84349000D01*
X119375256Y-84391298D01*
G37*
G36*
X145951000Y-86951000D02*
G01*
X142049000Y-86951000D01*
X142049000Y-83049000D01*
X145951000Y-83049000D01*
X145951000Y-86951000D01*
G37*
G36*
X131951000Y-86951000D02*
G01*
X128049000Y-86951000D01*
X128049000Y-83049000D01*
X131951000Y-83049000D01*
X131951000Y-86951000D01*
G37*
G36*
X130569085Y-78123975D02*
G01*
X130924143Y-78271045D01*
X130924145Y-78271046D01*
X131243690Y-78484559D01*
X131515441Y-78756310D01*
X131713614Y-79052897D01*
X131728955Y-79075857D01*
X131876025Y-79430915D01*
X131951000Y-79807842D01*
X131951000Y-80192158D01*
X131876025Y-80569085D01*
X131745748Y-80883600D01*
X131728954Y-80924145D01*
X131515441Y-81243690D01*
X131243690Y-81515441D01*
X130924145Y-81728954D01*
X130924144Y-81728955D01*
X130924143Y-81728955D01*
X130569085Y-81876025D01*
X130192158Y-81951000D01*
X129807842Y-81951000D01*
X129430915Y-81876025D01*
X129075857Y-81728955D01*
X129075856Y-81728955D01*
X129075855Y-81728954D01*
X128756310Y-81515441D01*
X128484559Y-81243690D01*
X128271046Y-80924145D01*
X128254252Y-80883600D01*
X128123975Y-80569085D01*
X128049000Y-80192158D01*
X128049000Y-79807842D01*
X128123975Y-79430915D01*
X128271045Y-79075857D01*
X128286386Y-79052897D01*
X128484559Y-78756310D01*
X128756310Y-78484559D01*
X129075855Y-78271046D01*
X129075857Y-78271045D01*
X129430915Y-78123975D01*
X129807842Y-78049000D01*
X130192158Y-78049000D01*
X130569085Y-78123975D01*
G37*
G36*
X144569085Y-78123975D02*
G01*
X144924143Y-78271045D01*
X144924145Y-78271046D01*
X145243690Y-78484559D01*
X145515441Y-78756310D01*
X145713614Y-79052897D01*
X145728955Y-79075857D01*
X145876025Y-79430915D01*
X145951000Y-79807842D01*
X145951000Y-80192158D01*
X145876025Y-80569085D01*
X145745748Y-80883600D01*
X145728954Y-80924145D01*
X145515441Y-81243690D01*
X145243690Y-81515441D01*
X144924145Y-81728954D01*
X144924144Y-81728955D01*
X144924143Y-81728955D01*
X144569085Y-81876025D01*
X144192158Y-81951000D01*
X143807842Y-81951000D01*
X143430915Y-81876025D01*
X143075857Y-81728955D01*
X143075856Y-81728955D01*
X143075855Y-81728954D01*
X142756310Y-81515441D01*
X142484559Y-81243690D01*
X142271046Y-80924145D01*
X142254252Y-80883600D01*
X142123975Y-80569085D01*
X142049000Y-80192158D01*
X142049000Y-79807842D01*
X142123975Y-79430915D01*
X142271045Y-79075857D01*
X142286386Y-79052897D01*
X142484559Y-78756310D01*
X142756310Y-78484559D01*
X143075855Y-78271046D01*
X143075857Y-78271045D01*
X143430915Y-78123975D01*
X143807842Y-78049000D01*
X144192158Y-78049000D01*
X144569085Y-78123975D01*
G37*
G36*
X164676627Y-78987037D02*
G01*
X164846466Y-79038557D01*
X165002991Y-79122222D01*
X165038729Y-79151552D01*
X165140186Y-79234814D01*
X165223448Y-79336271D01*
X165252778Y-79372009D01*
X165336443Y-79528534D01*
X165387963Y-79698374D01*
X165391507Y-79734354D01*
X165398745Y-79807842D01*
X165401000Y-79830743D01*
X165401000Y-80169258D01*
X165387963Y-80301627D01*
X165336443Y-80471466D01*
X165252778Y-80627991D01*
X165223448Y-80663729D01*
X165140186Y-80765186D01*
X165002989Y-80877779D01*
X164846467Y-80961442D01*
X164846465Y-80961443D01*
X164676626Y-81012963D01*
X164500000Y-81030359D01*
X164323373Y-81012963D01*
X164153534Y-80961443D01*
X163997009Y-80877778D01*
X163954750Y-80843097D01*
X163859814Y-80765186D01*
X163747221Y-80627989D01*
X163663558Y-80471467D01*
X163663557Y-80471465D01*
X163612037Y-80301626D01*
X163605518Y-80235441D01*
X163599000Y-80169259D01*
X163599000Y-79830740D01*
X163612037Y-79698375D01*
X163612037Y-79698373D01*
X163663557Y-79528534D01*
X163747222Y-79372009D01*
X163859815Y-79234815D01*
X163997010Y-79122222D01*
X164153535Y-79038557D01*
X164323374Y-78987037D01*
X164500000Y-78969641D01*
X164676627Y-78987037D01*
G37*
G36*
X162176627Y-78987037D02*
G01*
X162346466Y-79038557D01*
X162502991Y-79122222D01*
X162538729Y-79151552D01*
X162640186Y-79234814D01*
X162723448Y-79336271D01*
X162752778Y-79372009D01*
X162836443Y-79528534D01*
X162887963Y-79698374D01*
X162891507Y-79734354D01*
X162898745Y-79807842D01*
X162901000Y-79830743D01*
X162901000Y-80169258D01*
X162887963Y-80301627D01*
X162836443Y-80471466D01*
X162752778Y-80627991D01*
X162723448Y-80663729D01*
X162640186Y-80765186D01*
X162502989Y-80877779D01*
X162346467Y-80961442D01*
X162346465Y-80961443D01*
X162176626Y-81012963D01*
X162000000Y-81030359D01*
X161823373Y-81012963D01*
X161653534Y-80961443D01*
X161497009Y-80877778D01*
X161454750Y-80843097D01*
X161359814Y-80765186D01*
X161247221Y-80627989D01*
X161163558Y-80471467D01*
X161163557Y-80471465D01*
X161112037Y-80301626D01*
X161105518Y-80235441D01*
X161099000Y-80169259D01*
X161099000Y-79830740D01*
X161112037Y-79698375D01*
X161112037Y-79698373D01*
X161163557Y-79528534D01*
X161247222Y-79372009D01*
X161359815Y-79234815D01*
X161497010Y-79122222D01*
X161653535Y-79038557D01*
X161823374Y-78987037D01*
X162000000Y-78969641D01*
X162176627Y-78987037D01*
G37*
G36*
X159676627Y-78987037D02*
G01*
X159846466Y-79038557D01*
X160002991Y-79122222D01*
X160038729Y-79151552D01*
X160140186Y-79234814D01*
X160223448Y-79336271D01*
X160252778Y-79372009D01*
X160336443Y-79528534D01*
X160387963Y-79698374D01*
X160391507Y-79734354D01*
X160398745Y-79807842D01*
X160401000Y-79830743D01*
X160401000Y-80169258D01*
X160387963Y-80301627D01*
X160336443Y-80471466D01*
X160252778Y-80627991D01*
X160223448Y-80663729D01*
X160140186Y-80765186D01*
X160002989Y-80877779D01*
X159846467Y-80961442D01*
X159846465Y-80961443D01*
X159676626Y-81012963D01*
X159500000Y-81030359D01*
X159323373Y-81012963D01*
X159153534Y-80961443D01*
X158997009Y-80877778D01*
X158954750Y-80843097D01*
X158859814Y-80765186D01*
X158747221Y-80627989D01*
X158663558Y-80471467D01*
X158663557Y-80471465D01*
X158612037Y-80301626D01*
X158605518Y-80235441D01*
X158599000Y-80169259D01*
X158599000Y-79830740D01*
X158612037Y-79698375D01*
X158612037Y-79698373D01*
X158663557Y-79528534D01*
X158747222Y-79372009D01*
X158859815Y-79234815D01*
X158997010Y-79122222D01*
X159153535Y-79038557D01*
X159323374Y-78987037D01*
X159500000Y-78969641D01*
X159676627Y-78987037D01*
G37*
G36*
X167758600Y-78977989D02*
G01*
X167791652Y-78988015D01*
X167822103Y-79004292D01*
X167848799Y-79026201D01*
X167870708Y-79052897D01*
X167886985Y-79083348D01*
X167897011Y-79116400D01*
X167901000Y-79156903D01*
X167901000Y-80843097D01*
X167897011Y-80883600D01*
X167886985Y-80916652D01*
X167870708Y-80947103D01*
X167848799Y-80973799D01*
X167822103Y-80995708D01*
X167791652Y-81011985D01*
X167758600Y-81022011D01*
X167718097Y-81026000D01*
X166281903Y-81026000D01*
X166241400Y-81022011D01*
X166208348Y-81011985D01*
X166177897Y-80995708D01*
X166151201Y-80973799D01*
X166129292Y-80947103D01*
X166113015Y-80916652D01*
X166102989Y-80883600D01*
X166099000Y-80843097D01*
X166099000Y-79156903D01*
X166102989Y-79116400D01*
X166113015Y-79083348D01*
X166129292Y-79052897D01*
X166151201Y-79026201D01*
X166177897Y-79004292D01*
X166208348Y-78988015D01*
X166241400Y-78977989D01*
X166281903Y-78974000D01*
X167718097Y-78974000D01*
X167758600Y-78977989D01*
G37*
G36*
X118613512Y-78263927D02*
G01*
X118762812Y-78293624D01*
X118926784Y-78361544D01*
X119074354Y-78460147D01*
X119199853Y-78585646D01*
X119298456Y-78733216D01*
X119366376Y-78897188D01*
X119401000Y-79071259D01*
X119401000Y-79248741D01*
X119366376Y-79422812D01*
X119298456Y-79586784D01*
X119199853Y-79734354D01*
X119074354Y-79859853D01*
X118926784Y-79958456D01*
X118762812Y-80026376D01*
X118613512Y-80056073D01*
X118588742Y-80061000D01*
X118411258Y-80061000D01*
X118386488Y-80056073D01*
X118237188Y-80026376D01*
X118073216Y-79958456D01*
X117925646Y-79859853D01*
X117800147Y-79734354D01*
X117701544Y-79586784D01*
X117633624Y-79422812D01*
X117599000Y-79248741D01*
X117599000Y-79071259D01*
X117633624Y-78897188D01*
X117701544Y-78733216D01*
X117800147Y-78585646D01*
X117925646Y-78460147D01*
X118073216Y-78361544D01*
X118237188Y-78293624D01*
X118386488Y-78263927D01*
X118411258Y-78259000D01*
X118588742Y-78259000D01*
X118613512Y-78263927D01*
G37*
G36*
X118613512Y-75723927D02*
G01*
X118762812Y-75753624D01*
X118926784Y-75821544D01*
X119074354Y-75920147D01*
X119199853Y-76045646D01*
X119298456Y-76193216D01*
X119366376Y-76357188D01*
X119401000Y-76531259D01*
X119401000Y-76708741D01*
X119366376Y-76882812D01*
X119298456Y-77046784D01*
X119199853Y-77194354D01*
X119074354Y-77319853D01*
X118926784Y-77418456D01*
X118762812Y-77486376D01*
X118613512Y-77516073D01*
X118588742Y-77521000D01*
X118411258Y-77521000D01*
X118386488Y-77516073D01*
X118237188Y-77486376D01*
X118073216Y-77418456D01*
X117925646Y-77319853D01*
X117800147Y-77194354D01*
X117701544Y-77046784D01*
X117633624Y-76882812D01*
X117599000Y-76708741D01*
X117599000Y-76531259D01*
X117633624Y-76357188D01*
X117701544Y-76193216D01*
X117800147Y-76045646D01*
X117925646Y-75920147D01*
X118073216Y-75821544D01*
X118237188Y-75753624D01*
X118386488Y-75723927D01*
X118411258Y-75719000D01*
X118588742Y-75719000D01*
X118613512Y-75723927D01*
G37*
G36*
X118613512Y-73183927D02*
G01*
X118762812Y-73213624D01*
X118926784Y-73281544D01*
X119074354Y-73380147D01*
X119199853Y-73505646D01*
X119298456Y-73653216D01*
X119366376Y-73817188D01*
X119401000Y-73991259D01*
X119401000Y-74168741D01*
X119366376Y-74342812D01*
X119298456Y-74506784D01*
X119199853Y-74654354D01*
X119074354Y-74779853D01*
X118926784Y-74878456D01*
X118762812Y-74946376D01*
X118613512Y-74976073D01*
X118588742Y-74981000D01*
X118411258Y-74981000D01*
X118386488Y-74976073D01*
X118237188Y-74946376D01*
X118073216Y-74878456D01*
X117925646Y-74779853D01*
X117800147Y-74654354D01*
X117701544Y-74506784D01*
X117633624Y-74342812D01*
X117599000Y-74168741D01*
X117599000Y-73991259D01*
X117633624Y-73817188D01*
X117701544Y-73653216D01*
X117800147Y-73505646D01*
X117925646Y-73380147D01*
X118073216Y-73281544D01*
X118237188Y-73213624D01*
X118386488Y-73183927D01*
X118411258Y-73179000D01*
X118588742Y-73179000D01*
X118613512Y-73183927D01*
G37*
G36*
X136313500Y-73911000D02*
G01*
X134686500Y-73911000D01*
X134686500Y-73109000D01*
X136313500Y-73109000D01*
X136313500Y-73911000D01*
G37*
G36*
X130889500Y-73911000D02*
G01*
X129262500Y-73911000D01*
X129262500Y-73109000D01*
X130889500Y-73109000D01*
X130889500Y-73911000D01*
G37*
G36*
X136313500Y-72641000D02*
G01*
X134686500Y-72641000D01*
X134686500Y-71839000D01*
X136313500Y-71839000D01*
X136313500Y-72641000D01*
G37*
G36*
X130889500Y-72641000D02*
G01*
X129262500Y-72641000D01*
X129262500Y-71839000D01*
X130889500Y-71839000D01*
X130889500Y-72641000D01*
G37*
G36*
X141248228Y-70801703D02*
G01*
X141403100Y-70865853D01*
X141542481Y-70958985D01*
X141661015Y-71077519D01*
X141754147Y-71216900D01*
X141818297Y-71371772D01*
X141851000Y-71536184D01*
X141851000Y-71703816D01*
X141818297Y-71868228D01*
X141754147Y-72023100D01*
X141661015Y-72162481D01*
X141542481Y-72281015D01*
X141403100Y-72374147D01*
X141248228Y-72438297D01*
X141083816Y-72471000D01*
X140916184Y-72471000D01*
X140751772Y-72438297D01*
X140596900Y-72374147D01*
X140457519Y-72281015D01*
X140338985Y-72162481D01*
X140245853Y-72023100D01*
X140181703Y-71868228D01*
X140149000Y-71703816D01*
X140149000Y-71536184D01*
X140181703Y-71371772D01*
X140245853Y-71216900D01*
X140338985Y-71077519D01*
X140457519Y-70958985D01*
X140596900Y-70865853D01*
X140751772Y-70801703D01*
X140916184Y-70769000D01*
X141083816Y-70769000D01*
X141248228Y-70801703D01*
G37*
G36*
X148868228Y-70801703D02*
G01*
X149023100Y-70865853D01*
X149162481Y-70958985D01*
X149281015Y-71077519D01*
X149374147Y-71216900D01*
X149438297Y-71371772D01*
X149471000Y-71536184D01*
X149471000Y-71703816D01*
X149438297Y-71868228D01*
X149374147Y-72023100D01*
X149281015Y-72162481D01*
X149162481Y-72281015D01*
X149023100Y-72374147D01*
X148868228Y-72438297D01*
X148703816Y-72471000D01*
X148536184Y-72471000D01*
X148371772Y-72438297D01*
X148216900Y-72374147D01*
X148077519Y-72281015D01*
X147958985Y-72162481D01*
X147865853Y-72023100D01*
X147801703Y-71868228D01*
X147769000Y-71703816D01*
X147769000Y-71536184D01*
X147801703Y-71371772D01*
X147865853Y-71216900D01*
X147958985Y-71077519D01*
X148077519Y-70958985D01*
X148216900Y-70865853D01*
X148371772Y-70801703D01*
X148536184Y-70769000D01*
X148703816Y-70769000D01*
X148868228Y-70801703D01*
G37*
G36*
X118613512Y-70643927D02*
G01*
X118762812Y-70673624D01*
X118926784Y-70741544D01*
X119074354Y-70840147D01*
X119199853Y-70965646D01*
X119298456Y-71113216D01*
X119366376Y-71277188D01*
X119401000Y-71451259D01*
X119401000Y-71628741D01*
X119366376Y-71802812D01*
X119298456Y-71966784D01*
X119199853Y-72114354D01*
X119074354Y-72239853D01*
X118926784Y-72338456D01*
X118762812Y-72406376D01*
X118613512Y-72436073D01*
X118588742Y-72441000D01*
X118411258Y-72441000D01*
X118386488Y-72436073D01*
X118237188Y-72406376D01*
X118073216Y-72338456D01*
X117925646Y-72239853D01*
X117800147Y-72114354D01*
X117701544Y-71966784D01*
X117633624Y-71802812D01*
X117599000Y-71628741D01*
X117599000Y-71451259D01*
X117633624Y-71277188D01*
X117701544Y-71113216D01*
X117800147Y-70965646D01*
X117925646Y-70840147D01*
X118073216Y-70741544D01*
X118237188Y-70673624D01*
X118386488Y-70643927D01*
X118411258Y-70639000D01*
X118588742Y-70639000D01*
X118613512Y-70643927D01*
G37*
G36*
X159676627Y-69987037D02*
G01*
X159846466Y-70038557D01*
X160002991Y-70122222D01*
X160038729Y-70151552D01*
X160140186Y-70234814D01*
X160223448Y-70336271D01*
X160252778Y-70372009D01*
X160336443Y-70528534D01*
X160387963Y-70698374D01*
X160387963Y-70698376D01*
X160401000Y-70830741D01*
X160401000Y-71169260D01*
X160394482Y-71235442D01*
X160387963Y-71301627D01*
X160336443Y-71471466D01*
X160252778Y-71627991D01*
X160223448Y-71663729D01*
X160140186Y-71765186D01*
X160002989Y-71877779D01*
X159846467Y-71961442D01*
X159846465Y-71961443D01*
X159676626Y-72012963D01*
X159500000Y-72030359D01*
X159323373Y-72012963D01*
X159153534Y-71961443D01*
X158997009Y-71877778D01*
X158949758Y-71839000D01*
X158859814Y-71765186D01*
X158747221Y-71627989D01*
X158663558Y-71471467D01*
X158657428Y-71451259D01*
X158612037Y-71301626D01*
X158599000Y-71169257D01*
X158599000Y-70830742D01*
X158612037Y-70698373D01*
X158663557Y-70528534D01*
X158747222Y-70372009D01*
X158859815Y-70234815D01*
X158997010Y-70122222D01*
X159153535Y-70038557D01*
X159323374Y-69987037D01*
X159500000Y-69969641D01*
X159676627Y-69987037D01*
G37*
G36*
X162176627Y-69987037D02*
G01*
X162346466Y-70038557D01*
X162502991Y-70122222D01*
X162538729Y-70151552D01*
X162640186Y-70234814D01*
X162723448Y-70336271D01*
X162752778Y-70372009D01*
X162836443Y-70528534D01*
X162887963Y-70698374D01*
X162887963Y-70698376D01*
X162901000Y-70830741D01*
X162901000Y-71169260D01*
X162894482Y-71235442D01*
X162887963Y-71301627D01*
X162836443Y-71471466D01*
X162752778Y-71627991D01*
X162723448Y-71663729D01*
X162640186Y-71765186D01*
X162502989Y-71877779D01*
X162346467Y-71961442D01*
X162346465Y-71961443D01*
X162176626Y-72012963D01*
X162000000Y-72030359D01*
X161823373Y-72012963D01*
X161653534Y-71961443D01*
X161497009Y-71877778D01*
X161449758Y-71839000D01*
X161359814Y-71765186D01*
X161247221Y-71627989D01*
X161163558Y-71471467D01*
X161157428Y-71451259D01*
X161112037Y-71301626D01*
X161099000Y-71169257D01*
X161099000Y-70830742D01*
X161112037Y-70698373D01*
X161163557Y-70528534D01*
X161247222Y-70372009D01*
X161359815Y-70234815D01*
X161497010Y-70122222D01*
X161653535Y-70038557D01*
X161823374Y-69987037D01*
X162000000Y-69969641D01*
X162176627Y-69987037D01*
G37*
G36*
X164676627Y-69987037D02*
G01*
X164846466Y-70038557D01*
X165002991Y-70122222D01*
X165038729Y-70151552D01*
X165140186Y-70234814D01*
X165223448Y-70336271D01*
X165252778Y-70372009D01*
X165336443Y-70528534D01*
X165387963Y-70698374D01*
X165387963Y-70698376D01*
X165401000Y-70830741D01*
X165401000Y-71169260D01*
X165394482Y-71235442D01*
X165387963Y-71301627D01*
X165336443Y-71471466D01*
X165252778Y-71627991D01*
X165223448Y-71663729D01*
X165140186Y-71765186D01*
X165002989Y-71877779D01*
X164846467Y-71961442D01*
X164846465Y-71961443D01*
X164676626Y-72012963D01*
X164500000Y-72030359D01*
X164323373Y-72012963D01*
X164153534Y-71961443D01*
X163997009Y-71877778D01*
X163949758Y-71839000D01*
X163859814Y-71765186D01*
X163747221Y-71627989D01*
X163663558Y-71471467D01*
X163657428Y-71451259D01*
X163612037Y-71301626D01*
X163599000Y-71169257D01*
X163599000Y-70830742D01*
X163612037Y-70698373D01*
X163663557Y-70528534D01*
X163747222Y-70372009D01*
X163859815Y-70234815D01*
X163997010Y-70122222D01*
X164153535Y-70038557D01*
X164323374Y-69987037D01*
X164500000Y-69969641D01*
X164676627Y-69987037D01*
G37*
G36*
X167758600Y-69977989D02*
G01*
X167791652Y-69988015D01*
X167822103Y-70004292D01*
X167848799Y-70026201D01*
X167870708Y-70052897D01*
X167886985Y-70083348D01*
X167897011Y-70116400D01*
X167901000Y-70156903D01*
X167901000Y-71843097D01*
X167897011Y-71883600D01*
X167886985Y-71916652D01*
X167870708Y-71947103D01*
X167848799Y-71973799D01*
X167822103Y-71995708D01*
X167791652Y-72011985D01*
X167758600Y-72022011D01*
X167718097Y-72026000D01*
X166281903Y-72026000D01*
X166241400Y-72022011D01*
X166208348Y-72011985D01*
X166177897Y-71995708D01*
X166151201Y-71973799D01*
X166129292Y-71947103D01*
X166113015Y-71916652D01*
X166102989Y-71883600D01*
X166099000Y-71843097D01*
X166099000Y-70156903D01*
X166102989Y-70116400D01*
X166113015Y-70083348D01*
X166129292Y-70052897D01*
X166151201Y-70026201D01*
X166177897Y-70004292D01*
X166208348Y-69988015D01*
X166241400Y-69977989D01*
X166281903Y-69974000D01*
X167718097Y-69974000D01*
X167758600Y-69977989D01*
G37*
G36*
X136313500Y-71371000D02*
G01*
X134686500Y-71371000D01*
X134686500Y-70569000D01*
X136313500Y-70569000D01*
X136313500Y-71371000D01*
G37*
G36*
X130889500Y-71371000D02*
G01*
X129262500Y-71371000D01*
X129262500Y-70569000D01*
X130889500Y-70569000D01*
X130889500Y-71371000D01*
G37*
G36*
X130889500Y-70101000D02*
G01*
X129262500Y-70101000D01*
X129262500Y-69299000D01*
X130889500Y-69299000D01*
X130889500Y-70101000D01*
G37*
G36*
X136313500Y-70101000D02*
G01*
X134686500Y-70101000D01*
X134686500Y-69299000D01*
X136313500Y-69299000D01*
X136313500Y-70101000D01*
G37*
G36*
X141248228Y-68261703D02*
G01*
X141403100Y-68325853D01*
X141542481Y-68418985D01*
X141661015Y-68537519D01*
X141754147Y-68676900D01*
X141818297Y-68831772D01*
X141851000Y-68996184D01*
X141851000Y-69163816D01*
X141818297Y-69328228D01*
X141754147Y-69483100D01*
X141661015Y-69622481D01*
X141542481Y-69741015D01*
X141403100Y-69834147D01*
X141248228Y-69898297D01*
X141083816Y-69931000D01*
X140916184Y-69931000D01*
X140751772Y-69898297D01*
X140596900Y-69834147D01*
X140457519Y-69741015D01*
X140338985Y-69622481D01*
X140245853Y-69483100D01*
X140181703Y-69328228D01*
X140149000Y-69163816D01*
X140149000Y-68996184D01*
X140181703Y-68831772D01*
X140245853Y-68676900D01*
X140338985Y-68537519D01*
X140457519Y-68418985D01*
X140596900Y-68325853D01*
X140751772Y-68261703D01*
X140916184Y-68229000D01*
X141083816Y-68229000D01*
X141248228Y-68261703D01*
G37*
G36*
X148868228Y-68261703D02*
G01*
X149023100Y-68325853D01*
X149162481Y-68418985D01*
X149281015Y-68537519D01*
X149374147Y-68676900D01*
X149438297Y-68831772D01*
X149471000Y-68996184D01*
X149471000Y-69163816D01*
X149438297Y-69328228D01*
X149374147Y-69483100D01*
X149281015Y-69622481D01*
X149162481Y-69741015D01*
X149023100Y-69834147D01*
X148868228Y-69898297D01*
X148703816Y-69931000D01*
X148536184Y-69931000D01*
X148371772Y-69898297D01*
X148216900Y-69834147D01*
X148077519Y-69741015D01*
X147958985Y-69622481D01*
X147865853Y-69483100D01*
X147801703Y-69328228D01*
X147769000Y-69163816D01*
X147769000Y-68996184D01*
X147801703Y-68831772D01*
X147865853Y-68676900D01*
X147958985Y-68537519D01*
X148077519Y-68418985D01*
X148216900Y-68325853D01*
X148371772Y-68261703D01*
X148536184Y-68229000D01*
X148703816Y-68229000D01*
X148868228Y-68261703D01*
G37*
G36*
X119401000Y-69901000D02*
G01*
X117599000Y-69901000D01*
X117599000Y-68099000D01*
X119401000Y-68099000D01*
X119401000Y-69901000D01*
G37*
G36*
X130889500Y-68001000D02*
G01*
X129262500Y-68001000D01*
X129262500Y-67199000D01*
X130889500Y-67199000D01*
X130889500Y-68001000D01*
G37*
G36*
X136313500Y-68001000D02*
G01*
X134686500Y-68001000D01*
X134686500Y-67199000D01*
X136313500Y-67199000D01*
X136313500Y-68001000D01*
G37*
G36*
X148868228Y-65721703D02*
G01*
X149023100Y-65785853D01*
X149162481Y-65878985D01*
X149281015Y-65997519D01*
X149374147Y-66136900D01*
X149438297Y-66291772D01*
X149471000Y-66456184D01*
X149471000Y-66623816D01*
X149438297Y-66788228D01*
X149374147Y-66943100D01*
X149281015Y-67082481D01*
X149162481Y-67201015D01*
X149023100Y-67294147D01*
X148868228Y-67358297D01*
X148703816Y-67391000D01*
X148536184Y-67391000D01*
X148371772Y-67358297D01*
X148216900Y-67294147D01*
X148077519Y-67201015D01*
X147958985Y-67082481D01*
X147865853Y-66943100D01*
X147801703Y-66788228D01*
X147769000Y-66623816D01*
X147769000Y-66456184D01*
X147801703Y-66291772D01*
X147865853Y-66136900D01*
X147958985Y-65997519D01*
X148077519Y-65878985D01*
X148216900Y-65785853D01*
X148371772Y-65721703D01*
X148536184Y-65689000D01*
X148703816Y-65689000D01*
X148868228Y-65721703D01*
G37*
G36*
X141248228Y-65721703D02*
G01*
X141403100Y-65785853D01*
X141542481Y-65878985D01*
X141661015Y-65997519D01*
X141754147Y-66136900D01*
X141818297Y-66291772D01*
X141851000Y-66456184D01*
X141851000Y-66623816D01*
X141818297Y-66788228D01*
X141754147Y-66943100D01*
X141661015Y-67082481D01*
X141542481Y-67201015D01*
X141403100Y-67294147D01*
X141248228Y-67358297D01*
X141083816Y-67391000D01*
X140916184Y-67391000D01*
X140751772Y-67358297D01*
X140596900Y-67294147D01*
X140457519Y-67201015D01*
X140338985Y-67082481D01*
X140245853Y-66943100D01*
X140181703Y-66788228D01*
X140149000Y-66623816D01*
X140149000Y-66456184D01*
X140181703Y-66291772D01*
X140245853Y-66136900D01*
X140338985Y-65997519D01*
X140457519Y-65878985D01*
X140596900Y-65785853D01*
X140751772Y-65721703D01*
X140916184Y-65689000D01*
X141083816Y-65689000D01*
X141248228Y-65721703D01*
G37*
G36*
X130889500Y-66731000D02*
G01*
X129262500Y-66731000D01*
X129262500Y-65929000D01*
X130889500Y-65929000D01*
X130889500Y-66731000D01*
G37*
G36*
X136313500Y-66731000D02*
G01*
X134686500Y-66731000D01*
X134686500Y-65929000D01*
X136313500Y-65929000D01*
X136313500Y-66731000D01*
G37*
G36*
X136313500Y-65461000D02*
G01*
X134686500Y-65461000D01*
X134686500Y-64659000D01*
X136313500Y-64659000D01*
X136313500Y-65461000D01*
G37*
G36*
X130889500Y-65461000D02*
G01*
X129262500Y-65461000D01*
X129262500Y-64659000D01*
X130889500Y-64659000D01*
X130889500Y-65461000D01*
G37*
G36*
X148868228Y-63181703D02*
G01*
X149023100Y-63245853D01*
X149162481Y-63338985D01*
X149281015Y-63457519D01*
X149374147Y-63596900D01*
X149438297Y-63751772D01*
X149471000Y-63916184D01*
X149471000Y-64083816D01*
X149438297Y-64248228D01*
X149374147Y-64403100D01*
X149281015Y-64542481D01*
X149162481Y-64661015D01*
X149023100Y-64754147D01*
X148868228Y-64818297D01*
X148703816Y-64851000D01*
X148536184Y-64851000D01*
X148371772Y-64818297D01*
X148216900Y-64754147D01*
X148077519Y-64661015D01*
X147958985Y-64542481D01*
X147865853Y-64403100D01*
X147801703Y-64248228D01*
X147769000Y-64083816D01*
X147769000Y-63916184D01*
X147801703Y-63751772D01*
X147865853Y-63596900D01*
X147958985Y-63457519D01*
X148077519Y-63338985D01*
X148216900Y-63245853D01*
X148371772Y-63181703D01*
X148536184Y-63149000D01*
X148703816Y-63149000D01*
X148868228Y-63181703D01*
G37*
G36*
X141851000Y-64851000D02*
G01*
X140149000Y-64851000D01*
X140149000Y-63149000D01*
X141851000Y-63149000D01*
X141851000Y-64851000D01*
G37*
G36*
X130889500Y-64191000D02*
G01*
X129262500Y-64191000D01*
X129262500Y-63389000D01*
X130889500Y-63389000D01*
X130889500Y-64191000D01*
G37*
G36*
X136313500Y-64191000D02*
G01*
X134686500Y-64191000D01*
X134686500Y-63389000D01*
X136313500Y-63389000D01*
X136313500Y-64191000D01*
G37*
G36*
X168375256Y-59391298D02*
G01*
X168481579Y-59412447D01*
X168782042Y-59536903D01*
X169052451Y-59717585D01*
X169282415Y-59947549D01*
X169463097Y-60217958D01*
X169587553Y-60518421D01*
X169598679Y-60574354D01*
X169643256Y-60798456D01*
X169651000Y-60837391D01*
X169651000Y-61162609D01*
X169587553Y-61481579D01*
X169463097Y-61782042D01*
X169282415Y-62052451D01*
X169052451Y-62282415D01*
X168782042Y-62463097D01*
X168481579Y-62587553D01*
X168375256Y-62608702D01*
X168162611Y-62651000D01*
X167837389Y-62651000D01*
X167624744Y-62608702D01*
X167518421Y-62587553D01*
X167217958Y-62463097D01*
X166947549Y-62282415D01*
X166717585Y-62052451D01*
X166536903Y-61782042D01*
X166412447Y-61481579D01*
X166349000Y-61162609D01*
X166349000Y-60837391D01*
X166356745Y-60798456D01*
X166401321Y-60574354D01*
X166412447Y-60518421D01*
X166536903Y-60217958D01*
X166717585Y-59947549D01*
X166947549Y-59717585D01*
X167217958Y-59536903D01*
X167518421Y-59412447D01*
X167624744Y-59391298D01*
X167837389Y-59349000D01*
X168162611Y-59349000D01*
X168375256Y-59391298D01*
G37*
G36*
X119375256Y-59391298D02*
G01*
X119481579Y-59412447D01*
X119782042Y-59536903D01*
X120052451Y-59717585D01*
X120282415Y-59947549D01*
X120463097Y-60217958D01*
X120587553Y-60518421D01*
X120598679Y-60574354D01*
X120643256Y-60798456D01*
X120651000Y-60837391D01*
X120651000Y-61162609D01*
X120587553Y-61481579D01*
X120463097Y-61782042D01*
X120282415Y-62052451D01*
X120052451Y-62282415D01*
X119782042Y-62463097D01*
X119481579Y-62587553D01*
X119375256Y-62608702D01*
X119162611Y-62651000D01*
X118837389Y-62651000D01*
X118624744Y-62608702D01*
X118518421Y-62587553D01*
X118217958Y-62463097D01*
X117947549Y-62282415D01*
X117717585Y-62052451D01*
X117536903Y-61782042D01*
X117412447Y-61481579D01*
X117349000Y-61162609D01*
X117349000Y-60837391D01*
X117356745Y-60798456D01*
X117401321Y-60574354D01*
X117412447Y-60518421D01*
X117536903Y-60217958D01*
X117717585Y-59947549D01*
X117947549Y-59717585D01*
X118217958Y-59536903D01*
X118518421Y-59412447D01*
X118624744Y-59391298D01*
X118837389Y-59349000D01*
X119162611Y-59349000D01*
X119375256Y-59391298D01*
G37*
G36*
X136361000Y-60901000D02*
G01*
X134559000Y-60901000D01*
X134559000Y-59099000D01*
X136361000Y-59099000D01*
X136361000Y-60901000D01*
G37*
G36*
X138113512Y-59103927D02*
G01*
X138262812Y-59133624D01*
X138426784Y-59201544D01*
X138574354Y-59300147D01*
X138699853Y-59425646D01*
X138798456Y-59573216D01*
X138866376Y-59737188D01*
X138901000Y-59911259D01*
X138901000Y-60088741D01*
X138866376Y-60262812D01*
X138798456Y-60426784D01*
X138699853Y-60574354D01*
X138574354Y-60699853D01*
X138426784Y-60798456D01*
X138262812Y-60866376D01*
X138113512Y-60896073D01*
X138088742Y-60901000D01*
X137911258Y-60901000D01*
X137886488Y-60896073D01*
X137737188Y-60866376D01*
X137573216Y-60798456D01*
X137425646Y-60699853D01*
X137300147Y-60574354D01*
X137201544Y-60426784D01*
X137133624Y-60262812D01*
X137099000Y-60088741D01*
X137099000Y-59911259D01*
X137133624Y-59737188D01*
X137201544Y-59573216D01*
X137300147Y-59425646D01*
X137425646Y-59300147D01*
X137573216Y-59201544D01*
X137737188Y-59133624D01*
X137886488Y-59103927D01*
X137911258Y-59099000D01*
X138088742Y-59099000D01*
X138113512Y-59103927D01*
G37*
G36*
X156196720Y-57963520D02*
G01*
X156385881Y-58020901D01*
X156560212Y-58114083D01*
X156713015Y-58239485D01*
X156838417Y-58392288D01*
X156882182Y-58474167D01*
X156931598Y-58566617D01*
X156931599Y-58566620D01*
X156988980Y-58755781D01*
X157003500Y-58903207D01*
X157003500Y-59096794D01*
X156988980Y-59244220D01*
X156931599Y-59433381D01*
X156838417Y-59607712D01*
X156713015Y-59760515D01*
X156560212Y-59885917D01*
X156512802Y-59911258D01*
X156385883Y-59979098D01*
X156385880Y-59979099D01*
X156196719Y-60036480D01*
X156000000Y-60055855D01*
X155803280Y-60036480D01*
X155614119Y-59979099D01*
X155439788Y-59885917D01*
X155286985Y-59760515D01*
X155161583Y-59607712D01*
X155117818Y-59525833D01*
X155068402Y-59433383D01*
X155027986Y-59300148D01*
X155011020Y-59244219D01*
X154996500Y-59096793D01*
X154996500Y-58903206D01*
X155011020Y-58755780D01*
X155068401Y-58566619D01*
X155161583Y-58392288D01*
X155286985Y-58239485D01*
X155439788Y-58114083D01*
X155614120Y-58020901D01*
X155803281Y-57963520D01*
X156000000Y-57944145D01*
X156196720Y-57963520D01*
G37*
G36*
X153656720Y-57963520D02*
G01*
X153845881Y-58020901D01*
X154020212Y-58114083D01*
X154173015Y-58239485D01*
X154298417Y-58392288D01*
X154342182Y-58474167D01*
X154391598Y-58566617D01*
X154391599Y-58566620D01*
X154448980Y-58755781D01*
X154463500Y-58903207D01*
X154463500Y-59096794D01*
X154448980Y-59244220D01*
X154391599Y-59433381D01*
X154298417Y-59607712D01*
X154173015Y-59760515D01*
X154020212Y-59885917D01*
X153972802Y-59911258D01*
X153845883Y-59979098D01*
X153845880Y-59979099D01*
X153656719Y-60036480D01*
X153460000Y-60055855D01*
X153263280Y-60036480D01*
X153074119Y-59979099D01*
X152899788Y-59885917D01*
X152746985Y-59760515D01*
X152621583Y-59607712D01*
X152577818Y-59525833D01*
X152528402Y-59433383D01*
X152487986Y-59300148D01*
X152471020Y-59244219D01*
X152456500Y-59096793D01*
X152456500Y-58903206D01*
X152471020Y-58755780D01*
X152528401Y-58566619D01*
X152621583Y-58392288D01*
X152746985Y-58239485D01*
X152899788Y-58114083D01*
X153074120Y-58020901D01*
X153263281Y-57963520D01*
X153460000Y-57944145D01*
X153656720Y-57963520D01*
G37*
G36*
X159543500Y-60051000D02*
G01*
X157536500Y-60051000D01*
X157536500Y-57949000D01*
X159543500Y-57949000D01*
X159543500Y-60051000D01*
G37*
M02*
